<?xml version="1.0" encoding="utf-8"?>
<!-- Generator: Adobe Illustrator 21.1.0, SVG Export Plug-In . SVG Version: 6.00 Build 0)  -->
<svg version="1.1" id="Layer_1" xmlns="http://www.w3.org/2000/svg" xmlns:xlink="http://www.w3.org/1999/xlink" x="0px" y="0px"
	 viewBox="0 0 1200 300" style="enable-background:new 0 0 1200 300;" xml:space="preserve">
<style type="text/css">
	.st0{fill:#036EAD;}
	.st1{fill:none;}
	.st2{enable-background:new    ;}
	.st3{fill:#FFFFFF;}
</style>
<g>
	<rect class="st0" width="1200" height="300.3"/>
</g>
<rect x="323" y="100" class="st1" width="830" height="167"/>
<g class="st2">
	<path class="st3" d="M375.7,239.7c-0.5,1.3-1.3,2.9-2.3,4.7c-1.1,1.8-2.5,3.5-4.3,5.1c-1.8,1.6-4.1,3-6.7,4.2
		c-2.7,1.1-5.9,1.7-9.6,1.7c-3.9,0-7.5-0.7-10.8-2c-3.3-1.4-6.1-3.4-8.5-6.3c-2.4-2.8-4.2-6.4-5.5-10.7c-1.3-4.3-2-9.4-2-15.3
		s0.7-11,2.1-15.5c1.4-4.4,3.3-8.1,5.8-11c2.5-2.9,5.4-5.1,8.7-6.5c3.3-1.4,7-2.1,10.9-2.1c3.7,0,6.8,0.5,9.3,1.4
		c2.6,1,4.7,2.1,6.4,3.6c1.7,1.4,3.1,3,4.1,4.7c1,1.7,1.8,3.3,2.3,4.8l-11.9,6.3c-0.2-0.6-0.5-1.4-0.9-2.3c-0.4-0.9-1-1.8-1.8-2.7
		c-0.8-0.9-1.8-1.6-3-2.2s-2.6-0.9-4.4-0.9c-4.1,0-7.2,1.8-9.3,5.5c-2.1,3.7-3.2,9.1-3.2,16.3c0,7.4,1.1,13,3.4,16.6
		c2.2,3.7,5.3,5.5,9.3,5.5c1.9,0,3.4-0.3,4.7-1c1.3-0.7,2.3-1.5,3.1-2.4s1.5-1.8,1.9-2.8c0.4-0.9,0.8-1.7,1-2.3L375.7,239.7z"/>
	<path class="st3" d="M382.5,254.3V187H397v54.7h21.4v12.6H382.5z"/>
	<path class="st3" d="M473,220.6c0,5.6-0.6,10.5-1.9,14.8c-1.2,4.3-3,7.9-5.3,10.9c-2.3,2.9-5.1,5.2-8.4,6.7
		c-3.3,1.5-7,2.3-11.2,2.3c-4.1,0-7.8-0.8-11.1-2.3c-3.3-1.5-6.1-3.8-8.3-6.7c-2.3-2.9-4-6.6-5.3-10.9c-1.2-4.3-1.8-9.3-1.8-14.9
		c0-5.5,0.6-10.4,1.8-14.7c1.2-4.3,3-7.9,5.3-10.9c2.3-2.9,5.1-5.2,8.4-6.8c3.3-1.6,7-2.3,11.1-2.3c4.1,0,7.9,0.8,11.2,2.3
		c3.3,1.5,6.1,3.8,8.4,6.7c2.3,3,4.1,6.6,5.3,10.9C472.4,210.1,473,215.1,473,220.6z M457.7,220.5c0-3.4-0.2-6.4-0.7-9.2
		c-0.5-2.7-1.2-5.1-2.1-7c-0.9-1.9-2.1-3.4-3.6-4.4s-3.1-1.6-5.1-1.6c-1.9,0-3.6,0.5-5,1.6c-1.4,1-2.6,2.5-3.5,4.4
		c-0.9,1.9-1.6,4.2-2.1,7c-0.5,2.7-0.7,5.8-0.7,9.2c0,3.5,0.2,6.5,0.7,9.3c0.5,2.7,1.2,5,2.1,6.9c0.9,1.9,2.1,3.3,3.5,4.3
		c1.4,1,3.1,1.5,5,1.5c2,0,3.7-0.5,5.1-1.5s2.6-2.5,3.6-4.4c0.9-1.9,1.6-4.2,2.1-6.9C457.5,227,457.7,223.9,457.7,220.5z"/>
	<path class="st3" d="M515.1,187h14.5v42c0,2.3-0.1,4.5-0.3,6.4c-0.2,1.9-0.6,3.7-1,5.2s-1.1,3-1.8,4.3c-0.7,1.3-1.6,2.6-2.6,3.7
		c-2,2.1-4.4,3.8-7.4,4.9c-3,1.1-6.6,1.7-11,1.7c-4.2,0-7.8-0.5-10.8-1.6s-5.5-2.7-7.5-5.1c-0.9-1.1-1.7-2.2-2.4-3.5
		c-0.7-1.2-1.2-2.6-1.6-4.2s-0.7-3.3-0.9-5.3c-0.2-1.9-0.3-4.2-0.3-6.7v-42h14.4v43.3c0,2.3,0.2,4.3,0.6,5.7c0.4,1.5,1,2.7,1.8,3.6
		c1.8,1.9,4.1,2.8,7,2.8c1.2,0,2.5-0.2,3.8-0.7c1.3-0.4,2.3-1.2,3.2-2.1c0.8-1,1.4-2.2,1.8-3.7s0.5-3.3,0.5-5.6V187z"/>
	<path class="st3" d="M591.6,219.7c0,3.1-0.3,6-0.8,8.7s-1.2,5.2-2.1,7.4c-0.9,2.3-1.9,4.3-3.1,6.1c-1.2,1.8-2.5,3.4-3.8,4.7
		c-2.9,2.8-6.3,4.8-10,5.9c-3.7,1.1-8.1,1.7-13.1,1.7h-16.9V187h17.4c2.6,0,5,0.1,7.3,0.3c2.3,0.2,4.4,0.6,6.3,1.1s3.8,1.2,5.5,2.1
		c1.7,0.9,3.2,2,4.6,3.3c2.7,2.6,4.9,6,6.4,10.2C590.8,208.3,591.6,213.6,591.6,219.7z M576.4,220.5c0-4-0.4-7.5-1.3-10.4
		c-0.9-2.9-2-5.1-3.5-6.7c-1.4-1.5-3-2.6-4.8-3.2c-1.8-0.6-4.1-0.9-7-0.9h-3.6v42.3h3.4c2.8,0,5.1-0.3,7-0.8
		c1.9-0.6,3.5-1.6,4.9-3.1c0.7-0.8,1.4-1.7,2-2.9c0.6-1.2,1.1-2.5,1.5-4c0.4-1.5,0.7-3.1,1-4.8C576.3,224.3,576.4,222.5,576.4,220.5
		z"/>
	<path class="st3" d="M654.4,234.4c0,3.3-0.6,6.2-1.8,8.8c-1.2,2.6-2.8,4.8-4.9,6.6c-2.1,1.8-4.5,3.2-7.4,4.1
		c-2.8,1-5.9,1.4-9.2,1.4c-2.7,0-5.2-0.3-7.5-0.9c-2.2-0.6-4.2-1.4-5.9-2.3c-1.7-0.9-3.1-1.8-4.3-2.8c-1.1-1-2-1.8-2.5-2.5l7.3-10.7
		c0.6,0.8,1.4,1.6,2.3,2.3c0.9,0.7,1.9,1.4,3,1.9c1.1,0.6,2.3,1,3.5,1.3s2.5,0.5,3.8,0.5c1.4,0,2.7-0.2,3.7-0.5
		c1-0.3,1.9-0.8,2.6-1.4c0.7-0.6,1.2-1.3,1.5-2.1c0.3-0.8,0.5-1.7,0.5-2.6c0-1-0.2-1.9-0.6-2.7c-0.4-0.8-1-1.6-1.7-2.3
		c-0.8-0.7-1.7-1.4-2.8-2.1c-1.1-0.7-2.3-1.4-3.7-2.1c-2.8-1.4-5.2-2.8-7.3-4.1c-2.1-1.3-3.9-2.8-5.3-4.3c-1.4-1.6-2.5-3.3-3.2-5.2
		c-0.7-1.9-1.1-4.2-1.1-6.9c0-3.1,0.6-6,1.7-8.4s2.7-4.6,4.6-6.3c1.9-1.7,4.2-3,6.9-3.9c2.6-0.9,5.4-1.3,8.4-1.3c3,0,5.7,0.3,8,1
		c2.3,0.6,4.3,1.4,5.9,2.2c1.6,0.8,2.9,1.7,3.8,2.5s1.5,1.5,1.8,1.9l-7.3,10.6c-0.6-0.7-1.2-1.4-2-2.1c-0.8-0.7-1.7-1.3-2.7-1.8
		c-1-0.5-2.1-0.9-3.2-1.2c-1.2-0.3-2.4-0.5-3.6-0.5c-2.5,0-4.3,0.6-5.6,1.8c-1.2,1.2-1.9,2.7-1.9,4.6c0,0.9,0.2,1.7,0.5,2.5
		c0.3,0.7,0.8,1.5,1.6,2.1c0.7,0.7,1.6,1.4,2.7,2c1.1,0.7,2.3,1.3,3.8,2.1c2.5,1.2,4.8,2.4,6.9,3.7c2.1,1.2,4,2.7,5.6,4.2
		c1.6,1.6,2.8,3.4,3.7,5.5C653.9,229.1,654.4,231.5,654.4,234.4z"/>
	<path class="st3" d="M662.7,254.3V187h37.3v12.4h-22.8V213h21.1v12.6h-21.1v16.1h23.5v12.6H662.7z"/>
	<path class="st3" d="M739.3,254.3l-10.9-25.8h-4v25.8h-14.5V187H730c3.5,0,6.7,0.3,9.4,0.9c2.8,0.6,5.2,1.7,7.2,3.2
		c2.2,1.7,3.9,3.8,5,6.3c1.2,2.6,1.8,5.8,1.8,9.6c0,2.6-0.3,4.8-0.9,6.9c-0.6,2-1.4,3.8-2.4,5.4c-1,1.6-2.2,2.9-3.5,4.1
		s-2.8,2.1-4.4,2.9l13.2,28H739.3z M738.7,207.9c0-3.1-0.8-5.4-2.4-6.9c-1.6-1.5-4.1-2.3-7.6-2.3h-4.3v18.9h4.3
		c3.1,0,5.6-0.8,7.3-2.4S738.7,211.2,738.7,207.9z"/>
	<path class="st3" d="M793.5,254.3h-19.3L756.8,187h16.3l11.3,52.2l11.8-52.2h15.2L793.5,254.3z"/>
	<path class="st3" d="M817.4,254.3V187h14.5v67.3H817.4z"/>
	<path class="st3" d="M890.8,239.7c-0.5,1.3-1.3,2.9-2.3,4.7c-1.1,1.8-2.5,3.5-4.3,5.1c-1.8,1.6-4.1,3-6.7,4.2s-5.9,1.7-9.6,1.7
		c-3.9,0-7.5-0.7-10.8-2c-3.3-1.4-6.1-3.4-8.5-6.3c-2.4-2.8-4.2-6.4-5.5-10.7c-1.3-4.3-2-9.4-2-15.3s0.7-11,2.1-15.5
		c1.4-4.4,3.3-8.1,5.8-11c2.5-2.9,5.4-5.1,8.7-6.5c3.3-1.4,7-2.1,10.9-2.1c3.7,0,6.8,0.5,9.3,1.4c2.6,1,4.7,2.1,6.4,3.6
		c1.7,1.4,3.1,3,4.1,4.7c1,1.7,1.8,3.3,2.3,4.8l-11.9,6.3c-0.2-0.6-0.5-1.4-0.9-2.3s-1-1.8-1.8-2.7c-0.8-0.9-1.8-1.6-3-2.2
		c-1.2-0.6-2.6-0.9-4.4-0.9c-4.1,0-7.2,1.8-9.3,5.5c-2.1,3.7-3.2,9.1-3.2,16.3c0,7.4,1.1,13,3.4,16.6c2.2,3.7,5.3,5.5,9.3,5.5
		c1.9,0,3.4-0.3,4.7-1c1.3-0.7,2.3-1.5,3.1-2.4s1.5-1.8,1.9-2.8c0.4-0.9,0.8-1.7,1-2.3L890.8,239.7z"/>
	<path class="st3" d="M897.6,254.3V187h37.3v12.4h-22.8V213h21.1v12.6h-21.1v16.1h23.5v12.6H897.6z"/>
	<path class="st3" d="M982.7,234.4c0,3.3-0.6,6.2-1.8,8.8c-1.2,2.6-2.8,4.8-4.9,6.6c-2.1,1.8-4.5,3.2-7.4,4.1
		c-2.8,1-5.9,1.4-9.2,1.4c-2.7,0-5.2-0.3-7.5-0.9c-2.2-0.6-4.2-1.4-5.9-2.3c-1.7-0.9-3.1-1.8-4.3-2.8c-1.1-1-2-1.8-2.5-2.5l7.3-10.7
		c0.6,0.8,1.4,1.6,2.3,2.3c0.9,0.7,1.9,1.4,3,1.9c1.1,0.6,2.3,1,3.5,1.3s2.5,0.5,3.8,0.5c1.4,0,2.7-0.2,3.7-0.5
		c1-0.3,1.9-0.8,2.6-1.4c0.7-0.6,1.2-1.3,1.5-2.1c0.3-0.8,0.5-1.7,0.5-2.6c0-1-0.2-1.9-0.6-2.7c-0.4-0.8-1-1.6-1.7-2.3
		c-0.8-0.7-1.7-1.4-2.8-2.1c-1.1-0.7-2.3-1.4-3.7-2.1c-2.8-1.4-5.2-2.8-7.3-4.1c-2.1-1.3-3.9-2.8-5.3-4.3c-1.4-1.6-2.5-3.3-3.2-5.2
		c-0.7-1.9-1.1-4.2-1.1-6.9c0-3.1,0.6-6,1.7-8.4s2.7-4.6,4.6-6.3c1.9-1.7,4.2-3,6.9-3.9c2.6-0.9,5.4-1.3,8.4-1.3c3,0,5.7,0.3,8,1
		c2.3,0.6,4.3,1.4,5.9,2.2c1.6,0.8,2.9,1.7,3.8,2.5s1.5,1.5,1.8,1.9l-7.3,10.6c-0.6-0.7-1.2-1.4-2-2.1c-0.8-0.7-1.7-1.3-2.7-1.8
		c-1-0.5-2.1-0.9-3.2-1.2c-1.2-0.3-2.4-0.5-3.6-0.5c-2.5,0-4.3,0.6-5.6,1.8c-1.2,1.2-1.9,2.7-1.9,4.6c0,0.9,0.2,1.7,0.5,2.5
		c0.3,0.7,0.8,1.5,1.6,2.1c0.7,0.7,1.6,1.4,2.7,2c1.1,0.7,2.3,1.3,3.8,2.1c2.5,1.2,4.8,2.4,6.9,3.7c2.1,1.2,4,2.7,5.6,4.2
		c1.6,1.6,2.8,3.4,3.7,5.5C982.3,229.1,982.7,231.5,982.7,234.4z"/>
</g>
<path class="st3" d="M252.9,153.4c1.4-5.3,2.5-11,2.7-16.8c2.2-39.1-24.7-72.7-60.1-75.4c-28.8-2.1-54.3,17.2-64,45.4
	c-7.7-6.2-17.2-9.9-27.4-9.9c-25.3,0-45.8,22.4-45.8,50c0,4.3,0.5,8.5,1.4,12.5c-20.8,3.5-36.6,23.7-36.6,48.2
	c0,26.9,19.3,48.7,42.9,48.7c2.9,0,181.9,0,184.9,0c25.9,0,47-23,47-51.4C298.1,177.1,278,154.5,252.9,153.4z M133.7,221
	c-6.1,0-11.1-4.8-11.1-10.6c0-5.9,5-10.6,11.1-10.6c6.1,0,11.1,4.8,11.1,10.6C144.8,216.3,139.8,221,133.7,221z M158.6,219.4
	c0-18.4-15.1-33.3-33.7-33.3v-19.3c29.3,0,53.2,23.6,53.2,52.7L158.6,219.4L158.6,219.4z M193.6,219.4c0-0.6,0.1-1,0.1-1.6
	c0-36.1-29.9-65.3-66.8-65.3c-0.8,0-1.7,0-2.5,0.1v-22.2c49.9,0,90.5,39.9,90.5,89.1h-21.3V219.4z"/>
</svg>
