<?xml version="1.0" encoding="utf-8"?>
<!-- Generator: Adobe Illustrator 21.1.0, SVG Export Plug-In . SVG Version: 6.00 Build 0)  -->
<svg version="1.1" id="Layer_1" xmlns="http://www.w3.org/2000/svg" xmlns:xlink="http://www.w3.org/1999/xlink" x="0px" y="0px"
	 viewBox="0 0 1200 300" style="enable-background:new 0 0 1200 300;" xml:space="preserve">
<style type="text/css">
	.st0{fill:#036EAD;}
	.st1{fill:#FFFFFF;}
	.st2{fill:none;}
	.st3{enable-background:new    ;}
</style>
<g>
	<rect class="st0" width="1200" height="300.3"/>
</g>
<g>
	<g>
		<polygon id="XMLID_473_" class="st1" points="187,258.1 187,265.8 163,265.8 139,265.8 139,258.1 17,258.1 33.1,285.7 163,285.7 
			292.9,285.7 309,258.1 		"/>
		<path class="st1" d="M71.8,244.2v-121h184.3v120.9H280V112.9c0-7.1-5.8-13-12.8-13H60.7c-7.1,0-12.8,5.8-12.8,13v131.2L71.8,244.2
			L71.8,244.2z"/>
	</g>
	<g>
		<path class="st1" d="M182.9,161.1c0,12.4-10,25.1-19.3,25.1S145,174.1,145,161.7s9.4-18.5,18.6-18.5
			C172.8,143.2,182.9,148.7,182.9,161.1z"/>
		<path class="st1" d="M164,207l-16.9-20.2c0,0-1.2,0.5-1.8,0.7c-13.7,5.8-23.1,17.7-23.1,31.5c0,2.3,0.2,4.6,0.7,6.7
			c10.5,4.9,24.8,7.9,40.5,7.9c16.2,0,30.9-3.2,41.5-8.3c0.4-2.1,0.7-4.2,0.7-6.3c0-13.7-9.3-25.7-22.9-31.4
			c-0.4-0.2-1.3-0.6-1.3-0.6L164,207z"/>
	</g>
</g>
<rect x="323" y="58" class="st2" width="830" height="262"/>
<g class="st3">
	<path class="st1" d="M329.2,254.5v-67.3h14.5v54.7h21.4v12.6H329.2z"/>
	<path class="st1" d="M405.5,254.5l-3.5-14.1H384l-3.5,14.1h-14.9l18-67.3h19.7l17.8,67.3H405.5z M393,200.5l-6.6,28.8h13L393,200.5
		z"/>
	<path class="st1" d="M487.7,254.5h-17.3l-9.1-50.6l-9.1,50.6H435l-13.8-67.3h15.4l8,51l9-51h16.7l8.9,51l7.9-51h14.5L487.7,254.5z"
		/>
	<path class="st1" d="M535.9,227.1v27.4h-14.6v-27.4l-18.8-39.9h15.8l10.4,28.1l10.4-28.1h15.8L535.9,227.1z"/>
	<path class="st1" d="M560.8,254.5v-67.3h37.3v12.4h-22.8v13.6h21.1v12.6h-21.1v16.1h23.5v12.6H560.8z"/>
	<path class="st1" d="M637.4,254.5l-10.9-25.8h-4v25.8h-14.5v-67.3h20.1c3.5,0,6.7,0.3,9.4,0.9c2.8,0.6,5.2,1.7,7.2,3.2
		c2.2,1.7,3.9,3.8,5,6.3c1.2,2.6,1.8,5.8,1.8,9.6c0,2.6-0.3,4.8-0.9,6.9c-0.6,2-1.4,3.8-2.4,5.4c-1,1.6-2.2,2.9-3.5,4.1
		s-2.8,2.1-4.4,2.9l13.2,28H637.4z M636.8,208.1c0-3.1-0.8-5.4-2.4-6.9c-1.6-1.5-4.1-2.3-7.6-2.3h-4.3v18.9h4.3
		c3.1,0,5.6-0.8,7.3-2.4S636.8,211.4,636.8,208.1z"/>
	<path class="st1" d="M676.3,186.6c-0.1,2.5-0.4,5-1.1,7.4c-0.7,2.4-1.5,4.7-2.6,6.9c-1.1,2.2-2.4,4.2-3.8,6s-3,3.5-4.7,4.8
		l-8.4-4.1c1.4-1.7,2.6-3.3,3.7-5c1.1-1.7,2.1-3.5,2.8-5.4c0.8-1.9,1.4-3.9,1.9-6.1c0.5-2.2,0.8-4.5,0.9-7L676.3,186.6z"/>
	<path class="st1" d="M722.5,234.6c0,3.3-0.6,6.2-1.8,8.8c-1.2,2.6-2.8,4.8-4.9,6.6c-2.1,1.8-4.5,3.2-7.4,4.1
		c-2.8,1-5.9,1.4-9.2,1.4c-2.7,0-5.2-0.3-7.5-0.9c-2.2-0.6-4.2-1.4-5.9-2.3c-1.7-0.9-3.1-1.8-4.3-2.8c-1.1-1-2-1.8-2.5-2.5l7.3-10.7
		c0.6,0.8,1.4,1.6,2.3,2.3c0.9,0.7,1.9,1.4,3,1.9c1.1,0.6,2.3,1,3.5,1.3s2.5,0.5,3.8,0.5c1.4,0,2.7-0.2,3.7-0.5
		c1-0.3,1.9-0.8,2.6-1.4c0.7-0.6,1.2-1.3,1.5-2.1c0.3-0.8,0.5-1.7,0.5-2.6c0-1-0.2-1.9-0.6-2.7c-0.4-0.8-1-1.6-1.7-2.3
		c-0.8-0.7-1.7-1.4-2.8-2.1c-1.1-0.7-2.3-1.4-3.7-2.1c-2.8-1.4-5.2-2.8-7.3-4.1c-2.1-1.3-3.9-2.8-5.3-4.3c-1.4-1.6-2.5-3.3-3.2-5.2
		c-0.7-1.9-1.1-4.2-1.1-6.9c0-3.1,0.6-6,1.7-8.4s2.7-4.6,4.6-6.3c1.9-1.7,4.2-3,6.9-3.9c2.6-0.9,5.4-1.3,8.4-1.3c3,0,5.7,0.3,8,1
		c2.3,0.6,4.3,1.4,5.9,2.2c1.6,0.8,2.9,1.7,3.8,2.5s1.5,1.5,1.8,1.9l-7.3,10.6c-0.6-0.7-1.2-1.4-2-2.1c-0.8-0.7-1.7-1.3-2.7-1.8
		c-1-0.5-2.1-0.9-3.2-1.2c-1.2-0.3-2.4-0.5-3.6-0.5c-2.5,0-4.3,0.6-5.6,1.8c-1.2,1.2-1.9,2.7-1.9,4.6c0,0.9,0.2,1.7,0.5,2.5
		c0.3,0.7,0.8,1.5,1.6,2.1c0.7,0.7,1.6,1.4,2.7,2c1.1,0.7,2.3,1.3,3.8,2.1c2.5,1.2,4.8,2.4,6.9,3.7c2.1,1.2,4,2.7,5.6,4.2
		c1.6,1.6,2.8,3.4,3.7,5.5C722.1,229.3,722.5,231.7,722.5,234.6z"/>
	<path class="st1" d="M779.5,254.5v-28.7h-18.4v28.7h-14.5v-67.3h14.5v25.9h18.4v-25.9h14.9v67.3H779.5z"/>
	<path class="st1" d="M806.7,254.5v-67.3H844v12.4h-22.8v13.6h21.1v12.6h-21.1v16.1h23.5v12.6H806.7z"/>
	<path class="st1" d="M853.8,254.5v-67.3h14.5v54.7h21.4v12.6H853.8z"/>
	<path class="st1" d="M940.4,209.9c0,3.9-0.6,7.3-1.9,10.2s-3,5.3-5.3,7.3c-2.1,1.9-4.7,3.2-7.6,4c-2.9,0.7-6.1,1.1-9.5,1.1h-4.8v22
		h-14.5v-67.3H916c4,0,7.5,0.4,10.6,1.3c3.1,0.8,5.7,2.3,7.9,4.3c2.1,1.9,3.6,4.3,4.5,7C939.9,202.6,940.4,205.9,940.4,209.9z
		 M925.9,209.9c0-2.2-0.3-4.1-0.9-5.5s-1.3-2.5-2.1-3.2c-0.8-0.9-1.8-1.5-3.1-1.8c-1.3-0.3-2.7-0.5-4.1-0.5h-4.2v22h3.7
		c3.5,0,6-0.7,7.6-2.2c0.9-0.8,1.7-1.9,2.3-3.3S925.9,212.1,925.9,209.9z"/>
	<path class="st1" d="M997.8,219.9c0,3.1-0.3,6-0.8,8.7s-1.2,5.2-2.1,7.4c-0.9,2.3-1.9,4.3-3.1,6.1c-1.2,1.8-2.5,3.4-3.8,4.7
		c-2.9,2.8-6.3,4.8-10,5.9c-3.7,1.1-8.1,1.7-13.1,1.7H948v-67.3h17.4c2.6,0,5,0.1,7.3,0.3c2.3,0.2,4.4,0.6,6.3,1.1s3.8,1.2,5.5,2.1
		c1.7,0.9,3.2,2,4.6,3.3c2.7,2.6,4.9,6,6.4,10.2C997,208.5,997.8,213.8,997.8,219.9z M982.7,220.7c0-4-0.4-7.5-1.3-10.4
		c-0.9-2.9-2-5.1-3.5-6.7c-1.4-1.5-3-2.6-4.8-3.2c-1.8-0.6-4.1-0.9-7-0.9h-3.6v42.3h3.4c2.8,0,5.1-0.3,7-0.8
		c1.9-0.6,3.5-1.6,4.9-3.1c0.7-0.8,1.4-1.7,2-2.9c0.6-1.2,1.1-2.5,1.5-4c0.4-1.5,0.7-3.1,1-4.8C982.5,224.5,982.7,222.7,982.7,220.7
		z"/>
	<path class="st1" d="M1007,254.5v-67.3h37.3v12.4h-22.8v13.6h21.1v12.6h-21.1v16.1h23.5v12.6H1007z"/>
	<path class="st1" d="M1092.1,234.6c0,3.3-0.6,6.2-1.8,8.8c-1.2,2.6-2.8,4.8-4.9,6.6c-2.1,1.8-4.5,3.2-7.4,4.1
		c-2.8,1-5.9,1.4-9.2,1.4c-2.7,0-5.2-0.3-7.5-0.9c-2.2-0.6-4.2-1.4-5.9-2.3c-1.7-0.9-3.1-1.8-4.3-2.8c-1.1-1-2-1.8-2.5-2.5l7.3-10.7
		c0.6,0.8,1.4,1.6,2.3,2.3c0.9,0.7,1.9,1.4,3,1.9c1.1,0.6,2.3,1,3.5,1.3s2.5,0.5,3.8,0.5c1.4,0,2.7-0.2,3.7-0.5
		c1-0.3,1.9-0.8,2.6-1.4c0.7-0.6,1.2-1.3,1.5-2.1c0.3-0.8,0.5-1.7,0.5-2.6c0-1-0.2-1.9-0.6-2.7c-0.4-0.8-1-1.6-1.7-2.3
		c-0.8-0.7-1.7-1.4-2.8-2.1c-1.1-0.7-2.3-1.4-3.7-2.1c-2.8-1.4-5.2-2.8-7.3-4.1c-2.1-1.3-3.9-2.8-5.3-4.3c-1.4-1.6-2.5-3.3-3.2-5.2
		c-0.7-1.9-1.1-4.2-1.1-6.9c0-3.1,0.6-6,1.7-8.4s2.7-4.6,4.6-6.3c1.9-1.7,4.2-3,6.9-3.9c2.6-0.9,5.4-1.3,8.4-1.3c3,0,5.7,0.3,8,1
		c2.3,0.6,4.3,1.4,5.9,2.2c1.6,0.8,2.9,1.7,3.8,2.5s1.5,1.5,1.8,1.9l-7.3,10.6c-0.6-0.7-1.2-1.4-2-2.1c-0.8-0.7-1.7-1.3-2.7-1.8
		c-1-0.5-2.1-0.9-3.2-1.2c-1.2-0.3-2.4-0.5-3.6-0.5c-2.5,0-4.3,0.6-5.6,1.8c-1.2,1.2-1.9,2.7-1.9,4.6c0,0.9,0.2,1.7,0.5,2.5
		c0.3,0.7,0.8,1.5,1.6,2.1c0.7,0.7,1.6,1.4,2.7,2c1.1,0.7,2.3,1.3,3.8,2.1c2.5,1.2,4.8,2.4,6.9,3.7c2.1,1.2,4,2.7,5.6,4.2
		c1.6,1.6,2.8,3.4,3.7,5.5C1091.6,229.3,1092.1,231.7,1092.1,234.6z"/>
	<path class="st1" d="M1131,254.5l-11.8-27.9l-4.2,6.3v21.6h-14.5v-67.3h14.5v28.2l16-28.2h16.9l-18.1,27.6l19,39.6H1131z"/>
</g>
</svg>
