<?xml version="1.0" encoding="utf-8"?>
<!-- Generator: Adobe Illustrator 21.1.0, SVG Export Plug-In . SVG Version: 6.00 Build 0)  -->
<svg version="1.1" id="Layer_1" xmlns="http://www.w3.org/2000/svg" xmlns:xlink="http://www.w3.org/1999/xlink" x="0px" y="0px"
	 viewBox="0 0 1200 300" style="enable-background:new 0 0 1200 300;" xml:space="preserve">
<style type="text/css">
	.st0{fill:#036EAD;}
	.st1{fill:none;}
	.st2{enable-background:new    ;}
	.st3{fill:#FFFFFF;}
</style>
<g>
	<rect class="st0" width="1200" height="300.3"/>
</g>
<rect x="323" y="100" class="st1" width="830" height="167"/>
<g class="st2">
	<path class="st3" d="M375.7,154.7c-0.5,1.3-1.3,2.9-2.3,4.7c-1.1,1.8-2.5,3.5-4.3,5.1c-1.8,1.6-4.1,3-6.7,4.2
		c-2.7,1.1-5.9,1.7-9.6,1.7c-3.9,0-7.5-0.7-10.8-2c-3.3-1.4-6.1-3.4-8.5-6.3c-2.4-2.8-4.2-6.4-5.5-10.7c-1.3-4.3-2-9.4-2-15.3
		s0.7-11,2.1-15.5c1.4-4.4,3.3-8.1,5.8-11c2.5-2.9,5.4-5.1,8.7-6.5c3.3-1.4,7-2.1,10.9-2.1c3.7,0,6.8,0.5,9.3,1.4
		c2.6,1,4.7,2.1,6.4,3.6c1.7,1.4,3.1,3,4.1,4.7c1,1.7,1.8,3.3,2.3,4.8l-11.9,6.3c-0.2-0.6-0.5-1.4-0.9-2.3c-0.4-0.9-1-1.8-1.8-2.7
		c-0.8-0.9-1.8-1.6-3-2.2s-2.6-0.9-4.4-0.9c-4.1,0-7.2,1.8-9.3,5.5c-2.1,3.7-3.2,9.1-3.2,16.3c0,7.4,1.1,13,3.4,16.6
		c2.2,3.7,5.3,5.5,9.3,5.5c1.9,0,3.4-0.3,4.7-1c1.3-0.7,2.3-1.5,3.1-2.4s1.5-1.8,1.9-2.8c0.4-0.9,0.8-1.7,1-2.3L375.7,154.7z"/>
	<path class="st3" d="M432.6,135.6c0,5.6-0.6,10.5-1.9,14.8c-1.2,4.3-3,7.9-5.3,10.9c-2.3,2.9-5.1,5.2-8.4,6.7
		c-3.3,1.5-7,2.3-11.2,2.3c-4.1,0-7.8-0.8-11.1-2.3c-3.3-1.5-6.1-3.8-8.3-6.7c-2.3-2.9-4-6.6-5.3-10.9c-1.2-4.3-1.8-9.3-1.8-14.9
		c0-5.5,0.6-10.4,1.8-14.7c1.2-4.3,3-7.9,5.3-10.9c2.3-2.9,5.1-5.2,8.4-6.8c3.3-1.6,7-2.3,11.1-2.3c4.1,0,7.9,0.8,11.2,2.3
		c3.3,1.5,6.1,3.8,8.4,6.7c2.3,3,4.1,6.6,5.3,10.9C432,125.1,432.6,130.1,432.6,135.6z M417.3,135.5c0-3.4-0.2-6.4-0.7-9.2
		c-0.5-2.7-1.2-5.1-2.1-7c-0.9-1.9-2.1-3.4-3.6-4.4s-3.1-1.6-5.1-1.6c-1.9,0-3.6,0.5-5,1.6c-1.4,1-2.6,2.5-3.5,4.4
		c-0.9,1.9-1.6,4.2-2.1,7c-0.5,2.7-0.7,5.8-0.7,9.2c0,3.5,0.2,6.5,0.7,9.3c0.5,2.7,1.2,5,2.1,6.9c0.9,1.9,2.1,3.3,3.5,4.3
		c1.4,1,3.1,1.5,5,1.5c2,0,3.7-0.5,5.1-1.5s2.6-2.5,3.6-4.4c0.9-1.9,1.6-4.2,2.1-6.9C417,142,417.3,138.9,417.3,135.5z"/>
	<path class="st3" d="M441.7,169.3V102h14.5v54.7h21.4v12.6H441.7z"/>
	<path class="st3" d="M484.7,169.3V102h14.5v54.7h21.4v12.6H484.7z"/>
	<path class="st3" d="M561,169.3l-3.5-14.1h-17.9l-3.5,14.1h-14.9l18-67.3H559l17.8,67.3H561z M548.6,115.3l-6.6,28.8h13
		L548.6,115.3z"/>
	<path class="st3" d="M628.5,149.7c0,1.8-0.2,3.5-0.6,5c-0.4,1.5-0.9,2.9-1.5,4.2c-0.6,1.3-1.4,2.4-2.3,3.4c-0.9,1-1.8,1.8-2.8,2.6
		c-1.2,0.9-2.5,1.6-3.9,2.2c-1.4,0.6-2.9,1-4.6,1.4s-3.4,0.6-5.3,0.7c-1.9,0.1-3.9,0.2-6.1,0.2h-18.8V102h18.2c2.2,0,4.3,0,6.1,0.1
		c1.8,0.1,3.4,0.3,4.9,0.5c1.5,0.3,2.8,0.6,4,1.1c1.2,0.4,2.4,1,3.5,1.8c1.9,1.2,3.4,2.9,4.5,5c1.1,2.1,1.7,4.9,1.7,8.2
		c0,3.4-0.9,6.4-2.7,9c-1.8,2.6-4.3,4.5-7.6,5.7c4.6,0.9,7.9,2.7,10,5.5C627.4,141.7,628.5,145.3,628.5,149.7z M610.9,120.9
		c0-1.7-0.3-3.1-0.9-4.1c-0.6-1-1.3-1.8-2.3-2.3s-2-0.9-3.2-1c-1.2-0.2-2.4-0.2-3.5-0.2h-3.8v16h3.7c1.1,0,2.3-0.1,3.4-0.3
		c1.2-0.2,2.3-0.6,3.2-1.1c1-0.6,1.8-1.4,2.4-2.5C610.6,124.2,610.9,122.7,610.9,120.9z M613.4,148.8c0-1.8-0.3-3.3-0.9-4.6
		c-0.6-1.2-1.4-2.2-2.4-2.9c-1-0.7-2.1-1.2-3.4-1.5c-1.3-0.3-2.6-0.4-4-0.4h-5.5v18.8h5.5c1.4,0,2.7-0.1,4-0.4
		c1.3-0.3,2.4-0.8,3.4-1.5c1-0.7,1.8-1.7,2.4-2.9C613.1,152.2,613.4,150.6,613.4,148.8z"/>
	<path class="st3" d="M687.1,135.6c0,5.6-0.6,10.5-1.9,14.8c-1.2,4.3-3,7.9-5.3,10.9c-2.3,2.9-5.1,5.2-8.4,6.7
		c-3.3,1.5-7,2.3-11.2,2.3c-4.1,0-7.8-0.8-11.1-2.3c-3.3-1.5-6.1-3.8-8.3-6.7c-2.3-2.9-4-6.6-5.3-10.9c-1.2-4.3-1.8-9.3-1.8-14.9
		c0-5.5,0.6-10.4,1.8-14.7c1.2-4.3,3-7.9,5.3-10.9c2.3-2.9,5.1-5.2,8.4-6.8c3.3-1.6,7-2.3,11.1-2.3c4.1,0,7.9,0.8,11.2,2.3
		c3.3,1.5,6.1,3.8,8.4,6.7c2.3,3,4.1,6.6,5.3,10.9C686.5,125.1,687.1,130.1,687.1,135.6z M671.7,135.5c0-3.4-0.2-6.4-0.7-9.2
		c-0.5-2.7-1.2-5.1-2.1-7c-0.9-1.9-2.1-3.4-3.6-4.4s-3.1-1.6-5.1-1.6c-1.9,0-3.6,0.5-5,1.6c-1.4,1-2.6,2.5-3.5,4.4
		c-0.9,1.9-1.6,4.2-2.1,7c-0.5,2.7-0.7,5.8-0.7,9.2c0,3.5,0.2,6.5,0.7,9.3c0.5,2.7,1.2,5,2.1,6.9c0.9,1.9,2.1,3.3,3.5,4.3
		c1.4,1,3.1,1.5,5,1.5c2,0,3.7-0.5,5.1-1.5s2.6-2.5,3.6-4.4c0.9-1.9,1.6-4.2,2.1-6.9C671.5,142,671.7,138.9,671.7,135.5z"/>
	<path class="st3" d="M725.7,169.3l-10.9-25.8h-4v25.8h-14.5V102h20.1c3.5,0,6.7,0.3,9.4,0.9c2.8,0.6,5.2,1.7,7.2,3.2
		c2.2,1.7,3.9,3.8,5,6.3c1.2,2.6,1.8,5.8,1.8,9.6c0,2.6-0.3,4.8-0.9,6.9c-0.6,2-1.4,3.8-2.4,5.4c-1,1.6-2.2,2.9-3.5,4.1
		s-2.8,2.1-4.4,2.9l13.2,28H725.7z M725.1,122.9c0-3.1-0.8-5.4-2.4-6.9c-1.6-1.5-4.1-2.3-7.6-2.3h-4.3v18.9h4.3
		c3.1,0,5.6-0.8,7.3-2.4S725.1,126.2,725.1,122.9z"/>
	<path class="st3" d="M782.8,169.3l-3.5-14.1h-17.9l-3.5,14.1h-14.9l18-67.3h19.7l17.8,67.3H782.8z M770.4,115.3l-6.6,28.8h13
		L770.4,115.3z"/>
	<path class="st3" d="M823.5,114.2v55.1h-14.6v-55.1h-14.4V102h43.5v12.2H823.5z"/>
	<path class="st3" d="M844.5,169.3V102H859v67.3H844.5z"/>
	<path class="st3" d="M921.5,135.6c0,5.6-0.6,10.5-1.9,14.8c-1.2,4.3-3,7.9-5.3,10.9c-2.3,2.9-5.1,5.2-8.4,6.7
		c-3.3,1.5-7,2.3-11.2,2.3c-4.1,0-7.8-0.8-11.1-2.3c-3.3-1.5-6.1-3.8-8.3-6.7c-2.3-2.9-4-6.6-5.3-10.9c-1.2-4.3-1.8-9.3-1.8-14.9
		c0-5.5,0.6-10.4,1.8-14.7c1.2-4.3,3-7.9,5.3-10.9c2.3-2.9,5.1-5.2,8.4-6.8c3.3-1.6,7-2.3,11.1-2.3c4.1,0,7.9,0.8,11.2,2.3
		c3.3,1.5,6.1,3.8,8.4,6.7c2.3,3,4.1,6.6,5.3,10.9C920.9,125.1,921.5,130.1,921.5,135.6z M906.2,135.5c0-3.4-0.2-6.4-0.7-9.2
		c-0.5-2.7-1.2-5.1-2.1-7c-0.9-1.9-2.1-3.4-3.6-4.4s-3.1-1.6-5.1-1.6c-1.9,0-3.6,0.5-5,1.6c-1.4,1-2.6,2.5-3.5,4.4
		c-0.9,1.9-1.6,4.2-2.1,7c-0.5,2.7-0.7,5.8-0.7,9.2c0,3.5,0.2,6.5,0.7,9.3c0.5,2.7,1.2,5,2.1,6.9c0.9,1.9,2.1,3.3,3.5,4.3
		c1.4,1,3.1,1.5,5,1.5c2,0,3.7-0.5,5.1-1.5s2.6-2.5,3.6-4.4c0.9-1.9,1.6-4.2,2.1-6.9C906,142,906.2,138.9,906.2,135.5z"/>
	<path class="st3" d="M964.6,169.3l-20.4-43v43h-13.5V102H945l19.5,41.4V102h13.8v67.3H964.6z"/>
</g>
<g class="st2">
	<path class="st3" d="M352.5,199.2v55.1h-14.6v-55.1h-14.4V187h43.5v12.2H352.5z"/>
	<path class="st3" d="M420.4,220.6c0,5.6-0.6,10.5-1.9,14.8c-1.2,4.3-3,7.9-5.3,10.9c-2.3,2.9-5.1,5.2-8.4,6.7
		c-3.3,1.5-7,2.3-11.2,2.3c-4.1,0-7.8-0.8-11.1-2.3c-3.3-1.5-6.1-3.8-8.3-6.7c-2.3-2.9-4-6.6-5.3-10.9c-1.2-4.3-1.8-9.3-1.8-14.9
		c0-5.5,0.6-10.4,1.8-14.7c1.2-4.3,3-7.9,5.3-10.9c2.3-2.9,5.1-5.2,8.4-6.8c3.3-1.6,7-2.3,11.1-2.3c4.1,0,7.9,0.8,11.2,2.3
		c3.3,1.5,6.1,3.8,8.4,6.7c2.3,3,4.1,6.6,5.3,10.9C419.8,210.1,420.4,215.1,420.4,220.6z M405.1,220.5c0-3.4-0.2-6.4-0.7-9.2
		c-0.5-2.7-1.2-5.1-2.1-7c-0.9-1.9-2.1-3.4-3.6-4.4s-3.1-1.6-5.1-1.6c-1.9,0-3.6,0.5-5,1.6c-1.4,1-2.6,2.5-3.5,4.4
		c-0.9,1.9-1.6,4.2-2.1,7c-0.5,2.7-0.7,5.8-0.7,9.2c0,3.5,0.2,6.5,0.7,9.3c0.5,2.7,1.2,5,2.1,6.9c0.9,1.9,2.1,3.3,3.5,4.3
		c1.4,1,3.1,1.5,5,1.5c2,0,3.7-0.5,5.1-1.5s2.6-2.5,3.6-4.4c0.9-1.9,1.6-4.2,2.1-6.9C404.9,227,405.1,223.9,405.1,220.5z"/>
	<path class="st3" d="M479.7,220.6c0,5.6-0.6,10.5-1.9,14.8c-1.2,4.3-3,7.9-5.3,10.9c-2.3,2.9-5.1,5.2-8.4,6.7
		c-3.3,1.5-7,2.3-11.2,2.3c-4.1,0-7.8-0.8-11.1-2.3c-3.3-1.5-6.1-3.8-8.3-6.7c-2.3-2.9-4-6.6-5.3-10.9c-1.2-4.3-1.8-9.3-1.8-14.9
		c0-5.5,0.6-10.4,1.8-14.7c1.2-4.3,3-7.9,5.3-10.9c2.3-2.9,5.1-5.2,8.4-6.8c3.3-1.6,7-2.3,11.1-2.3c4.1,0,7.9,0.8,11.2,2.3
		c3.3,1.5,6.1,3.8,8.4,6.7c2.3,3,4.1,6.6,5.3,10.9C479.1,210.1,479.7,215.1,479.7,220.6z M464.4,220.5c0-3.4-0.2-6.4-0.7-9.2
		c-0.5-2.7-1.2-5.1-2.1-7c-0.9-1.9-2.1-3.4-3.6-4.4s-3.1-1.6-5.1-1.6c-1.9,0-3.6,0.5-5,1.6c-1.4,1-2.6,2.5-3.5,4.4
		c-0.9,1.9-1.6,4.2-2.1,7c-0.5,2.7-0.7,5.8-0.7,9.2c0,3.5,0.2,6.5,0.7,9.3c0.5,2.7,1.2,5,2.1,6.9c0.9,1.9,2.1,3.3,3.5,4.3
		c1.4,1,3.1,1.5,5,1.5c2,0,3.7-0.5,5.1-1.5s2.6-2.5,3.6-4.4c0.9-1.9,1.6-4.2,2.1-6.9C464.1,227,464.4,223.9,464.4,220.5z"/>
	<path class="st3" d="M488.8,254.3V187h14.5v54.7h21.4v12.6H488.8z"/>
	<path class="st3" d="M569.8,234.4c0,3.3-0.6,6.2-1.8,8.8c-1.2,2.6-2.8,4.8-4.9,6.6c-2.1,1.8-4.5,3.2-7.4,4.1
		c-2.8,1-5.9,1.4-9.2,1.4c-2.7,0-5.2-0.3-7.5-0.9c-2.2-0.6-4.2-1.4-5.9-2.3c-1.7-0.9-3.1-1.8-4.3-2.8c-1.1-1-2-1.8-2.5-2.5l7.3-10.7
		c0.6,0.8,1.4,1.6,2.3,2.3c0.9,0.7,1.9,1.4,3,1.9c1.1,0.6,2.3,1,3.5,1.3s2.5,0.5,3.8,0.5c1.4,0,2.7-0.2,3.7-0.5
		c1-0.3,1.9-0.8,2.6-1.4c0.7-0.6,1.2-1.3,1.5-2.1c0.3-0.8,0.5-1.7,0.5-2.6c0-1-0.2-1.9-0.6-2.7c-0.4-0.8-1-1.6-1.7-2.3
		c-0.8-0.7-1.7-1.4-2.8-2.1c-1.1-0.7-2.3-1.4-3.7-2.1c-2.8-1.4-5.2-2.8-7.3-4.1c-2.1-1.3-3.9-2.8-5.3-4.3c-1.4-1.6-2.5-3.3-3.2-5.2
		c-0.7-1.9-1.1-4.2-1.1-6.9c0-3.1,0.6-6,1.7-8.4s2.7-4.6,4.6-6.3c1.9-1.7,4.2-3,6.9-3.9c2.6-0.9,5.4-1.3,8.4-1.3c3,0,5.7,0.3,8,1
		c2.3,0.6,4.3,1.4,5.9,2.2c1.6,0.8,2.9,1.7,3.8,2.5s1.5,1.5,1.8,1.9l-7.3,10.6c-0.6-0.7-1.2-1.4-2-2.1c-0.8-0.7-1.7-1.3-2.7-1.8
		s-2.1-0.9-3.2-1.2c-1.2-0.3-2.4-0.5-3.6-0.5c-2.5,0-4.3,0.6-5.6,1.8c-1.2,1.2-1.9,2.7-1.9,4.6c0,0.9,0.2,1.7,0.5,2.5
		c0.3,0.7,0.8,1.5,1.6,2.1c0.7,0.7,1.6,1.4,2.7,2c1.1,0.7,2.3,1.3,3.8,2.1c2.5,1.2,4.8,2.4,6.9,3.7c2.1,1.2,4,2.7,5.6,4.2
		c1.6,1.6,2.8,3.4,3.7,5.5C569.3,229.1,569.8,231.5,569.8,234.4z"/>
</g>
<g>
	<path class="st3" d="M130.1,167.2c-7.9,5-10.3,15.4-5.3,23.2c5,7.9,15.4,10.3,23.2,5.3c7.9-4.9,10.3-15.4,5.3-23.2
		C148.4,164.6,138,162.2,130.1,167.2z"/>
	<path class="st3" d="M201.3,188.7c-4.6,2.8-6.1,8.8-3.3,13.4c2.8,4.6,8.8,6.1,13.4,3.3c4.6-2.8,6.1-8.7,3.3-13.4
		C211.9,187.5,205.9,186,201.3,188.7z"/>
	<path class="st3" d="M253,157.7c1.4-5.1,2.4-10.4,2.6-16.1c2.1-37.3-23.6-69.4-57.3-71.9c-27.4-1.9-51.8,16.4-60.9,43.4
		c-7.4-5.9-16.4-9.5-26.1-9.5c-24.1,0-43.7,21.4-43.7,47.8c0,4.1,0.5,8.1,1.4,11.9c-19.8,3.3-35,22.6-35,46
		c0,25.6,18.4,46.5,41,46.5c2.8,0,173.5,0,176.3,0c24.8,0,44.8-21.9,44.8-49C296.1,180.3,276.9,158.8,253,157.7z M174.1,204.1
		l-7.4-1.9c-1.4,1.9-3.1,3.7-5,5.3l2.4,7.3c-0.9,0.7-1.9,1.4-2.9,2s-2,1.2-3.1,1.7l-5.5-5.3c-2.3,1-4.6,1.7-7,2.1l-1.6,7.5
		c-2.4,0.3-4.7,0.3-7,0.3l-2.1-7.4c-2.5-0.3-4.8-0.8-7.1-1.6l-5.1,5.7c-2.2-0.9-4.2-2-6.3-3.3l1.9-7.4c-1.9-1.4-3.7-3.1-5.3-5
		l-7.3,2.4c-0.7-0.9-1.4-1.9-2-2.9s-1.2-2-1.8-3l5.3-5.5c-0.9-2.3-1.7-4.6-2.1-7l-7.4-1.6c-0.3-2.4-0.3-4.6-0.3-7l7.4-2.1
		c0.3-2.5,0.8-4.8,1.6-7.1l-5.7-5.2c0.9-2.1,2-4.2,3.3-6.3l7.4,1.9c1.4-1.9,3.1-3.7,5-5.3l-2.4-7.3c0.9-0.7,1.9-1.4,2.9-2
		c1-0.7,2-1.2,3-1.7l5.5,5.3c2.3-1,4.6-1.7,7-2.1l1.6-7.4c2.4-0.3,4.7-0.3,7-0.3l2.1,7.4c2.5,0.3,4.8,0.8,7.1,1.6l5.1-5.7
		c2.2,0.9,4.2,2,6.3,3.3l-1.9,7.4c1.9,1.4,3.7,3.1,5.3,5l7.3-2.4c0.7,0.9,1.4,1.9,2,2.9s1.2,2,1.7,3l-5.3,5.5c1,2.3,1.7,4.6,2.1,7
		l7.5,1.6c0.3,2.4,0.3,4.7,0.3,7l-7.4,2.1c-0.3,2.5-0.8,4.8-1.6,7.1l5.7,5.2C176.6,200,175.4,202.1,174.1,204.1z M231,206.5
		l-5.7,0.6c-1,1.9-2.3,3.6-3.8,5.2l1.1,5.6c-0.8,0.7-1.7,1.3-2.6,1.9c-0.9,0.6-1.9,1.1-2.9,1.5l-4.4-3.6c-2.1,0.7-4.2,1-6.3,1
		l-3.1,4.8c-2.1-0.3-4.2-0.8-6.3-1.5l-0.6-5.7c-1.9-1-3.6-2.3-5.2-3.8l-5.6,1.2c-0.7-0.8-1.3-1.7-1.9-2.7c-0.6-0.9-1-1.9-1.5-2.9
		l3.6-4.4c-0.7-2.1-0.9-4.2-0.9-6.3l-4.7-3.2c0.3-2.1,0.8-4.2,1.5-6.3l5.7-0.6c1-1.9,2.3-3.6,3.8-5.2l-1.2-5.6
		c0.8-0.7,1.7-1.3,2.6-1.9s1.9-1,2.9-1.5l4.4,3.6c2.1-0.7,4.2-0.9,6.3-0.9l3.1-4.8c2.1,0.3,4.2,0.8,6.3,1.5l0.6,5.7
		c1.9,1,3.6,2.3,5.2,3.8l5.6-1.1c0.7,0.8,1.3,1.7,1.9,2.6c0.6,0.9,1,1.9,1.5,2.9l-3.6,4.4c0.7,2.1,1,4.2,0.9,6.4l4.7,3.1
		C232.3,202.4,231.8,204.5,231,206.5z"/>
</g>
</svg>
