<?xml version="1.0" encoding="utf-8"?>
<!-- Generator: Adobe Illustrator 21.1.0, SVG Export Plug-In . SVG Version: 6.00 Build 0)  -->
<svg version="1.1" id="Layer_1" xmlns="http://www.w3.org/2000/svg" xmlns:xlink="http://www.w3.org/1999/xlink" x="0px" y="0px"
	 viewBox="0 0 1200 300" style="enable-background:new 0 0 1200 300;" xml:space="preserve">
<style type="text/css">
	.st0{fill:#036EAD;}
	.st1{fill:none;}
	.st2{enable-background:new    ;}
	.st3{fill:#FFFFFF;}
</style>
<g>
	<rect class="st0" width="1200" height="300.3"/>
</g>
<rect x="323" y="100" class="st1" width="830" height="167"/>
<g class="st2">
	<path class="st3" d="M329.2,254.3V187h14.5v54.7h21.4v12.6H329.2z"/>
	<path class="st3" d="M372.2,254.3V187h37.3v12.4h-22.8V213h21.1v12.6h-21.1v16.1h23.5v12.6H372.2z"/>
	<path class="st3" d="M453.4,205.8c-0.3-0.7-0.7-1.5-1.2-2.4c-0.5-0.8-1.1-1.6-1.9-2.4s-1.7-1.3-2.8-1.8c-1.1-0.5-2.5-0.7-4.2-0.7
		s-3.2,0.4-4.7,1.2c-1.5,0.8-2.8,2.1-3.9,3.8c-1.1,1.8-2,4-2.6,6.9c-0.6,2.8-1,6.2-1,10.3s0.3,7.4,0.9,10.2c0.6,2.8,1.4,5,2.5,6.8
		c1,1.7,2.2,3,3.6,3.7c1.3,0.8,2.8,1.1,4.3,1.1c1.1,0,2-0.1,2.8-0.3c0.8-0.2,1.5-0.4,2.1-0.8c0.6-0.3,1.1-0.7,1.6-1
		c0.4-0.4,0.8-0.8,1.1-1.1v-11.5H442v-11.2h22.8v37.7h-9.8l-1.3-5.2c-0.6,0.7-1.3,1.4-2.1,2.2c-0.8,0.7-1.8,1.4-2.9,2
		c-1.1,0.6-2.4,1.1-4,1.5c-1.5,0.4-3.3,0.6-5.3,0.6c-3.3,0-6.3-0.6-9.2-1.9c-2.8-1.3-5.3-3.3-7.4-6.1c-2.1-2.8-3.8-6.3-5-10.7
		c-1.2-4.3-1.8-9.5-1.8-15.6c0-6,0.7-11.3,2.1-15.7c1.4-4.4,3.4-8.1,5.8-10.9c2.5-2.9,5.4-5,8.7-6.4c3.3-1.4,6.9-2.1,10.7-2.1
		c2.5,0,4.8,0.2,6.7,0.7c2,0.5,3.7,1.1,5.2,1.9c1.5,0.8,2.8,1.6,3.8,2.6c1.1,1,2,1.9,2.7,2.9c0.7,1,1.3,1.9,1.8,2.7
		c0.4,0.9,0.8,1.6,1.1,2.1L453.4,205.8z"/>
	<path class="st3" d="M508.6,254.3l-3.5-14.1h-17.9l-3.5,14.1h-14.9l18-67.3h19.7l17.8,67.3H508.6z M496.1,200.3l-6.6,28.8h13
		L496.1,200.3z"/>
	<path class="st3" d="M530.2,254.3V187h14.5v54.7h21.4v12.6H530.2z"/>
	<path class="st3" d="M638.7,219.7c0,3.1-0.3,6-0.8,8.7s-1.2,5.2-2.1,7.4c-0.9,2.3-1.9,4.3-3.1,6.1c-1.2,1.8-2.5,3.4-3.8,4.7
		c-2.9,2.8-6.3,4.8-10,5.9c-3.7,1.1-8.1,1.7-13.1,1.7h-16.9V187h17.4c2.6,0,5,0.1,7.3,0.3c2.3,0.2,4.4,0.6,6.3,1.1s3.8,1.2,5.5,2.1
		c1.7,0.9,3.2,2,4.6,3.3c2.7,2.6,4.9,6,6.4,10.2C637.9,208.3,638.7,213.6,638.7,219.7z M623.5,220.5c0-4-0.4-7.5-1.3-10.4
		c-0.9-2.9-2-5.1-3.5-6.7c-1.4-1.5-3-2.6-4.8-3.2c-1.8-0.6-4.1-0.9-7-0.9h-3.6v42.3h3.4c2.8,0,5.1-0.3,7-0.8
		c1.9-0.6,3.5-1.6,4.9-3.1c0.7-0.8,1.4-1.7,2-2.9c0.6-1.2,1.1-2.5,1.5-4c0.4-1.5,0.7-3.1,1-4.8C623.4,224.3,623.5,222.5,623.5,220.5
		z"/>
	<path class="st3" d="M696.1,254.3l-0.4-49.3l-11.2,49.3h-12.9L660.4,205l-0.2,49.3h-13.4l1.6-67.3h20.1l9.9,47.3l10.1-47.3h19.5
		l1.8,67.3H696.1z"/>
	<path class="st3" d="M759.2,234.4c0,3.3-0.6,6.2-1.8,8.8c-1.2,2.6-2.8,4.8-4.9,6.6c-2.1,1.8-4.5,3.2-7.4,4.1
		c-2.8,1-5.9,1.4-9.2,1.4c-2.7,0-5.2-0.3-7.5-0.9c-2.2-0.6-4.2-1.4-5.9-2.3c-1.7-0.9-3.1-1.8-4.3-2.8c-1.1-1-2-1.8-2.5-2.5l7.3-10.7
		c0.6,0.8,1.4,1.6,2.3,2.3c0.9,0.7,1.9,1.4,3,1.9c1.1,0.6,2.3,1,3.5,1.3s2.5,0.5,3.8,0.5c1.4,0,2.7-0.2,3.7-0.5
		c1-0.3,1.9-0.8,2.6-1.4c0.7-0.6,1.2-1.3,1.5-2.1c0.3-0.8,0.5-1.7,0.5-2.6c0-1-0.2-1.9-0.6-2.7c-0.4-0.8-1-1.6-1.7-2.3
		c-0.8-0.7-1.7-1.4-2.8-2.1c-1.1-0.7-2.3-1.4-3.7-2.1c-2.8-1.4-5.2-2.8-7.3-4.1c-2.1-1.3-3.9-2.8-5.3-4.3c-1.4-1.6-2.5-3.3-3.2-5.2
		c-0.7-1.9-1.1-4.2-1.1-6.9c0-3.1,0.6-6,1.7-8.4s2.7-4.6,4.6-6.3c1.9-1.7,4.2-3,6.9-3.9c2.6-0.9,5.4-1.3,8.4-1.3c3,0,5.7,0.3,8,1
		c2.3,0.6,4.3,1.4,5.9,2.2c1.6,0.8,2.9,1.7,3.8,2.5s1.5,1.5,1.8,1.9l-7.3,10.6c-0.6-0.7-1.2-1.4-2-2.1c-0.8-0.7-1.7-1.3-2.7-1.8
		c-1-0.5-2.1-0.9-3.2-1.2c-1.2-0.3-2.4-0.5-3.6-0.5c-2.5,0-4.3,0.6-5.6,1.8c-1.2,1.2-1.9,2.7-1.9,4.6c0,0.9,0.2,1.7,0.5,2.5
		c0.3,0.7,0.8,1.5,1.6,2.1c0.7,0.7,1.6,1.4,2.7,2c1.1,0.7,2.3,1.3,3.8,2.1c2.5,1.2,4.8,2.4,6.9,3.7c2.1,1.2,4,2.7,5.6,4.2
		c1.6,1.6,2.8,3.4,3.7,5.5C758.8,229.1,759.2,231.5,759.2,234.4z"/>
</g>
<g>
	<path class="st3" d="M178.9,204.4c0.3-2.3,0.8-4.5,1.5-6.6l-5.2-4.7c0.9-2,1.9-3.9,3.1-5.7l6.8,1.7c1.4-1.8,2.9-3.4,4.6-4.9
		l-2.2-6.7c1.7-1.3,3.6-2.4,5.5-3.4l5.1,4.9c2-0.9,4.2-1.5,6.4-2l1.5-6.9c1.1-0.1,2.1-0.2,3.2-0.3c1.1,0,2.2,0,3.3,0l1.9,6.8
		c2.3,0.3,4.5,0.8,6.6,1.5l4.7-5.2c2,0.9,3.9,1.9,5.7,3l-1.7,6.8c1.8,1.3,3.5,2.9,4.9,4.6l6.7-2.2c1.3,1.7,2.4,3.6,3.5,5.5l-4.9,5.1
		c0.9,2,1.5,4.2,2,6.4l6.9,1.5c0.1,1.1,0.2,2.1,0.3,3.2c0,1.1,0,2.2,0,3.3l-6.8,1.9c-0.3,2.3-0.8,4.5-1.5,6.6l5.2,4.7
		c-0.8,2-1.9,3.9-3,5.7l-6.8-1.7c-1.3,1.8-2.9,3.4-4.6,4.9l2.2,6.7c-1.7,1.3-3.6,2.4-5.5,3.4l-5.1-4.9c-2.1,0.9-4.2,1.5-6.4,2
		l-1.5,6.9c-1.1,0.1-2.1,0.2-3.2,0.3c-1.1,0-2.2,0-3.2,0l-1.9-6.8c-2.3-0.3-4.5-0.8-6.6-1.5l-4.7,5.2c-2-0.9-3.9-1.9-5.7-3.1
		l1.7-6.8c-1.8-1.4-3.4-2.9-4.9-4.6l-6.7,2.2c-1.3-1.7-2.5-3.5-3.4-5.5l4.9-5.1c-0.9-2-1.5-4.2-2-6.4l-6.9-1.5
		c-0.1-1.1-0.2-2.2-0.3-3.2c0-1.1,0-2.2,0-3.2L178.9,204.4z M195,208.7c0.3,8.6,7.5,15.3,16.1,15s15.3-7.5,15-16.1
		s-7.5-15.3-16.1-15C201.5,193,194.8,200.2,195,208.7 M139.8,165.2c0-1,0-2,0.1-3l4.9-1.8c0.4-2,1.2-3.8,2.2-5.5l-2.3-4.7
		c1.2-1.6,2.6-3,4.1-4.3l4.8,2.2c1.7-1,3.5-1.9,5.4-2.4l1.7-5c1-0.1,2-0.2,3-0.2s2,0,3,0.1l1.8,4.9c2,0.5,3.8,1.2,5.5,2.2l4.7-2.3
		c1.6,1.2,3,2.6,4.3,4.1l-2.2,4.8c1.1,1.7,1.9,3.5,2.4,5.5l5,1.6c0.1,1,0.2,2,0.2,3s0,2-0.1,3l-4.9,1.9c-0.4,2-1.2,3.8-2.2,5.5
		l2.3,4.7c-1.2,1.6-2.6,3-4.1,4.3l-4.8-2.2c-1.7,1-3.5,1.8-5.4,2.4l-1.7,5c-1,0.1-2,0.2-3,0.2s-2,0-3-0.1l-1.9-4.9
		c-2-0.5-3.8-1.2-5.5-2.2l-4.7,2.4c-1.6-1.2-3-2.6-4.3-4.1l2.2-4.8c-1-1.7-1.8-3.5-2.4-5.4l-5-1.7
		C139.9,167.2,139.9,166.2,139.8,165.2 M155.2,164.9c0.1,4.9,4.2,8.9,9.1,8.8c4.9-0.1,8.9-4.2,8.8-9.1c-0.1-4.9-4.2-8.9-9.1-8.8
		C159.1,155.9,155.1,159.9,155.2,164.9"/>
	<g>
		<path class="st3" d="M236.9,28H116.3C103,28,72.1,50.8,72.1,80.3v32.2v6.7v128.6c0,13.3,10.9,24.1,24.1,24.1h48.2h92.4
			c13.3,0,24.1-10.9,24.1-24.1V139.2v-14.7V52.1C261,38.9,250.2,28,236.9,28z M241.9,124.5v14.7v101.5c0,11.4-4,11.3-13.8,11.3
			h-83.7H105c-9.8,0-13.8,0-13.8-11.3V112.4h-0.4V90.3c0-0.8,0.1-1.7,0.4-2.6h33.1V47.8h103.8c9.8,0,13.8,0,13.8,11.3L241.9,124.5
			L241.9,124.5z"/>
	</g>
</g>
</svg>
