<?xml version="1.0" encoding="utf-8"?>
<!-- Generator: Adobe Illustrator 21.1.0, SVG Export Plug-In . SVG Version: 6.00 Build 0)  -->
<svg version="1.1" id="Layer_1" xmlns="http://www.w3.org/2000/svg" xmlns:xlink="http://www.w3.org/1999/xlink" x="0px" y="0px"
	 viewBox="0 0 1200 300" style="enable-background:new 0 0 1200 300;" xml:space="preserve">
<style type="text/css">
	.st0{fill:#036EAD;}
	.st1{fill:none;}
	.st2{enable-background:new    ;}
	.st3{fill:#FFFFFF;}
</style>
<g>
	<rect class="st0" width="1200" height="300.3"/>
</g>
<rect x="323" y="100" class="st1" width="830" height="167"/>
<g class="st2">
	<path class="st3" d="M356.4,254.3L356,205l-11.2,49.3h-12.9L320.7,205l-0.2,49.3h-13.4l1.6-67.3h20.1l9.9,47.3l10.1-47.3h19.5
		l1.8,67.3H356.4z"/>
	<path class="st3" d="M431.7,220.6c0,5.6-0.6,10.5-1.9,14.8c-1.2,4.3-3,7.9-5.3,10.9c-2.3,2.9-5.1,5.2-8.4,6.7
		c-3.3,1.5-7,2.3-11.2,2.3c-4.1,0-7.8-0.8-11.1-2.3c-3.3-1.5-6.1-3.8-8.3-6.7c-2.3-2.9-4-6.6-5.3-10.9c-1.2-4.3-1.8-9.3-1.8-14.9
		c0-5.5,0.6-10.4,1.8-14.7c1.2-4.3,3-7.9,5.3-10.9c2.3-2.9,5.1-5.2,8.4-6.8c3.3-1.6,7-2.3,11.1-2.3c4.1,0,7.9,0.8,11.2,2.3
		c3.3,1.5,6.1,3.8,8.4,6.7c2.3,3,4.1,6.6,5.3,10.9C431.1,210.1,431.7,215.1,431.7,220.6z M416.4,220.5c0-3.4-0.2-6.4-0.7-9.2
		c-0.5-2.7-1.2-5.1-2.1-7c-0.9-1.9-2.1-3.4-3.6-4.4s-3.1-1.6-5.1-1.6c-1.9,0-3.6,0.5-5,1.6c-1.4,1-2.6,2.5-3.5,4.4
		c-0.9,1.9-1.6,4.2-2.1,7c-0.5,2.7-0.7,5.8-0.7,9.2c0,3.5,0.2,6.5,0.7,9.3c0.5,2.7,1.2,5,2.1,6.9c0.9,1.9,2.1,3.3,3.5,4.3
		c1.4,1,3.1,1.5,5,1.5c2,0,3.7-0.5,5.1-1.5s2.6-2.5,3.6-4.4c0.9-1.9,1.6-4.2,2.1-6.9C416.2,227,416.4,223.9,416.4,220.5z"/>
	<path class="st3" d="M486.7,234.7c0,1.8-0.2,3.5-0.6,5c-0.4,1.5-0.9,2.9-1.5,4.2c-0.6,1.3-1.4,2.4-2.3,3.4c-0.9,1-1.8,1.8-2.8,2.6
		c-1.2,0.9-2.5,1.6-3.9,2.2c-1.4,0.6-2.9,1-4.6,1.4c-1.6,0.3-3.4,0.6-5.3,0.7c-1.9,0.1-3.9,0.2-6.1,0.2h-18.8V187h18.2
		c2.2,0,4.3,0,6.1,0.1c1.8,0.1,3.4,0.3,4.9,0.5c1.5,0.3,2.8,0.6,4,1.1c1.2,0.4,2.4,1,3.5,1.8c1.9,1.2,3.4,2.9,4.5,5
		c1.1,2.1,1.7,4.9,1.7,8.2c0,3.4-0.9,6.4-2.7,9c-1.8,2.6-4.3,4.5-7.6,5.7c4.6,0.9,7.9,2.7,10,5.5
		C485.6,226.7,486.7,230.3,486.7,234.7z M469.1,205.9c0-1.7-0.3-3.1-0.9-4.1c-0.6-1-1.3-1.8-2.3-2.3s-2-0.9-3.2-1
		c-1.2-0.2-2.4-0.2-3.5-0.2h-3.8v16h3.7c1.1,0,2.3-0.1,3.4-0.3c1.2-0.2,2.3-0.6,3.2-1.1c1-0.6,1.8-1.4,2.4-2.5
		C468.8,209.2,469.1,207.7,469.1,205.9z M471.6,233.8c0-1.8-0.3-3.3-0.9-4.6c-0.6-1.2-1.4-2.2-2.4-2.9c-1-0.7-2.1-1.2-3.4-1.5
		c-1.3-0.3-2.6-0.4-4-0.4h-5.5v18.8h5.5c1.4,0,2.7-0.1,4-0.4c1.3-0.3,2.4-0.8,3.4-1.5c1-0.7,1.8-1.7,2.4-2.9
		C471.3,237.2,471.6,235.6,471.6,233.8z"/>
	<path class="st3" d="M495.2,254.3V187h14.5v67.3H495.2z"/>
	<path class="st3" d="M522.1,254.3V187h14.5v54.7H558v12.6H522.1z"/>
	<path class="st3" d="M565.1,254.3V187h14.5v67.3H565.1z"/>
	<path class="st3" d="M615.3,199.2v55.1h-14.6v-55.1h-14.4V187h43.5v12.2H615.3z"/>
	<path class="st3" d="M663.5,226.9v27.4h-14.6v-27.4L630,187h15.8l10.4,28.1l10.4-28.1h15.8L663.5,226.9z"/>
</g>
<g>
	<path class="st3" d="M255.5,153.9l14.6-0.7l-1.1-22.3l-14.6,0.7c-1.5-5.4-3.9-10.5-7.2-15.2l9.8-10.8l-16.5-15l-9.8,10.8
		c-5-2.8-10.4-4.7-15.9-5.6l-0.7-14.6l-2.4,0.1V65.8c0-16.4-13.4-29.8-29.8-29.8h-82c-16.4,0-29.8,13.4-29.8,29.8v178.9
		c0,16.4,13.4,29.8,29.8,29.8h82c16.4,0,29.8-13.4,29.8-29.8v-36.2l8.6-0.4l-0.7-14.6c5.3-1.5,10.5-3.9,15.2-7.2l10.9,9.8l14.9-16.5
		l-10.8-9.8C252.6,164.8,254.5,159.4,255.5,153.9z M158.9,255.2h-36v-8.7h36V255.2z M83.7,239.7V70.8H198V82l-6.2,0.3l0.7,14.6
		c-5.3,1.5-10.5,3.9-15.2,7.2l-10.8-9.8l-15,16.5l10.9,9.8c-2.8,5-4.7,10.4-5.7,15.8l-14.6,0.7l1.1,22.3l14.6-0.7
		c1.5,5.3,3.9,10.5,7.2,15.2l-9.8,10.9l16.5,14.9l9.8-10.8c5,2.8,10.4,4.7,15.9,5.6l0.7,13.9v31.2H83.7V239.7z M233.4,169.9
		c-13.7,15.1-36.9,16.2-52,2.6c-15.1-13.6-16.2-36.9-2.6-51.9c13.6-15.1,36.9-16.2,51.9-2.6C245.9,131.6,247,154.8,233.4,169.9z"/>
	<path class="st3" d="M195,135.2c-5.5,6.1-5,15.6,1.1,21.1c6.1,5.6,15.6,5.1,21.1-1c5.6-6.1,5.1-15.6-1-21.1
		C210,128.6,200.6,129,195,135.2z"/>
</g>
</svg>
