<?xml version="1.0" encoding="utf-8"?>
<!-- Generator: Adobe Illustrator 21.1.0, SVG Export Plug-In . SVG Version: 6.00 Build 0)  -->
<svg version="1.1" id="Layer_1" xmlns="http://www.w3.org/2000/svg" xmlns:xlink="http://www.w3.org/1999/xlink" x="0px" y="0px"
	 viewBox="0 0 1200 300" style="enable-background:new 0 0 1200 300;" xml:space="preserve">
<style type="text/css">
	.st0{fill:#036EAD;}
	.st1{fill:none;}
	.st2{enable-background:new    ;}
	.st3{fill:#FFFFFF;}
</style>
<g>
	<rect class="st0" width="1200" height="300.3"/>
</g>
<rect x="323" y="100" class="st1" width="830" height="167"/>
<g class="st2">
	<path class="st3" d="M377.4,169.3L377,120l-11.2,49.3h-12.9L341.7,120l-0.2,49.3h-13.4l1.6-67.3h20.1l9.9,47.3l10.1-47.3h19.5
		l1.8,67.3H377.4z"/>
	<path class="st3" d="M435.9,169.3l-3.5-14.1h-17.9l-3.5,14.1h-14.9l18-67.3h19.7l17.8,67.3H435.9z M423.5,115.3l-6.6,28.8h13
		L423.5,115.3z"/>
	<path class="st3" d="M491.4,169.3l-20.4-43v43h-13.5V102h14.3l19.5,41.4V102h13.8v67.3H491.4z"/>
	<path class="st3" d="M551,169.3l-3.5-14.1h-17.9l-3.5,14.1h-14.9l18-67.3H549l17.8,67.3H551z M538.6,115.3l-6.6,28.8h13
		L538.6,115.3z"/>
	<path class="st3" d="M606.7,120.8c-0.3-0.7-0.7-1.5-1.2-2.4c-0.5-0.8-1.1-1.6-1.9-2.4c-0.8-0.7-1.7-1.3-2.8-1.8
		c-1.1-0.5-2.5-0.7-4.2-0.7s-3.2,0.4-4.7,1.2c-1.5,0.8-2.8,2.1-3.9,3.8c-1.1,1.8-2,4-2.6,6.9c-0.6,2.8-1,6.2-1,10.3
		s0.3,7.4,0.9,10.2c0.6,2.8,1.4,5,2.5,6.8c1,1.7,2.2,3,3.6,3.7c1.3,0.8,2.8,1.1,4.3,1.1c1.1,0,2-0.1,2.8-0.3
		c0.8-0.2,1.5-0.4,2.1-0.8s1.1-0.7,1.6-1c0.4-0.4,0.8-0.8,1.1-1.1v-11.5h-8.2v-11.2h22.8v37.7h-9.8l-1.3-5.2
		c-0.6,0.7-1.3,1.4-2.1,2.2c-0.8,0.7-1.8,1.4-2.9,2c-1.1,0.6-2.4,1.1-4,1.5c-1.5,0.4-3.3,0.6-5.3,0.6c-3.3,0-6.3-0.6-9.2-1.9
		c-2.8-1.3-5.3-3.3-7.4-6.1c-2.1-2.8-3.8-6.3-5-10.7c-1.2-4.3-1.8-9.5-1.8-15.6c0-6,0.7-11.3,2.1-15.7c1.4-4.4,3.4-8.1,5.8-10.9
		c2.5-2.9,5.4-5,8.7-6.4c3.3-1.4,6.9-2.1,10.7-2.1c2.5,0,4.8,0.2,6.7,0.7c2,0.5,3.7,1.1,5.2,1.9c1.5,0.8,2.8,1.6,3.8,2.6
		c1.1,1,2,1.9,2.7,2.9c0.7,1,1.3,1.9,1.8,2.7c0.4,0.9,0.8,1.6,1.1,2.1L606.7,120.8z"/>
	<path class="st3" d="M628.6,169.3V102h37.3v12.4h-22.8V128h21.1v12.6h-21.1v16.1h23.5v12.6H628.6z"/>
	<path class="st3" d="M725.5,134.7c0,3.1-0.3,6-0.8,8.7s-1.2,5.2-2.1,7.4c-0.9,2.3-1.9,4.3-3.1,6.1c-1.2,1.8-2.5,3.4-3.8,4.7
		c-2.9,2.8-6.3,4.8-10,5.9c-3.7,1.1-8.1,1.7-13.1,1.7h-16.9V102h17.4c2.6,0,5,0.1,7.3,0.3c2.3,0.2,4.4,0.6,6.3,1.1s3.8,1.2,5.5,2.1
		c1.7,0.9,3.2,2,4.6,3.3c2.7,2.6,4.9,6,6.4,10.2C724.8,123.3,725.5,128.6,725.5,134.7z M710.4,135.5c0-4-0.4-7.5-1.3-10.4
		c-0.9-2.9-2-5.1-3.5-6.7c-1.4-1.5-3-2.6-4.8-3.2c-1.8-0.6-4.1-0.9-7-0.9h-3.6v42.3h3.4c2.8,0,5.1-0.3,7-0.8
		c1.9-0.6,3.5-1.6,4.9-3.1c0.7-0.8,1.4-1.7,2-2.9c0.6-1.2,1.1-2.5,1.5-4c0.4-1.5,0.7-3.1,1-4.8C710.2,139.3,710.4,137.5,710.4,135.5
		z"/>
</g>
<g class="st2">
	<path class="st3" d="M329.2,254.3V187h14.5v67.3H329.2z"/>
	<path class="st3" d="M379.4,199.2v55.1h-14.6v-55.1h-14.4V187h43.5v12.2H379.4z"/>
	<path class="st3" d="M454,234.4c0,3.3-0.6,6.2-1.8,8.8c-1.2,2.6-2.8,4.8-4.9,6.6c-2.1,1.8-4.5,3.2-7.4,4.1c-2.8,1-5.9,1.4-9.2,1.4
		c-2.7,0-5.2-0.3-7.5-0.9c-2.2-0.6-4.2-1.4-5.9-2.3c-1.7-0.9-3.1-1.8-4.3-2.8c-1.1-1-2-1.8-2.5-2.5l7.3-10.7
		c0.6,0.8,1.4,1.6,2.3,2.3c0.9,0.7,1.9,1.4,3,1.9c1.1,0.6,2.3,1,3.5,1.3s2.5,0.5,3.8,0.5c1.4,0,2.7-0.2,3.7-0.5
		c1-0.3,1.9-0.8,2.6-1.4c0.7-0.6,1.2-1.3,1.5-2.1c0.3-0.8,0.5-1.7,0.5-2.6c0-1-0.2-1.9-0.6-2.7c-0.4-0.8-1-1.6-1.7-2.3
		c-0.8-0.7-1.7-1.4-2.8-2.1c-1.1-0.7-2.3-1.4-3.7-2.1c-2.8-1.4-5.2-2.8-7.3-4.1c-2.1-1.3-3.9-2.8-5.3-4.3c-1.4-1.6-2.5-3.3-3.2-5.2
		c-0.7-1.9-1.1-4.2-1.1-6.9c0-3.1,0.6-6,1.7-8.4s2.7-4.6,4.6-6.3c1.9-1.7,4.2-3,6.9-3.9c2.6-0.9,5.4-1.3,8.4-1.3c3,0,5.7,0.3,8,1
		c2.3,0.6,4.3,1.4,5.9,2.2c1.6,0.8,2.9,1.7,3.8,2.5s1.5,1.5,1.8,1.9l-7.3,10.6c-0.6-0.7-1.2-1.4-2-2.1c-0.8-0.7-1.7-1.3-2.7-1.8
		s-2.1-0.9-3.2-1.2c-1.2-0.3-2.4-0.5-3.6-0.5c-2.5,0-4.3,0.6-5.6,1.8c-1.2,1.2-1.9,2.7-1.9,4.6c0,0.9,0.2,1.7,0.5,2.5
		c0.3,0.7,0.8,1.5,1.6,2.1c0.7,0.7,1.6,1.4,2.7,2c1.1,0.7,2.3,1.3,3.8,2.1c2.5,1.2,4.8,2.4,6.9,3.7c2.1,1.2,4,2.7,5.6,4.2
		c1.6,1.6,2.8,3.4,3.7,5.5C453.6,229.1,454,231.5,454,234.4z"/>
	<path class="st3" d="M462.4,254.3V187h37.3v12.4h-22.8V213H498v12.6h-21.1v16.1h23.5v12.6H462.4z"/>
	<path class="st3" d="M539,254.3l-10.9-25.8h-4v25.8h-14.5V187h20.1c3.5,0,6.7,0.3,9.4,0.9c2.8,0.6,5.2,1.7,7.2,3.2
		c2.2,1.7,3.9,3.8,5,6.3s1.8,5.8,1.8,9.6c0,2.6-0.3,4.8-0.9,6.9c-0.6,2-1.4,3.8-2.4,5.4c-1,1.6-2.2,2.9-3.5,4.1
		c-1.4,1.2-2.8,2.1-4.4,2.9l13.2,28H539z M538.4,207.9c0-3.1-0.8-5.4-2.4-6.9c-1.6-1.5-4.1-2.3-7.6-2.3H524v18.9h4.3
		c3.1,0,5.6-0.8,7.3-2.4S538.4,211.2,538.4,207.9z"/>
	<path class="st3" d="M593.2,254.3h-19.3L556.5,187h16.3l11.3,52.2l11.8-52.2h15.2L593.2,254.3z"/>
	<path class="st3" d="M617,254.3V187h14.5v67.3H617z"/>
	<path class="st3" d="M690.5,239.7c-0.5,1.3-1.3,2.9-2.3,4.7c-1.1,1.8-2.5,3.5-4.3,5.1c-1.8,1.6-4.1,3-6.7,4.2s-5.9,1.7-9.6,1.7
		c-3.9,0-7.5-0.7-10.8-2c-3.3-1.4-6.1-3.4-8.5-6.3c-2.4-2.8-4.2-6.4-5.5-10.7c-1.3-4.3-2-9.4-2-15.3s0.7-11,2.1-15.5
		c1.4-4.4,3.3-8.1,5.8-11c2.5-2.9,5.4-5.1,8.7-6.5c3.3-1.4,7-2.1,10.9-2.1c3.7,0,6.8,0.5,9.3,1.4c2.6,1,4.7,2.1,6.4,3.6
		c1.7,1.4,3.1,3,4.1,4.7c1,1.7,1.8,3.3,2.3,4.8l-11.9,6.3c-0.2-0.6-0.5-1.4-0.9-2.3s-1-1.8-1.8-2.7c-0.8-0.9-1.8-1.6-3-2.2
		c-1.2-0.6-2.6-0.9-4.4-0.9c-4.1,0-7.2,1.8-9.3,5.5c-2.1,3.7-3.2,9.1-3.2,16.3c0,7.4,1.1,13,3.4,16.6c2.2,3.7,5.3,5.5,9.3,5.5
		c1.9,0,3.4-0.3,4.7-1c1.3-0.7,2.3-1.5,3.1-2.4s1.5-1.8,1.9-2.8c0.4-0.9,0.8-1.7,1-2.3L690.5,239.7z"/>
	<path class="st3" d="M697.3,254.3V187h37.3v12.4h-22.8V213h21.1v12.6h-21.1v16.1h23.5v12.6H697.3z"/>
	<path class="st3" d="M782.4,234.4c0,3.3-0.6,6.2-1.8,8.8c-1.2,2.6-2.8,4.8-4.9,6.6c-2.1,1.8-4.5,3.2-7.4,4.1
		c-2.8,1-5.9,1.4-9.2,1.4c-2.7,0-5.2-0.3-7.5-0.9c-2.2-0.6-4.2-1.4-5.9-2.3c-1.7-0.9-3.1-1.8-4.3-2.8c-1.1-1-2-1.8-2.5-2.5l7.3-10.7
		c0.6,0.8,1.4,1.6,2.3,2.3c0.9,0.7,1.9,1.4,3,1.9c1.1,0.6,2.3,1,3.5,1.3s2.5,0.5,3.8,0.5c1.4,0,2.7-0.2,3.7-0.5
		c1-0.3,1.9-0.8,2.6-1.4c0.7-0.6,1.2-1.3,1.5-2.1c0.3-0.8,0.5-1.7,0.5-2.6c0-1-0.2-1.9-0.6-2.7c-0.4-0.8-1-1.6-1.7-2.3
		c-0.8-0.7-1.7-1.4-2.8-2.1c-1.1-0.7-2.3-1.4-3.7-2.1c-2.8-1.4-5.2-2.8-7.3-4.1c-2.1-1.3-3.9-2.8-5.3-4.3c-1.4-1.6-2.5-3.3-3.2-5.2
		c-0.7-1.9-1.1-4.2-1.1-6.9c0-3.1,0.6-6,1.7-8.4s2.7-4.6,4.6-6.3c1.9-1.7,4.2-3,6.9-3.9c2.6-0.9,5.4-1.3,8.4-1.3c3,0,5.7,0.3,8,1
		c2.3,0.6,4.3,1.4,5.9,2.2c1.6,0.8,2.9,1.7,3.8,2.5s1.5,1.5,1.8,1.9l-7.3,10.6c-0.6-0.7-1.2-1.4-2-2.1c-0.8-0.7-1.7-1.3-2.7-1.8
		c-1-0.5-2.1-0.9-3.2-1.2c-1.2-0.3-2.4-0.5-3.6-0.5c-2.5,0-4.3,0.6-5.6,1.8c-1.2,1.2-1.9,2.7-1.9,4.6c0,0.9,0.2,1.7,0.5,2.5
		c0.3,0.7,0.8,1.5,1.6,2.1c0.7,0.7,1.6,1.4,2.7,2c1.1,0.7,2.3,1.3,3.8,2.1c2.5,1.2,4.8,2.4,6.9,3.7c2.1,1.2,4,2.7,5.6,4.2
		c1.6,1.6,2.8,3.4,3.7,5.5C781.9,229.1,782.4,231.5,782.4,234.4z"/>
</g>
<g>
	<path class="st3" d="M287.8,187.8h-6.9V162c0-18.5-15.9-33.6-35.4-33.6s-35.4,15.1-35.4,33.6v25.8h-6.9c-8.3,0-15.2,6.5-15.2,14.4
		v44.4c0,7.9,6.8,14.4,15.2,14.4h84.7c8.3,0,15.2-6.5,15.2-14.4v-44.4C303,194.3,296.2,187.8,287.8,187.8z M236.7,159.6
		c0-4.6,4-8.4,8.8-8.4s8.8,3.8,8.8,8.4v28.2h-17.7L236.7,159.6L236.7,159.6z M254.4,222.9V237c0,4.6-4,8.4-8.8,8.4s-8.8-3.8-8.8-8.4
		v-14.1c-2.7-2.3-4.4-5.6-4.4-9.3c0-7,5.9-12.6,13.3-12.6s13.3,5.6,13.3,12.6C258.8,217.3,257.1,220.6,254.4,222.9z"/>
	<path class="st3" d="M223.4,19.4H45.2c-6.9,0-12.6,5.4-12.6,12v49.1c0,6.6,5.7,12,12.6,12h178.2c6.9,0,12.6-5.4,12.6-12V31.3
		C236,24.8,230.3,19.4,223.4,19.4z M57.6,66.1c-5.9,0-10.7-4.6-10.7-10.2s4.8-10.2,10.7-10.2s10.7,4.6,10.7,10.2
		S63.5,66.1,57.6,66.1z M89.8,66.1c-5.9,0-10.7-4.6-10.7-10.2s4.8-10.2,10.7-10.2c5.9,0,10.7,4.6,10.7,10.2S95.7,66.1,89.8,66.1z
		 M213.3,69.1c0,2.6-2.3,4.8-5.1,4.8h-74.5c-2.8,0-5.1-2.2-5.1-4.8V42.7c0-2.6,2.3-4.8,5.1-4.8h74.5c2.8,0,5.1,2.2,5.1,4.8V69.1z"/>
	<g>
		<path class="st3" d="M174.1,244.4h-40.4c-2.8,0-5.1-2.2-5.1-4.8v-26.4c0-2.6,2.3-4.8,5.1-4.8h40.4v-18.6H45.2
			c-6.9,0-12.6,5.4-12.6,12V251c0,6.6,5.7,12,12.6,12h128.9L174.1,244.4L174.1,244.4z M57.6,236.6c-5.9,0-10.7-4.6-10.7-10.2
			c0-5.6,4.8-10.2,10.7-10.2s10.7,4.6,10.7,10.2C68.3,232.1,63.5,236.6,57.6,236.6z M89.8,236.6c-5.9,0-10.7-4.6-10.7-10.2
			c0-5.6,4.8-10.2,10.7-10.2c5.9,0,10.7,4.6,10.7,10.2C100.5,232.1,95.7,236.6,89.8,236.6z"/>
		<path class="st3" d="M45.2,178.5H195V162c0-0.7,0.1-1.4,0.1-2.1h-17.2h-44.2c-2.8,0-5.1-2.2-5.1-4.8v-26.4c0-2.6,2.3-4.8,5.1-4.8
			h74.5c1.7,0,3.2,0.8,4.1,2c6.6-5.4,14.6-9.3,23.4-11c-1.2-5.5-6.3-9.6-12.4-9.6H45.2c-6.9,0-12.6,5.4-12.6,12v49.1
			C32.6,173.1,38.3,178.5,45.2,178.5z M89.8,131.8c5.9,0,10.7,4.6,10.7,10.2c0,5.6-4.8,10.2-10.7,10.2c-5.9,0-10.7-4.6-10.7-10.2
			C79,136.3,83.9,131.8,89.8,131.8z M57.6,131.8c5.9,0,10.7,4.6,10.7,10.2c0,5.6-4.8,10.2-10.7,10.2s-10.7-4.6-10.7-10.2
			C46.8,136.3,51.6,131.8,57.6,131.8z"/>
	</g>
</g>
</svg>
