<?xml version="1.0" encoding="utf-8"?>
<!-- Generator: Adobe Illustrator 21.1.0, SVG Export Plug-In . SVG Version: 6.00 Build 0)  -->
<svg version="1.1" id="Layer_1" xmlns="http://www.w3.org/2000/svg" xmlns:xlink="http://www.w3.org/1999/xlink" x="0px" y="0px"
	 viewBox="0 0 1200 300" style="enable-background:new 0 0 1200 300;" xml:space="preserve">
<style type="text/css">
	.st0{fill:#036EAD;}
	.st1{fill:none;}
	.st2{enable-background:new    ;}
	.st3{fill:#FFFFFF;}
</style>
<g>
	<rect class="st0" width="1200" height="300.3"/>
</g>
<rect x="323" y="100" class="st1" width="830" height="167"/>
<g class="st2">
	<path class="st3" d="M372.7,209.7c0,3.9-0.6,7.3-1.9,10.2c-1.3,2.9-3,5.3-5.3,7.3c-2.1,1.9-4.7,3.2-7.6,4c-2.9,0.7-6.1,1.1-9.5,1.1
		h-4.8v22h-14.5V187h19.2c4,0,7.5,0.4,10.6,1.3c3.1,0.8,5.7,2.3,7.9,4.3c2.1,1.9,3.6,4.3,4.5,7C372.3,202.4,372.7,205.7,372.7,209.7
		z M358.2,209.7c0-2.2-0.3-4.1-0.9-5.5s-1.3-2.5-2.1-3.2c-0.8-0.9-1.8-1.5-3.1-1.8c-1.3-0.3-2.7-0.5-4.1-0.5h-4.2v22h3.7
		c3.5,0,6-0.7,7.6-2.2c0.9-0.8,1.7-1.9,2.3-3.3S358.2,211.9,358.2,209.7z"/>
	<path class="st3" d="M409.8,254.3l-10.9-25.8h-4v25.8h-14.5V187h20.1c3.5,0,6.7,0.3,9.4,0.9c2.8,0.6,5.2,1.7,7.2,3.2
		c2.2,1.7,3.9,3.8,5,6.3s1.8,5.8,1.8,9.6c0,2.6-0.3,4.8-0.9,6.9c-0.6,2-1.4,3.8-2.4,5.4c-1,1.6-2.2,2.9-3.5,4.1
		c-1.4,1.2-2.8,2.1-4.4,2.9l13.2,28H409.8z M409.2,207.9c0-3.1-0.8-5.4-2.4-6.9c-1.6-1.5-4.1-2.3-7.6-2.3h-4.3v18.9h4.3
		c3.1,0,5.6-0.8,7.3-2.4S409.2,211.2,409.2,207.9z"/>
	<path class="st3" d="M433.7,254.3V187h14.5v67.3H433.7z"/>
	<path class="st3" d="M494.5,254.3l-20.4-43v43h-13.5V187h14.3l19.5,41.4V187h13.8v67.3H494.5z"/>
	<path class="st3" d="M544.1,199.2v55.1h-14.6v-55.1H515V187h43.5v12.2H544.1z"/>
	<path class="st3" d="M629,254.3l-0.4-49.3l-11.2,49.3h-12.9L593.3,205l-0.2,49.3h-13.4l1.6-67.3h20.1l9.9,47.3l10.1-47.3h19.5
		l1.8,67.3H629z"/>
	<path class="st3" d="M687.5,254.3l-3.5-14.1h-17.9l-3.5,14.1h-14.9l18-67.3h19.7l17.8,67.3H687.5z M675.1,200.3l-6.6,28.8h13
		L675.1,200.3z"/>
	<path class="st3" d="M743,254.3l-20.4-43v43h-13.5V187h14.3l19.5,41.4V187h13.8v67.3H743z"/>
	<path class="st3" d="M802.6,254.3l-3.5-14.1h-17.9l-3.5,14.1h-14.9l18-67.3h19.7l17.8,67.3H802.6z M790.2,200.3l-6.6,28.8h13
		L790.2,200.3z"/>
	<path class="st3" d="M858.3,205.8c-0.3-0.7-0.7-1.5-1.2-2.4c-0.5-0.8-1.1-1.6-1.9-2.4c-0.8-0.7-1.7-1.3-2.8-1.8
		c-1.1-0.5-2.5-0.7-4.2-0.7s-3.2,0.4-4.7,1.2c-1.5,0.8-2.8,2.1-3.9,3.8c-1.1,1.8-2,4-2.6,6.9c-0.6,2.8-1,6.2-1,10.3
		s0.3,7.4,0.9,10.2c0.6,2.8,1.4,5,2.5,6.8c1,1.7,2.2,3,3.6,3.7c1.3,0.8,2.8,1.1,4.3,1.1c1.1,0,2-0.1,2.8-0.3
		c0.8-0.2,1.5-0.4,2.1-0.8s1.1-0.7,1.6-1c0.4-0.4,0.8-0.8,1.1-1.1v-11.5h-8.2v-11.2h22.8v37.7h-9.8l-1.3-5.2
		c-0.6,0.7-1.3,1.4-2.1,2.2c-0.8,0.7-1.8,1.4-2.9,2c-1.1,0.6-2.4,1.1-4,1.5c-1.5,0.4-3.3,0.6-5.3,0.6c-3.3,0-6.3-0.6-9.2-1.9
		c-2.8-1.3-5.3-3.3-7.4-6.1c-2.1-2.8-3.8-6.3-5-10.7c-1.2-4.3-1.8-9.5-1.8-15.6c0-6,0.7-11.3,2.1-15.7c1.4-4.4,3.4-8.1,5.8-10.9
		c2.5-2.9,5.4-5,8.7-6.4c3.3-1.4,6.9-2.1,10.7-2.1c2.5,0,4.8,0.2,6.7,0.7c2,0.5,3.7,1.1,5.2,1.9c1.5,0.8,2.8,1.6,3.8,2.6
		c1.1,1,2,1.9,2.7,2.9c0.7,1,1.3,1.9,1.8,2.7c0.4,0.9,0.8,1.6,1.1,2.1L858.3,205.8z"/>
	<path class="st3" d="M880.2,254.3V187h37.3v12.4h-22.8V213h21.1v12.6h-21.1v16.1h23.5v12.6H880.2z"/>
	<path class="st3" d="M975.6,254.3l-0.4-49.3L964,254.3h-12.9L939.9,205l-0.2,49.3h-13.4l1.6-67.3h20.1l9.9,47.3l10.1-47.3h19.5
		l1.8,67.3H975.6z"/>
	<path class="st3" d="M1000.8,254.3V187h37.3v12.4h-22.8V213h21.1v12.6h-21.1v16.1h23.5v12.6H1000.8z"/>
	<path class="st3" d="M1081.8,254.3l-20.4-43v43h-13.5V187h14.3l19.5,41.4V187h13.8v67.3H1081.8z"/>
	<path class="st3" d="M1131.4,199.2v55.1h-14.6v-55.1h-14.4V187h43.5v12.2H1131.4z"/>
</g>
<g id="XMLID_270_">
	<path id="XMLID_273_" class="st3" d="M91.8,225.2v48.6h129.5v-48.6v-32.4H91.8V225.2z M108,209h97.1v16.2H108V209z M108,241.4h97.1
		v16.2H108V241.4z"/>
	<polygon id="XMLID_272_" class="st3" points="221.3,79.5 221.3,31 91.8,31 91.8,79.5 91.8,111.9 221.3,111.9 	"/>
	<path id="XMLID_271_" class="st3" d="M253.6,79.5h-16.2v32.4v16.2H75.6v-16.2V79.5H59.4C43.2,79.5,27,95.7,27,111.9v80.9
		c0,16.2,16.2,32.4,32.4,32.4h16.2v-32.4v-16.2h161.8v16.2v32.4h16.2c16.2,0,32.4-16.2,32.4-32.4v-80.9
		C286,95.7,269.8,79.5,253.6,79.5z"/>
</g>
</svg>
