<?xml version="1.0" encoding="utf-8"?>
<!-- Generator: Adobe Illustrator 21.1.0, SVG Export Plug-In . SVG Version: 6.00 Build 0)  -->
<svg version="1.1" id="Layer_1" xmlns="http://www.w3.org/2000/svg" xmlns:xlink="http://www.w3.org/1999/xlink" x="0px" y="0px"
	 viewBox="0 0 1200 300" style="enable-background:new 0 0 1200 300;" xml:space="preserve">
<style type="text/css">
	.st0{fill:#036EAD;}
	.st1{fill:#FFFFFF;}
	.st2{fill:none;}
	.st3{enable-background:new    ;}
</style>
<g>
	<rect class="st0" width="1200" height="300.3"/>
</g>
<g>
	<rect x="116.2" y="206.5" class="st1" width="55.7" height="11"/>
	<polygon class="st1" points="109.9,202 101.7,193.6 87.7,207.1 78.5,197.6 69.9,206 84.9,221.5 85,221.4 87.3,223.8 	"/>
	<path class="st1" d="M188,68.7H53.7c-12.1,0-22,9.2-22,20.6V251c0,11.3,9.9,20.6,22,20.6H188c12.1,0,22-9.2,22-20.6V89.2
		C210,77.9,200.1,68.7,188,68.7z M188.1,243.5c0,2-1.8,3.6-3.9,3.6H57.6c-2.1,0-3.9-1.6-3.9-3.6V96.7c0-2,1.8-3.6,3.9-3.6h126.6
		c2.1,0,3.9,1.6,3.9,3.6L188.1,243.5L188.1,243.5z"/>
	<rect x="115.7" y="124.9" class="st1" width="55.7" height="11"/>
	<polygon class="st1" points="109.4,120.4 101.2,112 87.3,125.5 78.1,116 69.4,124.4 84.4,139.9 84.5,139.8 86.8,142.2 	"/>
	<rect x="116.2" y="164.8" class="st1" width="55.7" height="11"/>
	<polygon class="st1" points="109.9,160.3 101.7,151.9 87.7,165.4 78.5,155.9 69.9,164.3 84.9,179.8 85,179.7 87.3,182.1 	"/>
	<rect x="64" y="52" class="st1" width="118.2" height="9.1"/>
	<path class="st1" d="M124.6,38.8c9.8,0,17.8,8,17.8,17.8h10.8c0-15.7-12.8-28.6-28.6-28.6S96,40.8,96,56.6h10.8
		C106.8,46.8,114.8,38.8,124.6,38.8z"/>
</g>
<rect x="233" y="58" class="st2" width="955" height="262"/>
<g class="st3">
	<path class="st1" d="M289,112.7c0,3.1-0.3,6-0.8,8.7c-0.5,2.7-1.2,5.2-2.1,7.4s-1.9,4.3-3.1,6.1c-1.2,1.8-2.5,3.4-3.8,4.7
		c-2.9,2.8-6.3,4.8-10,5.9c-3.7,1.1-8.1,1.7-13.1,1.7h-16.9V80h17.4c2.6,0,5,0.1,7.3,0.3c2.3,0.2,4.4,0.6,6.3,1.1s3.8,1.2,5.5,2.1
		c1.7,0.9,3.2,2,4.6,3.3c2.7,2.6,4.9,6,6.4,10.2C288.2,101.3,289,106.6,289,112.7z M273.8,113.5c0-4-0.4-7.5-1.3-10.4
		c-0.9-2.9-2-5.1-3.5-6.7c-1.4-1.5-3-2.6-4.8-3.2c-1.8-0.6-4.1-0.9-7-0.9h-3.6v42.3h3.4c2.8,0,5.1-0.3,7-0.8
		c1.9-0.6,3.5-1.6,4.9-3.1c0.7-0.8,1.4-1.7,2-2.9c0.6-1.2,1.1-2.5,1.5-4c0.4-1.5,0.7-3.1,1-4.8C273.7,117.3,273.8,115.5,273.8,113.5
		z"/>
	<path class="st1" d="M348.2,113.6c0,5.6-0.6,10.5-1.9,14.8c-1.2,4.3-3,7.9-5.3,10.9c-2.3,2.9-5.1,5.2-8.4,6.7
		c-3.3,1.5-7,2.3-11.2,2.3c-4.1,0-7.8-0.8-11.1-2.3c-3.3-1.5-6.1-3.8-8.3-6.7c-2.3-2.9-4-6.6-5.3-10.9c-1.2-4.3-1.8-9.3-1.8-14.9
		c0-5.5,0.6-10.4,1.8-14.7c1.2-4.3,3-7.9,5.3-10.9c2.3-2.9,5.1-5.2,8.4-6.8c3.3-1.6,7-2.3,11.1-2.3c4.1,0,7.9,0.8,11.2,2.3
		c3.3,1.5,6.1,3.8,8.4,6.7c2.3,3,4.1,6.6,5.3,10.9C347.6,103.1,348.2,108.1,348.2,113.6z M332.9,113.5c0-3.4-0.2-6.4-0.7-9.2
		c-0.5-2.7-1.2-5.1-2.1-7c-0.9-1.9-2.1-3.4-3.6-4.4s-3.1-1.6-5.1-1.6c-1.9,0-3.6,0.5-5,1.6c-1.4,1-2.6,2.5-3.5,4.4
		c-0.9,1.9-1.6,4.2-2.1,7c-0.5,2.7-0.7,5.8-0.7,9.2c0,3.5,0.2,6.5,0.7,9.3c0.5,2.7,1.2,5,2.1,6.9c0.9,1.9,2.1,3.3,3.5,4.3
		c1.4,1,3.1,1.5,5,1.5c2,0,3.7-0.5,5.1-1.5s2.6-2.5,3.6-4.4c0.9-1.9,1.6-4.2,2.1-6.9C332.7,120,332.9,116.9,332.9,113.5z"/>
	<path class="st1" d="M403.9,132.7c-0.5,1.3-1.3,2.9-2.3,4.7c-1.1,1.8-2.5,3.5-4.3,5.1c-1.8,1.6-4.1,3-6.7,4.2
		c-2.7,1.1-5.9,1.7-9.6,1.7c-3.9,0-7.5-0.7-10.8-2c-3.3-1.4-6.1-3.4-8.5-6.3c-2.4-2.8-4.2-6.4-5.5-10.7c-1.3-4.3-2-9.4-2-15.3
		s0.7-11,2.1-15.5c1.4-4.4,3.3-8.1,5.8-11c2.5-2.9,5.4-5.1,8.7-6.5c3.3-1.4,7-2.1,10.9-2.1c3.7,0,6.8,0.5,9.3,1.4
		c2.6,1,4.7,2.1,6.4,3.6c1.7,1.4,3.1,3,4.1,4.7c1,1.7,1.8,3.3,2.3,4.8l-11.9,6.3c-0.2-0.6-0.5-1.4-0.9-2.3c-0.4-0.9-1-1.8-1.8-2.7
		c-0.8-0.9-1.8-1.6-3-2.2s-2.6-0.9-4.4-0.9c-4.1,0-7.2,1.8-9.3,5.5c-2.1,3.7-3.2,9.1-3.2,16.3c0,7.4,1.1,13,3.4,16.6
		c2.2,3.7,5.3,5.5,9.3,5.5c1.9,0,3.4-0.3,4.7-1c1.3-0.7,2.3-1.5,3.1-2.4s1.5-1.8,1.9-2.8c0.4-0.9,0.8-1.7,1-2.3L403.9,132.7z"/>
	<path class="st1" d="M443.6,80H458v42c0,2.3-0.1,4.5-0.3,6.4c-0.2,1.9-0.6,3.7-1,5.2s-1.1,3-1.8,4.3c-0.7,1.3-1.6,2.6-2.6,3.7
		c-2,2.1-4.4,3.8-7.4,4.9c-3,1.1-6.6,1.7-11,1.7c-4.2,0-7.8-0.5-10.8-1.6s-5.5-2.7-7.5-5.1c-0.9-1.1-1.7-2.2-2.4-3.5
		c-0.7-1.2-1.2-2.6-1.6-4.2s-0.7-3.3-0.9-5.3c-0.2-1.9-0.3-4.2-0.3-6.7V80H425v43.3c0,2.3,0.2,4.3,0.6,5.7c0.4,1.5,1,2.7,1.8,3.6
		c1.8,1.9,4.1,2.8,7,2.8c1.2,0,2.5-0.2,3.8-0.7c1.3-0.4,2.3-1.2,3.2-2.1c0.8-1,1.4-2.2,1.8-3.7s0.5-3.3,0.5-5.6V80z"/>
	<path class="st1" d="M518.5,147.3L518.1,98l-11.2,49.3H494L482.8,98l-0.2,49.3h-13.4l1.6-67.3H491l9.9,47.3L511,80h19.5l1.8,67.3
		H518.5z"/>
	<path class="st1" d="M543.7,147.3V80H581v12.4h-22.8V106h21.1v12.6h-21.1v16.1h23.5v12.6H543.7z"/>
	<path class="st1" d="M624.8,147.3l-20.4-43v43h-13.5V80h14.3l19.5,41.4V80h13.8v67.3H624.8z"/>
	<path class="st1" d="M674.3,92.2v55.1h-14.6V92.2h-14.4V80h43.5v12.2H674.3z"/>
	<path class="st1" d="M300.6,253.3h-17.3l-9.1-50.6l-9.1,50.6h-17.3L234,186h15.4l8,51l9-51H283l8.9,51l7.9-51h14.5L300.6,253.3z"/>
	<path class="st1" d="M371.7,219.6c0,5.6-0.6,10.5-1.9,14.8c-1.2,4.3-3,7.9-5.3,10.9c-2.3,2.9-5.1,5.2-8.4,6.7
		c-3.3,1.5-7,2.3-11.2,2.3c-4.1,0-7.8-0.8-11.1-2.3c-3.3-1.5-6.1-3.8-8.3-6.7c-2.3-2.9-4-6.6-5.3-10.9c-1.2-4.3-1.8-9.3-1.8-14.9
		c0-5.5,0.6-10.4,1.8-14.7c1.2-4.3,3-7.9,5.3-10.9c2.3-2.9,5.1-5.2,8.4-6.8c3.3-1.6,7-2.3,11.1-2.3c4.1,0,7.9,0.8,11.2,2.3
		c3.3,1.5,6.1,3.8,8.4,6.7c2.3,3,4.1,6.6,5.3,10.9C371.1,209.1,371.7,214.1,371.7,219.6z M356.4,219.5c0-3.4-0.2-6.4-0.7-9.2
		c-0.5-2.7-1.2-5.1-2.1-7c-0.9-1.9-2.1-3.4-3.6-4.4s-3.1-1.6-5.1-1.6c-1.9,0-3.6,0.5-5,1.6c-1.4,1-2.6,2.5-3.5,4.4
		c-0.9,1.9-1.6,4.2-2.1,7c-0.5,2.7-0.7,5.8-0.7,9.2c0,3.5,0.2,6.5,0.7,9.3c0.5,2.7,1.2,5,2.1,6.9c0.9,1.9,2.1,3.3,3.5,4.3
		c1.4,1,3.1,1.5,5,1.5c2,0,3.7-0.5,5.1-1.5s2.6-2.5,3.6-4.4c0.9-1.9,1.6-4.2,2.1-6.9C356.2,226,356.4,222.9,356.4,219.5z"/>
	<path class="st1" d="M410.3,253.3l-10.9-25.8h-4v25.8h-14.5V186H401c3.5,0,6.7,0.3,9.4,0.9c2.8,0.6,5.2,1.7,7.2,3.2
		c2.2,1.7,3.9,3.8,5,6.3s1.8,5.8,1.8,9.6c0,2.6-0.3,4.8-0.9,6.9c-0.6,2-1.4,3.8-2.4,5.4c-1,1.6-2.2,2.9-3.5,4.1
		c-1.4,1.2-2.8,2.1-4.4,2.9l13.2,28H410.3z M409.7,206.9c0-3.1-0.8-5.4-2.4-6.9c-1.6-1.5-4.1-2.3-7.6-2.3h-4.3v18.9h4.3
		c3.1,0,5.6-0.8,7.3-2.4S409.7,210.2,409.7,206.9z"/>
	<path class="st1" d="M464.7,253.3l-11.8-27.9l-4.2,6.3v21.6h-14.5V186h14.5v28.2l16-28.2h16.9l-18.1,27.6l19,39.6H464.7z"/>
	<path class="st1" d="M503.7,198.4v16.1h19.6v12.7h-19.6v26.1h-14.5V186h35.9v12.4H503.7z"/>
	<path class="st1" d="M532.8,253.3V186h14.5v54.7h21.4v12.6H532.8z"/>
	<path class="st1" d="M623.4,219.6c0,5.6-0.6,10.5-1.9,14.8c-1.2,4.3-3,7.9-5.3,10.9c-2.3,2.9-5.1,5.2-8.4,6.7
		c-3.3,1.5-7,2.3-11.2,2.3c-4.1,0-7.8-0.8-11.1-2.3c-3.3-1.5-6.1-3.8-8.3-6.7c-2.3-2.9-4-6.6-5.3-10.9c-1.2-4.3-1.8-9.3-1.8-14.9
		c0-5.5,0.6-10.4,1.8-14.7c1.2-4.3,3-7.9,5.3-10.9c2.3-2.9,5.1-5.2,8.4-6.8c3.3-1.6,7-2.3,11.1-2.3c4.1,0,7.9,0.8,11.2,2.3
		c3.3,1.5,6.1,3.8,8.4,6.7c2.3,3,4.1,6.6,5.3,10.9C622.7,209.1,623.4,214.1,623.4,219.6z M608,219.5c0-3.4-0.2-6.4-0.7-9.2
		c-0.5-2.7-1.2-5.1-2.1-7c-0.9-1.9-2.1-3.4-3.6-4.4s-3.1-1.6-5.1-1.6c-1.9,0-3.6,0.5-5,1.6c-1.4,1-2.6,2.5-3.5,4.4
		c-0.9,1.9-1.6,4.2-2.1,7c-0.5,2.7-0.7,5.8-0.7,9.2c0,3.5,0.2,6.5,0.7,9.3c0.5,2.7,1.2,5,2.1,6.9c0.9,1.9,2.1,3.3,3.5,4.3
		c1.4,1,3.1,1.5,5,1.5c2,0,3.7-0.5,5.1-1.5s2.6-2.5,3.6-4.4c0.9-1.9,1.6-4.2,2.1-6.9C607.8,226,608,222.9,608,219.5z"/>
	<path class="st1" d="M694,253.3h-17.3l-9.1-50.6l-9.1,50.6h-17.3L627.4,186h15.4l8,51l9-51h16.7l8.9,51l7.9-51h14.5L694,253.3z"/>
</g>
</svg>
