<?xml version="1.0" encoding="utf-8"?>
<!-- Generator: Adobe Illustrator 21.1.0, SVG Export Plug-In . SVG Version: 6.00 Build 0)  -->
<svg version="1.1" id="Layer_1" xmlns="http://www.w3.org/2000/svg" xmlns:xlink="http://www.w3.org/1999/xlink" x="0px" y="0px"
	 viewBox="0 0 1200 300" style="enable-background:new 0 0 1200 300;" xml:space="preserve">
<style type="text/css">
	.st0{fill:#036EAD;}
	.st1{fill:none;}
	.st2{enable-background:new    ;}
	.st3{fill:#FFFFFF;}
</style>
<g>
	<rect class="st0" width="1200" height="300.3"/>
</g>
<rect x="323" y="100" class="st1" width="830" height="167"/>
<g class="st2">
	<path class="st3" d="M379,219.7c0,3.1-0.3,6-0.8,8.7c-0.5,2.7-1.2,5.2-2.1,7.4s-1.9,4.3-3.1,6.1c-1.2,1.8-2.5,3.4-3.8,4.7
		c-2.9,2.8-6.3,4.8-10,5.9c-3.7,1.1-8.1,1.7-13.1,1.7h-16.9V187h17.4c2.6,0,5,0.1,7.3,0.3c2.3,0.2,4.4,0.6,6.3,1.1s3.8,1.2,5.5,2.1
		c1.7,0.9,3.2,2,4.6,3.3c2.7,2.6,4.9,6,6.4,10.2C378.2,208.3,379,213.6,379,219.7z M363.8,220.5c0-4-0.4-7.5-1.3-10.4
		c-0.9-2.9-2-5.1-3.5-6.7c-1.4-1.5-3-2.6-4.8-3.2c-1.8-0.6-4.1-0.9-7-0.9h-3.6v42.3h3.4c2.8,0,5.1-0.3,7-0.8
		c1.9-0.6,3.5-1.6,4.9-3.1c0.7-0.8,1.4-1.7,2-2.9c0.6-1.2,1.1-2.5,1.5-4c0.4-1.5,0.7-3.1,1-4.8C363.7,224.3,363.8,222.5,363.8,220.5
		z"/>
	<path class="st3" d="M388.1,254.3V187h14.5v67.3H388.1z"/>
	<path class="st3" d="M449.1,205.8c-0.3-0.7-0.7-1.5-1.2-2.4c-0.5-0.8-1.1-1.6-1.9-2.4s-1.7-1.3-2.8-1.8c-1.1-0.5-2.5-0.7-4.2-0.7
		s-3.2,0.4-4.7,1.2c-1.5,0.8-2.8,2.1-3.9,3.8c-1.1,1.8-2,4-2.6,6.9c-0.6,2.8-1,6.2-1,10.3s0.3,7.4,0.9,10.2c0.6,2.8,1.4,5,2.5,6.8
		c1,1.7,2.2,3,3.6,3.7c1.3,0.8,2.8,1.1,4.3,1.1c1.1,0,2-0.1,2.8-0.3c0.8-0.2,1.5-0.4,2.1-0.8c0.6-0.3,1.1-0.7,1.6-1
		c0.4-0.4,0.8-0.8,1.1-1.1v-11.5h-8.2v-11.2h22.8v37.7h-9.8l-1.3-5.2c-0.6,0.7-1.3,1.4-2.1,2.2c-0.8,0.7-1.8,1.4-2.9,2
		c-1.1,0.6-2.4,1.1-4,1.5c-1.5,0.4-3.3,0.6-5.3,0.6c-3.3,0-6.3-0.6-9.2-1.9c-2.8-1.3-5.3-3.3-7.4-6.1c-2.1-2.8-3.8-6.3-5-10.7
		c-1.2-4.3-1.8-9.5-1.8-15.6c0-6,0.7-11.3,2.1-15.7c1.4-4.4,3.4-8.1,5.8-10.9c2.5-2.9,5.4-5,8.7-6.4c3.3-1.4,6.9-2.1,10.7-2.1
		c2.5,0,4.8,0.2,6.7,0.7c2,0.5,3.7,1.1,5.2,1.9c1.5,0.8,2.8,1.6,3.8,2.6c1.1,1,2,1.9,2.7,2.9c0.7,1,1.3,1.9,1.8,2.7
		c0.4,0.9,0.8,1.6,1.1,2.1L449.1,205.8z"/>
	<path class="st3" d="M471,254.3V187h14.5v67.3H471z"/>
	<path class="st3" d="M521.2,199.2v55.1h-14.6v-55.1h-14.4V187h43.5v12.2H521.2z"/>
	<path class="st3" d="M571.2,254.3l-3.5-14.1h-17.9l-3.5,14.1h-14.9l18-67.3h19.7l17.8,67.3H571.2z M558.8,200.3l-6.6,28.8h13
		L558.8,200.3z"/>
	<path class="st3" d="M592.9,254.3V187h14.5v54.7h21.4v12.6H592.9z"/>
	<path class="st3" d="M666.1,199.4v16.1h19.6v12.7h-19.6v26.1h-14.5V187h35.9v12.4H666.1z"/>
	<path class="st3" d="M724,254.3l-3.5-14.1h-17.9l-3.5,14.1h-14.9l18-67.3h19.7l17.8,67.3H724z M711.5,200.3l-6.6,28.8h13
		L711.5,200.3z"/>
	<path class="st3" d="M776.3,254.3l-10.1-25.1l-10.5,25.1h-17.1l17.8-34.6L740.2,187h16.9l9.1,23.2l9.3-23.2H792l-15.9,32.7
		l17.5,34.6H776.3z"/>
</g>
<g>
	<g>
		<path id="XMLID_631_" class="st3" d="M273,48H39.4c-12.6,0-23,10.3-23,23v153.2c0,12.6,10.3,23,23,23H273c12.6,0,23-10.3,23-23V71
			C296,58.3,285.7,48,273,48z M176.3,224.2h-40.2v-9h40.2V224.2z M276.9,205H35.6V71h241.3V205z"/>
		<path id="XMLID_630_" class="st3" d="M188.9,268l-10.3-13.8h-44.7L123.5,268H87.4v4.6c0,5,4.7,9.2,10.3,9.2h117
			c5.7,0,10.3-4.1,10.3-9.2V268H188.9z"/>
	</g>
	<g id="XMLID_636_">
		<path id="XMLID_638_" class="st3" d="M96.3,122.9v52c0,4.8,4.5,8.7,10,8.7h49.9h49.9c5.5,0,10-3.9,10-8.7v-52
			c-10.4,7-49.7,33-59.9,34.5C146,155.9,106.7,129.9,96.3,122.9z"/>
		<path id="XMLID_637_" class="st3" d="M206.1,93.6h-49.9h-49.9c-5.5,0-10,3.9-10,8.7v6.2c10.6,7,51.5,34,59.9,35.9
			c8.4-1.9,49.3-28.9,59.9-35.9v-6.2C216.1,97.5,211.6,93.6,206.1,93.6z"/>
	</g>
</g>
</svg>
