<?xml version="1.0" encoding="utf-8"?>
<!-- Generator: Adobe Illustrator 21.1.0, SVG Export Plug-In . SVG Version: 6.00 Build 0)  -->
<svg version="1.1" id="Layer_1" xmlns="http://www.w3.org/2000/svg" xmlns:xlink="http://www.w3.org/1999/xlink" x="0px" y="0px"
	 viewBox="0 0 1200 300" style="enable-background:new 0 0 1200 300;" xml:space="preserve">
<style type="text/css">
	.st0{fill:#036EAD;}
	.st1{fill:none;}
	.st2{enable-background:new    ;}
	.st3{fill:#FFFFFF;}
</style>
<g>
	<rect class="st0" width="1200" height="300.3"/>
</g>
<rect x="323" y="100" class="st1" width="830" height="167"/>
<g class="st2">
	<path class="st3" d="M329.2,254.3V187h37.3v12.4h-22.8V213h21.1v12.6h-21.1v16.1h23.5v12.6H329.2z"/>
	<path class="st3" d="M422.8,239.7c-0.5,1.3-1.3,2.9-2.3,4.7c-1.1,1.8-2.5,3.5-4.3,5.1c-1.8,1.6-4.1,3-6.7,4.2
		c-2.7,1.1-5.9,1.7-9.6,1.7c-3.9,0-7.5-0.7-10.8-2c-3.3-1.4-6.1-3.4-8.5-6.3c-2.4-2.8-4.2-6.4-5.5-10.7c-1.3-4.3-2-9.4-2-15.3
		s0.7-11,2.1-15.5c1.4-4.4,3.3-8.1,5.8-11c2.5-2.9,5.4-5.1,8.7-6.5c3.3-1.4,7-2.1,10.9-2.1c3.7,0,6.8,0.5,9.3,1.4
		c2.6,1,4.7,2.1,6.4,3.6c1.7,1.4,3.1,3,4.1,4.7c1,1.7,1.8,3.3,2.3,4.8l-11.9,6.3c-0.2-0.6-0.5-1.4-0.9-2.3c-0.4-0.9-1-1.8-1.8-2.7
		c-0.8-0.9-1.8-1.6-3-2.2s-2.6-0.9-4.4-0.9c-4.1,0-7.2,1.8-9.3,5.5c-2.1,3.7-3.2,9.1-3.2,16.3c0,7.4,1.1,13,3.4,16.6
		c2.2,3.7,5.3,5.5,9.3,5.5c1.9,0,3.4-0.3,4.7-1c1.3-0.7,2.3-1.5,3.1-2.4s1.5-1.8,1.9-2.8c0.4-0.9,0.8-1.7,1-2.3L422.8,239.7z"/>
	<path class="st3" d="M477.9,254.3l-0.4-49.3l-11.2,49.3h-12.9L442.2,205l-0.2,49.3h-13.4l1.6-67.3h20.1l9.9,47.3l10.1-47.3h19.5
		l1.8,67.3H477.9z"/>
	<path class="st3" d="M564.6,234.7c0,1.8-0.2,3.5-0.6,5c-0.4,1.5-0.9,2.9-1.5,4.2c-0.6,1.3-1.4,2.4-2.3,3.4c-0.9,1-1.8,1.8-2.8,2.6
		c-1.2,0.9-2.5,1.6-3.9,2.2c-1.4,0.6-2.9,1-4.6,1.4c-1.6,0.3-3.4,0.6-5.3,0.7c-1.9,0.1-3.9,0.2-6.1,0.2h-18.8V187H537
		c2.2,0,4.3,0,6.1,0.1c1.8,0.1,3.4,0.3,4.9,0.5c1.5,0.3,2.8,0.6,4,1.1c1.2,0.4,2.4,1,3.5,1.8c1.9,1.2,3.4,2.9,4.5,5
		c1.1,2.1,1.7,4.9,1.7,8.2c0,3.4-0.9,6.4-2.7,9c-1.8,2.6-4.3,4.5-7.6,5.7c4.6,0.9,7.9,2.7,10,5.5
		C563.5,226.7,564.6,230.3,564.6,234.7z M547,205.9c0-1.7-0.3-3.1-0.9-4.1c-0.6-1-1.3-1.8-2.3-2.3s-2-0.9-3.2-1
		c-1.2-0.2-2.4-0.2-3.5-0.2h-3.8v16h3.7c1.1,0,2.3-0.1,3.4-0.3c1.2-0.2,2.3-0.6,3.2-1.1c1-0.6,1.8-1.4,2.4-2.5
		C546.6,209.2,547,207.7,547,205.9z M549.5,233.8c0-1.8-0.3-3.3-0.9-4.6c-0.6-1.2-1.4-2.2-2.4-2.9c-1-0.7-2.1-1.2-3.4-1.5
		c-1.3-0.3-2.6-0.4-4-0.4h-5.5v18.8h5.5c1.4,0,2.7-0.1,4-0.4c1.3-0.3,2.4-0.8,3.4-1.5c1-0.7,1.8-1.7,2.4-2.9
		C549.2,237.2,549.5,235.6,549.5,233.8z"/>
	<path class="st3" d="M616.6,209.7c0,3.9-0.6,7.3-1.9,10.2s-3,5.3-5.3,7.3c-2.1,1.9-4.7,3.2-7.6,4c-2.9,0.7-6.1,1.1-9.5,1.1h-4.8v22
		H573V187h19.2c4,0,7.5,0.4,10.6,1.3c3.1,0.8,5.7,2.3,7.9,4.3c2.1,1.9,3.6,4.3,4.5,7C616.1,202.4,616.6,205.7,616.6,209.7z
		 M602.1,209.7c0-2.2-0.3-4.1-0.9-5.5s-1.3-2.5-2.1-3.2c-0.8-0.9-1.8-1.5-3.1-1.8c-1.3-0.3-2.7-0.5-4.1-0.5h-4.2v22h3.7
		c3.5,0,6-0.7,7.6-2.2c0.9-0.8,1.7-1.9,2.3-3.3S602.1,211.9,602.1,209.7z"/>
	<path class="st3" d="M674.3,220.6c0,5.6-0.6,10.5-1.9,14.8c-1.2,4.3-3,7.9-5.3,10.9c-2.3,2.9-5.1,5.2-8.4,6.7
		c-3.3,1.5-7,2.3-11.2,2.3c-4.1,0-7.8-0.8-11.1-2.3c-3.3-1.5-6.1-3.8-8.3-6.7c-2.3-2.9-4-6.6-5.3-10.9c-1.2-4.3-1.8-9.3-1.8-14.9
		c0-5.5,0.6-10.4,1.8-14.7c1.2-4.3,3-7.9,5.3-10.9c2.3-2.9,5.1-5.2,8.4-6.8c3.3-1.6,7-2.3,11.1-2.3c4.1,0,7.9,0.8,11.2,2.3
		c3.3,1.5,6.1,3.8,8.4,6.7c2.3,3,4.1,6.6,5.3,10.9C673.7,210.1,674.3,215.1,674.3,220.6z M659,220.5c0-3.4-0.2-6.4-0.7-9.2
		c-0.5-2.7-1.2-5.1-2.1-7c-0.9-1.9-2.1-3.4-3.6-4.4s-3.1-1.6-5.1-1.6c-1.9,0-3.6,0.5-5,1.6c-1.4,1-2.6,2.5-3.5,4.4
		c-0.9,1.9-1.6,4.2-2.1,7c-0.5,2.7-0.7,5.8-0.7,9.2c0,3.5,0.2,6.5,0.7,9.3c0.5,2.7,1.2,5,2.1,6.9c0.9,1.9,2.1,3.3,3.5,4.3
		c1.4,1,3.1,1.5,5,1.5c2,0,3.7-0.5,5.1-1.5s2.6-2.5,3.6-4.4c0.9-1.9,1.6-4.2,2.1-6.9C658.8,227,659,223.9,659,220.5z"/>
	<path class="st3" d="M737.1,234.4c0,3.3-0.6,6.2-1.8,8.8c-1.2,2.6-2.8,4.8-4.9,6.6c-2.1,1.8-4.5,3.2-7.4,4.1
		c-2.8,1-5.9,1.4-9.2,1.4c-2.7,0-5.2-0.3-7.5-0.9c-2.2-0.6-4.2-1.4-5.9-2.3c-1.7-0.9-3.1-1.8-4.3-2.8c-1.1-1-2-1.8-2.5-2.5l7.3-10.7
		c0.6,0.8,1.4,1.6,2.3,2.3c0.9,0.7,1.9,1.4,3,1.9c1.1,0.6,2.3,1,3.5,1.3s2.5,0.5,3.8,0.5c1.4,0,2.7-0.2,3.7-0.5
		c1-0.3,1.9-0.8,2.6-1.4c0.7-0.6,1.2-1.3,1.5-2.1c0.3-0.8,0.5-1.7,0.5-2.6c0-1-0.2-1.9-0.6-2.7c-0.4-0.8-1-1.6-1.7-2.3
		c-0.8-0.7-1.7-1.4-2.8-2.1c-1.1-0.7-2.3-1.4-3.7-2.1c-2.8-1.4-5.2-2.8-7.3-4.1c-2.1-1.3-3.9-2.8-5.3-4.3c-1.4-1.6-2.5-3.3-3.2-5.2
		c-0.7-1.9-1.1-4.2-1.1-6.9c0-3.1,0.6-6,1.7-8.4s2.7-4.6,4.6-6.3c1.9-1.7,4.2-3,6.9-3.9c2.6-0.9,5.4-1.3,8.4-1.3c3,0,5.7,0.3,8,1
		c2.3,0.6,4.3,1.4,5.9,2.2c1.6,0.8,2.9,1.7,3.8,2.5s1.5,1.5,1.8,1.9l-7.3,10.6c-0.6-0.7-1.2-1.4-2-2.1c-0.8-0.7-1.7-1.3-2.7-1.8
		c-1-0.5-2.1-0.9-3.2-1.2c-1.2-0.3-2.4-0.5-3.6-0.5c-2.5,0-4.3,0.6-5.6,1.8c-1.2,1.2-1.9,2.7-1.9,4.6c0,0.9,0.2,1.7,0.5,2.5
		c0.3,0.7,0.8,1.5,1.6,2.1c0.7,0.7,1.6,1.4,2.7,2c1.1,0.7,2.3,1.3,3.8,2.1c2.5,1.2,4.8,2.4,6.9,3.7c2.1,1.2,4,2.7,5.6,4.2
		c1.6,1.6,2.8,3.4,3.7,5.5C736.7,229.1,737.1,231.5,737.1,234.4z"/>
	<path class="st3" d="M792,239.7c-0.5,1.3-1.3,2.9-2.3,4.7c-1.1,1.8-2.5,3.5-4.3,5.1c-1.8,1.6-4.1,3-6.7,4.2s-5.9,1.7-9.6,1.7
		c-3.9,0-7.5-0.7-10.8-2c-3.3-1.4-6.1-3.4-8.5-6.3c-2.4-2.8-4.2-6.4-5.5-10.7c-1.3-4.3-2-9.4-2-15.3s0.7-11,2.1-15.5
		c1.4-4.4,3.3-8.1,5.8-11c2.5-2.9,5.4-5.1,8.7-6.5c3.3-1.4,7-2.1,10.9-2.1c3.7,0,6.8,0.5,9.3,1.4c2.6,1,4.7,2.1,6.4,3.6
		c1.7,1.4,3.1,3,4.1,4.7c1,1.7,1.8,3.3,2.3,4.8l-11.9,6.3c-0.2-0.6-0.5-1.4-0.9-2.3s-1-1.8-1.8-2.7c-0.8-0.9-1.8-1.6-3-2.2
		c-1.2-0.6-2.6-0.9-4.4-0.9c-4.1,0-7.2,1.8-9.3,5.5c-2.1,3.7-3.2,9.1-3.2,16.3c0,7.4,1.1,13,3.4,16.6c2.2,3.7,5.3,5.5,9.3,5.5
		c1.9,0,3.4-0.3,4.7-1c1.3-0.7,2.3-1.5,3.1-2.4s1.5-1.8,1.9-2.8c0.4-0.9,0.8-1.7,1-2.3L792,239.7z"/>
	<path class="st3" d="M832.1,254.3l-3.5-14.1h-17.9l-3.5,14.1h-14.9l18-67.3h19.7l17.8,67.3H832.1z M819.7,200.3l-6.6,28.8h13
		L819.7,200.3z"/>
	<path class="st3" d="M887.6,254.3l-20.4-43v43h-13.5V187H868l19.5,41.4V187h13.8v67.3H887.6z"/>
	<path class="st3" d="M947.8,254.3l-20.4-43v43h-13.5V187h14.3l19.5,41.4V187h13.8v67.3H947.8z"/>
	<path class="st3" d="M974.1,254.3V187h14.5v67.3H974.1z"/>
	<path class="st3" d="M1034.9,254.3l-20.4-43v43H1001V187h14.3l19.5,41.4V187h13.8v67.3H1034.9z"/>
	<path class="st3" d="M1095.3,205.8c-0.3-0.7-0.7-1.5-1.2-2.4c-0.5-0.8-1.1-1.6-1.9-2.4c-0.8-0.7-1.7-1.3-2.8-1.8
		c-1.1-0.5-2.5-0.7-4.2-0.7s-3.2,0.4-4.7,1.2c-1.5,0.8-2.8,2.1-3.9,3.8c-1.1,1.8-2,4-2.6,6.9c-0.6,2.8-1,6.2-1,10.3
		s0.3,7.4,0.9,10.2c0.6,2.8,1.4,5,2.5,6.8c1,1.7,2.2,3,3.6,3.7c1.3,0.8,2.8,1.1,4.3,1.1c1.1,0,2-0.1,2.8-0.3
		c0.8-0.2,1.5-0.4,2.1-0.8s1.1-0.7,1.6-1c0.4-0.4,0.8-0.8,1.1-1.1v-11.5h-8.2v-11.2h22.8v37.7h-9.8l-1.3-5.2
		c-0.6,0.7-1.3,1.4-2.1,2.2c-0.8,0.7-1.8,1.4-2.9,2c-1.1,0.6-2.4,1.1-4,1.5c-1.5,0.4-3.3,0.6-5.3,0.6c-3.3,0-6.3-0.6-9.2-1.9
		c-2.8-1.3-5.3-3.3-7.4-6.1c-2.1-2.8-3.8-6.3-5-10.7c-1.2-4.3-1.8-9.5-1.8-15.6c0-6,0.7-11.3,2.1-15.7c1.4-4.4,3.4-8.1,5.8-10.9
		c2.5-2.9,5.4-5,8.7-6.4c3.3-1.4,6.9-2.1,10.7-2.1c2.5,0,4.8,0.2,6.7,0.7c2,0.5,3.7,1.1,5.2,1.9c1.5,0.8,2.8,1.6,3.8,2.6
		c1.1,1,2,1.9,2.7,2.9c0.7,1,1.3,1.9,1.8,2.7c0.4,0.9,0.8,1.6,1.1,2.1L1095.3,205.8z"/>
</g>
<g id="XMLID_202_">
	<rect id="XMLID_207_" x="101.6" y="40.3" class="st3" width="120.2" height="92.6"/>
	<path id="XMLID_206_" class="st3" d="M91.6,207.1V251h-59v-43.9H91.6 M94.4,193.2H29.8c-6.1,0-11.1,5-11.1,11.1v49.4
		c0,6.1,5,11.1,11.1,11.1h64.5c6.1,0,11.1-5,11.1-11.1v-49.4C105.5,198.2,100.5,193.2,94.4,193.2L94.4,193.2z"/>
	<path id="XMLID_205_" class="st3" d="M193.3,207.1V251h-59v-43.9H193.3 M196.1,193.2h-64.5c-6.1,0-11.1,5-11.1,11.1v49.4
		c0,6.1,5,11.1,11.1,11.1h64.5c6.1,0,11.1-5,11.1-11.1v-49.4C207.2,198.2,202.2,193.2,196.1,193.2L196.1,193.2z"/>
	<path id="XMLID_204_" class="st3" d="M293.1,207.1V251h-59v-43.9H293.1 M295.9,193.2h-64.5c-6.1,0-11.1,5-11.1,11.1v49.4
		c0,6.1,5,11.1,11.1,11.1h64.5c6.1,0,11.1-5,11.1-11.1v-49.4C307,198.2,302,193.2,295.9,193.2L295.9,193.2z"/>
	<path id="XMLID_203_" class="st3" d="M270.2,160c0-3.4-2.8-6.1-6.1-6.1h-93.9V147c0-3.5-2.8-6.3-6.3-6.3s-6.3,2.8-6.3,6.3v6.9H60.8
		c-3.4,0-6.1,2.8-6.1,6.1v1.2v18.5c0,3.5,2.8,6.3,6.3,6.3s6.3-2.8,6.3-6.3v-9.3h90.2v6.5c0,3.5,2.8,6.3,6.3,6.3s6.3-2.8,6.3-6.3
		v-6.5h87.1v9.3c0,3.5,2.8,6.3,6.3,6.3s6.3-2.8,6.3-6.3V166c0.2-0.5,0.3-1.1,0.3-1.7V160H270.2z"/>
</g>
</svg>
