<?xml version="1.0" encoding="utf-8"?>
<!-- Generator: Adobe Illustrator 21.1.0, SVG Export Plug-In . SVG Version: 6.00 Build 0)  -->
<svg version="1.1" id="Layer_1" xmlns="http://www.w3.org/2000/svg" xmlns:xlink="http://www.w3.org/1999/xlink" x="0px" y="0px"
	 viewBox="0 0 1200 300" style="enable-background:new 0 0 1200 300;" xml:space="preserve">
<style type="text/css">
	.st0{fill:#036EAD;}
	.st1{fill:none;}
	.st2{enable-background:new    ;}
	.st3{fill:#FFFFFF;}
</style>
<g>
	<rect class="st0" width="1200" height="300.3"/>
</g>
<rect x="323" y="100" class="st1" width="830" height="167"/>
<g class="st2">
	<path class="st3" d="M362,254.3v-28.7h-18.4v28.7h-14.5V187h14.5V213H362V187h14.9v67.3H362z"/>
	<path class="st3" d="M422.5,254.3l-3.5-14.1h-17.9l-3.5,14.1h-14.9l18-67.3h19.7l17.8,67.3H422.5z M410.1,200.3l-6.6,28.8h13
		L410.1,200.3z"/>
	<path class="st3" d="M473.6,254.3l-10.9-25.8h-4v25.8h-14.5V187h20.1c3.5,0,6.7,0.3,9.4,0.9c2.8,0.6,5.2,1.7,7.2,3.2
		c2.2,1.7,3.9,3.8,5,6.3s1.8,5.8,1.8,9.6c0,2.6-0.3,4.8-0.9,6.9c-0.6,2-1.4,3.8-2.4,5.4c-1,1.6-2.2,2.9-3.5,4.1
		c-1.4,1.2-2.8,2.1-4.4,2.9l13.2,28H473.6z M473,207.9c0-3.1-0.8-5.4-2.4-6.9c-1.6-1.5-4.1-2.3-7.6-2.3h-4.3v18.9h4.3
		c3.1,0,5.6-0.8,7.3-2.4S473,211.2,473,207.9z"/>
	<path class="st3" d="M547.3,219.7c0,3.1-0.3,6-0.8,8.7c-0.5,2.7-1.2,5.2-2.1,7.4s-1.9,4.3-3.1,6.1c-1.2,1.8-2.5,3.4-3.8,4.7
		c-2.9,2.8-6.3,4.8-10,5.9c-3.7,1.1-8.1,1.7-13.1,1.7h-16.9V187h17.4c2.6,0,5,0.1,7.3,0.3c2.3,0.2,4.4,0.6,6.3,1.1s3.8,1.2,5.5,2.1
		c1.7,0.9,3.2,2,4.6,3.3c2.7,2.6,4.9,6,6.4,10.2C546.5,208.3,547.3,213.6,547.3,219.7z M532.1,220.5c0-4-0.4-7.5-1.3-10.4
		c-0.9-2.9-2-5.1-3.5-6.7c-1.4-1.5-3-2.6-4.8-3.2c-1.8-0.6-4.1-0.9-7-0.9H512v42.3h3.4c2.8,0,5.1-0.3,7-0.8c1.9-0.6,3.5-1.6,4.9-3.1
		c0.7-0.8,1.4-1.7,2-2.9c0.6-1.2,1.1-2.5,1.5-4c0.4-1.5,0.7-3.1,1-4.8C532,224.3,532.1,222.5,532.1,220.5z"/>
	<path class="st3" d="M617.9,254.3h-17.3l-9.1-50.6l-9.1,50.6h-17.3L551.3,187h15.4l8,51l9-51h16.7l8.9,51l7.9-51h14.5L617.9,254.3z
		"/>
	<path class="st3" d="M671.3,254.3l-3.5-14.1h-17.9l-3.5,14.1h-14.9l18-67.3h19.7l17.8,67.3H671.3z M658.9,200.3l-6.6,28.8h13
		L658.9,200.3z"/>
	<path class="st3" d="M722.4,254.3l-10.9-25.8h-4v25.8H693V187h20.1c3.5,0,6.7,0.3,9.4,0.9c2.8,0.6,5.2,1.7,7.2,3.2
		c2.2,1.7,3.9,3.8,5,6.3c1.2,2.6,1.8,5.8,1.8,9.6c0,2.6-0.3,4.8-0.9,6.9c-0.6,2-1.4,3.8-2.4,5.4c-1,1.6-2.2,2.9-3.5,4.1
		s-2.8,2.1-4.4,2.9l13.2,28H722.4z M721.8,207.9c0-3.1-0.8-5.4-2.4-6.9c-1.6-1.5-4.1-2.3-7.6-2.3h-4.3v18.9h4.3
		c3.1,0,5.6-0.8,7.3-2.4S721.8,211.2,721.8,207.9z"/>
	<path class="st3" d="M746.3,254.3V187h37.3v12.4h-22.8V213h21.1v12.6h-21.1v16.1h23.5v12.6H746.3z"/>
</g>
<g>
	<path class="st3" d="M255.3,109.1c-5.3,5.4-14.1,5.5-19.5,0.1l-22.4-22.1c-5.4-5.3-5.5-14.1-0.1-19.5l33.3-33.8
		c-4.8-1.2-9.9-1.8-15-1.8c-34,0-61.6,26.4-61.6,59c0,6.6,1.2,13,3.2,18.9l-106,116.4c-5.6,4.9-9.1,12-9.1,19.9
		c0,14.9,12.5,27.1,27.9,27.1c7.8,0,14.8-3.1,19.8-8l107.3-117.9c5.8,1.7,11.9,2.6,18.2,2.6c34,0,61.6-26.4,61.6-59
		c0-6.1-1-11.9-2.7-17.5L255.3,109.1z M86.7,255.4c-6,0-10.9-4.9-10.9-10.9s4.9-10.9,10.9-10.9s10.9,4.9,10.9,10.9
		C97.7,250.5,92.8,255.4,86.7,255.4z"/>
	<path class="st3" d="M271.7,225.2l-62.9-49.5l-28,28l48.4,64c9.8,9.8,25.9,9.8,35.8,0l6.7-6.7C281.5,251.2,281.5,235.1,271.7,225.2
		z"/>
	<polygon class="st3" points="140.8,125.8 92,77 93.4,75.5 88.4,58.7 71.4,41.7 44.9,68.2 61.9,85.2 78.7,90.2 80.2,88.8 129,137.6 
			"/>
</g>
</svg>
