<?xml version="1.0" encoding="utf-8"?>
<!-- Generator: Adobe Illustrator 21.1.0, SVG Export Plug-In . SVG Version: 6.00 Build 0)  -->
<svg version="1.1" id="Layer_1" xmlns="http://www.w3.org/2000/svg" xmlns:xlink="http://www.w3.org/1999/xlink" x="0px" y="0px"
	 viewBox="0 0 1200 300" style="enable-background:new 0 0 1200 300;" xml:space="preserve">
<style type="text/css">
	.st0{fill:#036EAD;}
	.st1{fill:none;}
	.st2{enable-background:new    ;}
	.st3{fill:#FFFFFF;}
</style>
<g>
	<rect class="st0" width="1200" height="300.3"/>
</g>
<rect x="323" y="100" class="st1" width="830" height="167"/>
<g class="st2">
	<path class="st3" d="M367.1,149.4c0,3.3-0.6,6.2-1.8,8.8c-1.2,2.6-2.8,4.8-4.9,6.6c-2.1,1.8-4.5,3.2-7.4,4.1
		c-2.8,1-5.9,1.4-9.2,1.4c-2.7,0-5.2-0.3-7.5-0.9c-2.2-0.6-4.2-1.4-5.9-2.3c-1.7-0.9-3.1-1.8-4.3-2.8c-1.1-1-2-1.8-2.5-2.5l7.3-10.7
		c0.6,0.8,1.4,1.6,2.3,2.3c0.9,0.7,1.9,1.4,3,1.9c1.1,0.6,2.3,1,3.5,1.3s2.5,0.5,3.8,0.5c1.4,0,2.7-0.2,3.7-0.5
		c1-0.3,1.9-0.8,2.6-1.4c0.7-0.6,1.2-1.3,1.5-2.1c0.3-0.8,0.5-1.7,0.5-2.6c0-1-0.2-1.9-0.6-2.7c-0.4-0.8-1-1.6-1.7-2.3
		c-0.8-0.7-1.7-1.4-2.8-2.1c-1.1-0.7-2.3-1.4-3.7-2.1c-2.8-1.4-5.2-2.8-7.3-4.1c-2.1-1.3-3.9-2.8-5.3-4.3c-1.4-1.6-2.5-3.3-3.2-5.2
		c-0.7-1.9-1.1-4.2-1.1-6.9c0-3.1,0.6-6,1.7-8.4s2.7-4.6,4.6-6.3c1.9-1.7,4.2-3,6.9-3.9c2.6-0.9,5.4-1.3,8.4-1.3c3,0,5.7,0.3,8,1
		c2.3,0.6,4.3,1.4,5.9,2.2c1.6,0.8,2.9,1.7,3.8,2.5s1.5,1.5,1.8,1.9l-7.3,10.6c-0.6-0.7-1.2-1.4-2-2.1c-0.8-0.7-1.7-1.3-2.7-1.8
		s-2.1-0.9-3.2-1.2c-1.2-0.3-2.4-0.5-3.6-0.5c-2.5,0-4.3,0.6-5.6,1.8c-1.2,1.2-1.9,2.7-1.9,4.6c0,0.9,0.2,1.7,0.5,2.5
		c0.3,0.7,0.8,1.5,1.6,2.1c0.7,0.7,1.6,1.4,2.7,2c1.1,0.7,2.3,1.3,3.8,2.1c2.5,1.2,4.8,2.4,6.9,3.7c2.1,1.2,4,2.7,5.6,4.2
		c1.6,1.6,2.8,3.4,3.7,5.5C366.7,144.1,367.1,146.5,367.1,149.4z"/>
	<path class="st3" d="M375.5,169.3V102h37.3v12.4H390V128h21.1v12.6H390v16.1h23.5v12.6H375.5z"/>
	<path class="st3" d="M469.2,154.7c-0.5,1.3-1.3,2.9-2.3,4.7c-1.1,1.8-2.5,3.5-4.3,5.1c-1.8,1.6-4.1,3-6.7,4.2
		c-2.7,1.1-5.9,1.7-9.6,1.7c-3.9,0-7.5-0.7-10.8-2c-3.3-1.4-6.1-3.4-8.5-6.3c-2.4-2.8-4.2-6.4-5.5-10.7c-1.3-4.3-2-9.4-2-15.3
		s0.7-11,2.1-15.5c1.4-4.4,3.3-8.1,5.8-11c2.5-2.9,5.4-5.1,8.7-6.5c3.3-1.4,7-2.1,10.9-2.1c3.7,0,6.8,0.5,9.3,1.4
		c2.6,1,4.7,2.1,6.4,3.6c1.7,1.4,3.1,3,4.1,4.7c1,1.7,1.8,3.3,2.3,4.8l-11.9,6.3c-0.2-0.6-0.5-1.4-0.9-2.3c-0.4-0.9-1-1.8-1.8-2.7
		c-0.8-0.9-1.8-1.6-3-2.2s-2.6-0.9-4.4-0.9c-4.1,0-7.2,1.8-9.3,5.5c-2.1,3.7-3.2,9.1-3.2,16.3c0,7.4,1.1,13,3.4,16.6
		c2.2,3.7,5.3,5.5,9.3,5.5c1.9,0,3.4-0.3,4.7-1c1.3-0.7,2.3-1.5,3.1-2.4s1.5-1.8,1.9-2.8c0.4-0.9,0.8-1.7,1-2.3L469.2,154.7z"/>
	<path class="st3" d="M508.8,102h14.5v42c0,2.3-0.1,4.5-0.3,6.4c-0.2,1.9-0.6,3.7-1,5.2s-1.1,3-1.8,4.3c-0.7,1.3-1.6,2.6-2.6,3.7
		c-2,2.1-4.4,3.8-7.4,4.9c-3,1.1-6.6,1.7-11,1.7c-4.2,0-7.8-0.5-10.8-1.6s-5.5-2.7-7.5-5.1c-0.9-1.1-1.7-2.2-2.4-3.5
		c-0.7-1.2-1.2-2.6-1.6-4.2s-0.7-3.3-0.9-5.3c-0.2-1.9-0.3-4.2-0.3-6.7v-42h14.4v43.3c0,2.3,0.2,4.3,0.6,5.7c0.4,1.5,1,2.7,1.8,3.6
		c1.8,1.9,4.1,2.8,7,2.8c1.2,0,2.5-0.2,3.8-0.7c1.3-0.4,2.3-1.2,3.2-2.1c0.8-1,1.4-2.2,1.8-3.7s0.5-3.3,0.5-5.6V102z"/>
	<path class="st3" d="M565,169.3L554,143.5h-4v25.8h-14.5V102h20.1c3.5,0,6.7,0.3,9.4,0.9c2.8,0.6,5.2,1.7,7.2,3.2
		c2.2,1.7,3.9,3.8,5,6.3c1.2,2.6,1.8,5.8,1.8,9.6c0,2.6-0.3,4.8-0.9,6.9c-0.6,2-1.4,3.8-2.4,5.4c-1,1.6-2.2,2.9-3.5,4.1
		c-1.4,1.2-2.8,2.1-4.4,2.9l13.2,28H565z M564.3,122.9c0-3.1-0.8-5.4-2.4-6.9c-1.6-1.5-4.1-2.3-7.6-2.3H550v18.9h4.3
		c3.1,0,5.6-0.8,7.3-2.4S564.3,126.2,564.3,122.9z"/>
	<path class="st3" d="M588.8,169.3V102h14.5v67.3H588.8z"/>
	<path class="st3" d="M639,114.2v55.1h-14.6v-55.1H610V102h43.5v12.2H639z"/>
	<path class="st3" d="M687.3,141.9v27.4h-14.6v-27.4L653.8,102h15.8l10.4,28.1l10.4-28.1h15.8L687.3,141.9z"/>
	<path class="st3" d="M767.2,169.3l-4.2-5.7c-0.8,0.7-1.7,1.5-2.7,2.3c-1,0.8-2.2,1.5-3.5,2.1c-1.4,0.6-3,1.2-4.8,1.6
		c-1.8,0.4-4,0.6-6.4,0.6c-2.6,0-5.1-0.4-7.5-1.2c-2.3-0.8-4.4-2-6.2-3.5c-1.8-1.6-3.2-3.5-4.2-5.9c-1-2.4-1.6-5.1-1.6-8.3
		c0-3,0.4-5.6,1.3-7.7c0.9-2.1,2-3.9,3.3-5.4c1.3-1.5,2.7-2.8,4.2-3.8c1.5-1,2.9-1.9,4.2-2.7c-0.7-1-1.5-2-2.2-3.1
		c-0.8-1.1-1.4-2.2-2-3.5c-0.6-1.2-1.1-2.5-1.4-4c-0.4-1.4-0.6-3-0.6-4.6c0-2.6,0.5-4.9,1.6-6.8c1-1.9,2.4-3.6,4.1-4.9
		c1.7-1.3,3.7-2.3,5.9-2.9c2.2-0.7,4.5-1,7-1c2.2,0,4.3,0.3,6.4,0.9c2,0.6,3.8,1.6,5.4,2.8c1.6,1.3,2.8,2.9,3.7,4.8s1.4,4.2,1.4,6.9
		c0,2.3-0.3,4.3-1,6.1c-0.7,1.8-1.6,3.3-2.7,4.7c-1.1,1.4-2.3,2.6-3.6,3.7c-1.3,1.1-2.6,2.1-3.8,3l8,11.1c0.6-1,1.2-2,1.8-3.2
		c0.6-1.1,1-2.3,1.5-3.5c0.4-1.2,0.8-2.4,1.2-3.5c0.3-1.2,0.6-2.3,0.9-3.3l11.2,3.3c-0.5,1.7-1.1,3.5-1.7,5.3
		c-0.7,1.8-1.4,3.6-2.1,5.3c-0.8,1.7-1.6,3.4-2.5,4.9c-0.9,1.6-1.9,3-2.8,4.2l11.1,14.8H767.2z M745.4,140.3
		c-1.8,1.3-3.2,2.7-4.1,4.1c-0.9,1.4-1.4,3.2-1.4,5.2c0,2.8,0.7,4.9,2.2,6.4c1.5,1.5,3.4,2.3,5.7,2.3c1,0,1.9-0.1,2.7-0.4
		c0.8-0.2,1.6-0.5,2.3-0.9c0.7-0.4,1.2-0.8,1.7-1.2c0.4-0.4,0.8-0.8,1-1.2L745.4,140.3z M756,116.4c0-2-0.4-3.5-1.3-4.6
		c-0.9-1.1-2-1.7-3.5-1.7c-0.9,0-1.6,0.2-2.3,0.5c-0.6,0.3-1.2,0.7-1.6,1.3c-0.4,0.6-0.7,1.2-0.9,1.9s-0.3,1.4-0.3,2.2
		c0,1.7,0.4,3.4,1.2,5.1c0.8,1.7,1.9,3.4,3.3,5.1c1.5-1.2,2.7-2.6,3.8-4.3C755.5,120.2,756,118.4,756,116.4z"/>
</g>
<g class="st2">
	<path class="st3" d="M375.7,239.7c-0.5,1.3-1.3,2.9-2.3,4.7c-1.1,1.8-2.5,3.5-4.3,5.1c-1.8,1.6-4.1,3-6.7,4.2
		c-2.7,1.1-5.9,1.7-9.6,1.7c-3.9,0-7.5-0.7-10.8-2c-3.3-1.4-6.1-3.4-8.5-6.3c-2.4-2.8-4.2-6.4-5.5-10.7c-1.3-4.3-2-9.4-2-15.3
		s0.7-11,2.1-15.5c1.4-4.4,3.3-8.1,5.8-11c2.5-2.9,5.4-5.1,8.7-6.5c3.3-1.4,7-2.1,10.9-2.1c3.7,0,6.8,0.5,9.3,1.4
		c2.6,1,4.7,2.1,6.4,3.6c1.7,1.4,3.1,3,4.1,4.7c1,1.7,1.8,3.3,2.3,4.8l-11.9,6.3c-0.2-0.6-0.5-1.4-0.9-2.3c-0.4-0.9-1-1.8-1.8-2.7
		c-0.8-0.9-1.8-1.6-3-2.2s-2.6-0.9-4.4-0.9c-4.1,0-7.2,1.8-9.3,5.5c-2.1,3.7-3.2,9.1-3.2,16.3c0,7.4,1.1,13,3.4,16.6
		c2.2,3.7,5.3,5.5,9.3,5.5c1.9,0,3.4-0.3,4.7-1c1.3-0.7,2.3-1.5,3.1-2.4s1.5-1.8,1.9-2.8c0.4-0.9,0.8-1.7,1-2.3L375.7,239.7z"/>
	<path class="st3" d="M432.6,220.6c0,5.6-0.6,10.5-1.9,14.8c-1.2,4.3-3,7.9-5.3,10.9c-2.3,2.9-5.1,5.2-8.4,6.7
		c-3.3,1.5-7,2.3-11.2,2.3c-4.1,0-7.8-0.8-11.1-2.3c-3.3-1.5-6.1-3.8-8.3-6.7c-2.3-2.9-4-6.6-5.3-10.9c-1.2-4.3-1.8-9.3-1.8-14.9
		c0-5.5,0.6-10.4,1.8-14.7c1.2-4.3,3-7.9,5.3-10.9c2.3-2.9,5.1-5.2,8.4-6.8c3.3-1.6,7-2.3,11.1-2.3c4.1,0,7.9,0.8,11.2,2.3
		c3.3,1.5,6.1,3.8,8.4,6.7c2.3,3,4.1,6.6,5.3,10.9C432,210.1,432.6,215.1,432.6,220.6z M417.3,220.5c0-3.4-0.2-6.4-0.7-9.2
		c-0.5-2.7-1.2-5.1-2.1-7c-0.9-1.9-2.1-3.4-3.6-4.4s-3.1-1.6-5.1-1.6c-1.9,0-3.6,0.5-5,1.6c-1.4,1-2.6,2.5-3.5,4.4
		c-0.9,1.9-1.6,4.2-2.1,7c-0.5,2.7-0.7,5.8-0.7,9.2c0,3.5,0.2,6.5,0.7,9.3c0.5,2.7,1.2,5,2.1,6.9c0.9,1.9,2.1,3.3,3.5,4.3
		c1.4,1,3.1,1.5,5,1.5c2,0,3.7-0.5,5.1-1.5s2.6-2.5,3.6-4.4c0.9-1.9,1.6-4.2,2.1-6.9C417,227,417.3,223.9,417.3,220.5z"/>
	<path class="st3" d="M490,254.3l-0.4-49.3l-11.2,49.3h-12.9L454.3,205l-0.2,49.3h-13.4l1.6-67.3h20.1l9.9,47.3l10.1-47.3H502
		l1.8,67.3H490z"/>
	<path class="st3" d="M558.8,209.7c0,3.9-0.6,7.3-1.9,10.2c-1.3,2.9-3,5.3-5.3,7.3c-2.1,1.9-4.7,3.2-7.6,4c-2.9,0.7-6.1,1.1-9.5,1.1
		h-4.8v22h-14.5V187h19.2c4,0,7.5,0.4,10.6,1.3c3.1,0.8,5.7,2.3,7.9,4.3c2.1,1.9,3.6,4.3,4.5,7C558.3,202.4,558.8,205.7,558.8,209.7
		z M544.2,209.7c0-2.2-0.3-4.1-0.9-5.5s-1.3-2.5-2.1-3.2c-0.8-0.9-1.8-1.5-3.1-1.8c-1.3-0.3-2.7-0.5-4.1-0.5h-4.2v22h3.7
		c3.5,0,6-0.7,7.6-2.2c0.9-0.8,1.7-1.9,2.3-3.3S544.2,211.9,544.2,209.7z"/>
	<path class="st3" d="M566.4,254.3V187h14.5v54.7h21.4v12.6H566.4z"/>
	<path class="st3" d="M609.4,254.3V187h14.5v67.3H609.4z"/>
	<path class="st3" d="M669.6,254.3l-3.5-14.1h-17.9l-3.5,14.1h-14.9l18-67.3h19.7l17.8,67.3H669.6z M657.1,200.3l-6.6,28.8h13
		L657.1,200.3z"/>
	<path class="st3" d="M725.1,254.3l-20.4-43v43h-13.5V187h14.3l19.5,41.4V187h13.8v67.3H725.1z"/>
	<path class="st3" d="M797.9,239.7c-0.5,1.3-1.3,2.9-2.3,4.7c-1.1,1.8-2.5,3.5-4.3,5.1c-1.8,1.6-4.1,3-6.7,4.2s-5.9,1.7-9.6,1.7
		c-3.9,0-7.5-0.7-10.8-2c-3.3-1.4-6.1-3.4-8.5-6.3c-2.4-2.8-4.2-6.4-5.5-10.7c-1.3-4.3-2-9.4-2-15.3s0.7-11,2.1-15.5
		c1.4-4.4,3.3-8.1,5.8-11c2.5-2.9,5.4-5.1,8.7-6.5c3.3-1.4,7-2.1,10.9-2.1c3.7,0,6.8,0.5,9.3,1.4c2.6,1,4.7,2.1,6.4,3.6
		c1.7,1.4,3.1,3,4.1,4.7c1,1.7,1.8,3.3,2.3,4.8l-11.9,6.3c-0.2-0.6-0.5-1.4-0.9-2.3s-1-1.8-1.8-2.7c-0.8-0.9-1.8-1.6-3-2.2
		c-1.2-0.6-2.6-0.9-4.4-0.9c-4.1,0-7.2,1.8-9.3,5.5c-2.1,3.7-3.2,9.1-3.2,16.3c0,7.4,1.1,13,3.4,16.6c2.2,3.7,5.3,5.5,9.3,5.5
		c1.9,0,3.4-0.3,4.7-1c1.3-0.7,2.3-1.5,3.1-2.4s1.5-1.8,1.9-2.8c0.4-0.9,0.8-1.7,1-2.3L797.9,239.7z"/>
	<path class="st3" d="M804.7,254.3V187H842v12.4h-22.8V213h21.1v12.6h-21.1v16.1h23.5v12.6H804.7z"/>
</g>
<g>
	<g>
		<path id="XMLID_556_" class="st3" d="M242.9,68.7c-65.9,0-77.1-28-77.2-28.3c-0.5-1.4-1.7-2.3-3-2.3c0,0,0,0-0.1,0
			c-1.3,0-2.5,0.9-3,2.3c-0.1,0.3-11.5,28.4-77.2,28.4c-1.8,0-3.3,1.7-3.3,3.7v113c0,51.5,78.8,90.8,82.2,92.5
			c0.4,0.2,0.9,0.3,1.3,0.3c0.4,0,0.9-0.1,1.3-0.3c3.4-1.7,82.2-41,82.2-92.5v-113C246.1,70.3,244.7,68.7,242.9,68.7z M228,178
			c0,40.3-61.7,71.1-64.3,72.4c-0.3,0.2-0.7,0.2-1,0.2c-0.4,0-0.7-0.1-1-0.2c-2.6-1.3-64.3-32.1-64.3-72.4V92.3
			c0-1.6,1.1-2.9,2.6-2.9c51.4,0,60.3-22,60.4-22.2c0.4-1.1,1.4-1.8,2.4-1.8l0,0c1.1,0,2,0.7,2.4,1.8c0.1,0.2,8.8,22.2,60.4,22.2
			c1.4,0,2.6,1.3,2.6,2.9L228,178z"/>
	</g>
	<path class="st3" d="M200.5,151l10.2-6.5l-2.6-8.8l-12.1,0.2c-2.2-4.1-5.2-7.7-8.8-10.7l2.6-11.9l-8.1-4.4l-8.5,8.7
		c-4.6-1.3-9.3-1.8-13.8-1.4l-6.4-10.3l-8.8,2.6l0.2,12.2c-4,2.2-7.7,5.2-10.7,8.7l-11.9-2.7l-4.4,8.1l8.7,8.5
		c-1.4,4.6-1.8,9.3-1.4,13.8l-10.2,6.5l2.6,8.8l12.2-0.2c2.2,4.1,5.2,7.7,8.8,10.8l-2.6,11.8l8.1,4.4l8.4-8.7
		c4.6,1.3,9.2,1.8,13.7,1.4l6.5,10.2l8.8-2.6l-0.2-12.1c4.1-2.2,7.7-5.2,10.8-8.8l11.8,2.6l4.4-8.1l-8.7-8.4
		C200.5,160.2,200.9,155.5,200.5,151z M162.2,165.2c-6.1-0.3-10.9-5.4-10.6-11.6c0.3-6.1,5.4-10.9,11.6-10.6
		c6.1,0.3,10.9,5.4,10.6,11.6C173.5,160.7,168.3,165.4,162.2,165.2z"/>
</g>
</svg>
