<?xml version="1.0" encoding="utf-8"?>
<!-- Generator: Adobe Illustrator 21.1.0, SVG Export Plug-In . SVG Version: 6.00 Build 0)  -->
<svg version="1.1" id="Layer_1" xmlns="http://www.w3.org/2000/svg" xmlns:xlink="http://www.w3.org/1999/xlink" x="0px" y="0px"
	 viewBox="0 0 1200 300" style="enable-background:new 0 0 1200 300;" xml:space="preserve">
<style type="text/css">
	.st0{fill:#036EAD;}
	.st1{fill:none;}
	.st2{enable-background:new    ;}
	.st3{fill:#FFFFFF;}
</style>
<g>
	<rect class="st0" width="1200" height="300.3"/>
</g>
<rect x="323" y="100" class="st1" width="830" height="167"/>
<g class="st2">
	<path class="st3" d="M359.5,254.3h-19.3L322.8,187h16.3l11.3,52.2l11.8-52.2h15.2L359.5,254.3z"/>
	<path class="st3" d="M419.9,229.5c0,4.2-0.5,7.9-1.6,11.1c-1.1,3.2-2.5,5.9-4.5,8.1s-4.2,3.8-6.9,4.9c-2.7,1.1-5.7,1.7-8.9,1.7
		c-3.3,0-6.3-0.5-9-1.6c-2.7-1.1-5-2.7-6.9-4.8c-1.9-2.1-3.4-4.8-4.4-8s-1.6-7-1.6-11.3c0-4.5,0.6-8.3,1.7-11.6
		c1.1-3.3,2.6-6,4.6-8.1c2-2.1,4.3-3.7,6.9-4.8c2.7-1,5.5-1.6,8.6-1.6c3.3,0,6.3,0.5,9,1.6c2.7,1.1,5,2.7,6.9,4.9s3.4,4.9,4.4,8.1
		C419.4,221.4,419.9,225.2,419.9,229.5z M406,229.4c0-2.2-0.2-4.3-0.5-6.1c-0.3-1.8-0.8-3.4-1.4-4.8c-0.7-1.3-1.5-2.4-2.5-3.1
		c-1-0.7-2.2-1.1-3.6-1.1c-1.4,0-2.6,0.4-3.6,1.1c-1,0.7-1.8,1.8-2.5,3.1c-0.7,1.3-1.1,2.9-1.4,4.8c-0.3,1.8-0.5,3.9-0.5,6.1
		c0,2.2,0.1,4.3,0.4,6.1c0.3,1.8,0.8,3.3,1.4,4.6c0.7,1.3,1.5,2.3,2.5,3c1,0.7,2.2,1,3.6,1c1.4,0,2.6-0.3,3.6-1c1-0.7,1.8-1.7,2.5-3
		c0.7-1.3,1.1-2.8,1.4-4.6C405.9,233.7,406,231.7,406,229.4z"/>
	<path class="st3" d="M428.5,254.3V187H443v67.3H428.5z"/>
	<path class="st3" d="M499,209.7c0,3.9-0.6,7.3-1.9,10.2c-1.3,2.9-3,5.3-5.3,7.3c-2.1,1.9-4.7,3.2-7.6,4c-2.9,0.7-6.1,1.1-9.5,1.1
		h-4.8v22h-14.5V187h19.2c4,0,7.5,0.4,10.6,1.3c3.1,0.8,5.7,2.3,7.9,4.3c2.1,1.9,3.6,4.3,4.5,7C498.5,202.4,499,205.7,499,209.7z
		 M484.4,209.7c0-2.2-0.3-4.1-0.9-5.5s-1.3-2.5-2.1-3.2c-0.8-0.9-1.8-1.5-3.1-1.8c-1.3-0.3-2.7-0.5-4.1-0.5h-4.2v22h3.7
		c3.5,0,6-0.7,7.6-2.2c0.9-0.8,1.7-1.9,2.3-3.3S484.4,211.9,484.4,209.7z"/>
</g>
<g id="XMLID_4082_">
	<path id="XMLID_4088_" class="st3" d="M224.9,82.8c9.5,0,17.2,8.6,17.2,19.2s-7.7,19.2-17.2,19.2c-9.4,0-17.2-8.6-17.2-19.2
		S215.4,82.8,224.9,82.8z"/>
	<path id="XMLID_4083_" class="st3" d="M57.2,40.7h79.9c12.7,0,23,11.7,23,26.1v16h15.3V62.1c0-14.4,10.3-26.1,23-26.1h52.8
		c12.7,0,23,11.7,23,26.1v187.5c0,14.4-10.3,26.1-23,26.1h-52.8c-12.7,0-23-11.7-23-26.1V110.8h-15.3v11.6c0,14.4-10.3,26.1-23,26.1
		H57.2c-12.7,0-23-11.7-23-26.1V66.8C34.2,52.4,44.5,40.7,57.2,40.7z M201.6,249.4H252c4.8,0,8.7-4.4,8.7-9.9s-3.9-9.9-8.7-9.9
		h-50.4c-4.8,0-8.7,4.4-8.7,9.9C192.9,245,196.8,249.4,201.6,249.4z M224.9,143c20.1,0,36.4-18.4,36.4-41c0-22.7-16.3-41-36.4-41
		c-20,0-36.3,18.4-36.3,41C188.5,124.6,204.8,143,224.9,143z M53.4,122.4c0,2.4,1.7,4.3,3.8,4.3h79.9c2.1,0,3.8-1.9,3.8-4.3V66.8
		c0-2.4-1.7-4.3-3.8-4.3H57.2c-2.1,0-3.8,1.9-3.8,4.3V122.4z"/>
</g>
</svg>
