<?xml version="1.0" encoding="utf-8"?>
<!-- Generator: Adobe Illustrator 21.1.0, SVG Export Plug-In . SVG Version: 6.00 Build 0)  -->
<svg version="1.1" id="Layer_1" xmlns="http://www.w3.org/2000/svg" xmlns:xlink="http://www.w3.org/1999/xlink" x="0px" y="0px"
	 viewBox="0 0 400 300" enable-background="new 0 0 400 300" xml:space="preserve">
<g>
	<rect fill="#036EAD" width="400" height="300"/>
</g>
<path fill="#FFFFFF" d="M314,142.6c1.8-6.6,3.1-13.6,3.4-20.9c2.7-48.5-30.7-90.3-74.6-93.6c-35.7-2.6-67.4,21.3-79.4,56.4
	c-9.5-7.7-21.3-12.3-34-12.3c-31.4,0-56.9,27.8-56.9,62.1c0,5.3,0.6,10.6,1.8,15.5c-25.8,4.3-45.5,29.4-45.5,59.8
	c0,33.4,24,60.4,53.3,60.4c3.6,0,225.8,0,229.5,0c32.2,0,58.3-28.5,58.3-63.8C370.1,172,345.2,144,314,142.6z M166,226.6
	c-7.6,0-13.8-5.9-13.8-13.1c0-7.3,6.2-13.1,13.8-13.1c7.6,0,13.8,5.9,13.8,13.1C179.8,220.7,173.6,226.6,166,226.6z M196.9,224.6
	c0-22.9-18.7-41.4-41.8-41.4v-23.9c36.4,0,66,29.3,66,65.4H196.9z M240.4,224.6c0-0.7,0.1-1.3,0.1-2c0-44.8-37.1-81.1-82.9-81.1
	c-1,0-2.1,0-3.1,0.1V114c62,0,112.3,49.5,112.3,110.6H240.4z"/>
</svg>
