<?xml version="1.0" encoding="utf-8"?>
<!-- Generator: Adobe Illustrator 21.1.0, SVG Export Plug-In . SVG Version: 6.00 Build 0)  -->
<svg version="1.1" id="Layer_1" xmlns="http://www.w3.org/2000/svg" xmlns:xlink="http://www.w3.org/1999/xlink" x="0px" y="0px"
	 viewBox="0 0 400 300" enable-background="new 0 0 400 300" xml:space="preserve">
<g>
	<rect fill="#036EAD" width="400" height="300"/>
</g>
<g>
	<path fill="#FFFFFF" d="M158.7,157c-9.3,5.9-12.2,18.2-6.3,27.5c5.9,9.3,18.2,12.2,27.5,6.3c9.3-5.8,12.2-18.2,6.3-27.5
		C180.4,154,168.1,151.1,158.7,157z"/>
	<path fill="#FFFFFF" d="M243,182.5c-5.4,3.3-7.2,10.4-3.9,15.8c3.3,5.4,10.4,7.2,15.8,3.9c5.4-3.3,7.2-10.3,3.9-15.8
		C255.5,181,248.4,179.3,243,182.5z"/>
	<path fill="#FFFFFF" d="M304.1,145.8c1.6-6,2.8-12.3,3.1-19c2.5-44.1-27.9-82.1-67.8-85.1C207,39.4,178.1,61.1,167.3,93
		c-8.7-7-19.4-11.2-30.9-11.2c-28.5,0-51.7,25.3-51.7,56.5c0,4.9,0.6,9.6,1.6,14.1c-23.4,3.9-41.4,26.7-41.4,54.4
		c0,30.3,21.8,55,48.5,55c3.3,0,205.3,0,208.6,0c29.3,0,53-25.9,53-58C355.1,172.5,332.4,147.1,304.1,145.8z M210.8,200.7l-8.8-2.2
		c-1.7,2.3-3.7,4.4-5.9,6.3l2.8,8.6c-1.1,0.8-2.2,1.6-3.4,2.4c-1.2,0.7-2.4,1.4-3.7,2l-6.5-6.3c-2.7,1.2-5.5,2-8.3,2.5l-1.9,8.9
		c-2.8,0.3-5.6,0.4-8.3,0.3l-2.5-8.7c-2.9-0.3-5.7-1-8.4-1.9l-6,6.7c-2.6-1.1-5-2.4-7.4-3.9l2.2-8.8c-2.3-1.7-4.4-3.7-6.3-5.9
		l-8.6,2.8c-0.8-1.1-1.6-2.2-2.4-3.4c-0.7-1.2-1.4-2.4-2.1-3.6l6.3-6.5c-1.1-2.7-2-5.5-2.5-8.3l-8.8-1.9c-0.4-2.8-0.4-5.5-0.3-8.3
		l8.7-2.5c0.3-2.9,1-5.7,1.9-8.4l-6.7-6.1c1.1-2.5,2.4-5,3.9-7.4l8.8,2.2c1.7-2.3,3.7-4.4,5.9-6.3l-2.8-8.6c1.1-0.8,2.2-1.6,3.4-2.4
		c1.2-0.8,2.4-1.4,3.6-2l6.5,6.3c2.7-1.2,5.5-2,8.3-2.5l1.9-8.8c2.8-0.3,5.6-0.4,8.3-0.3l2.5,8.7c2.9,0.4,5.7,1,8.4,1.9l6-6.7
		c2.6,1.1,5,2.4,7.4,3.9l-2.2,8.8c2.3,1.7,4.4,3.7,6.3,5.9l8.6-2.8c0.8,1.1,1.6,2.2,2.4,3.4c0.7,1.2,1.4,2.4,2,3.6l-6.3,6.5
		c1.2,2.7,2,5.5,2.5,8.3l8.9,1.9c0.3,2.8,0.4,5.6,0.3,8.3l-8.7,2.5c-0.3,2.9-1,5.7-1.9,8.4l6.7,6.1
		C213.7,195.8,212.3,198.3,210.8,200.7z M278.1,203.5l-6.7,0.7c-1.2,2.2-2.7,4.3-4.5,6.1l1.3,6.6c-1,0.8-2,1.5-3.1,2.2
		c-1.1,0.7-2.2,1.3-3.4,1.8l-5.2-4.3c-2.5,0.8-5,1.2-7.5,1.2l-3.7,5.7c-2.5-0.3-5-0.9-7.4-1.8l-0.7-6.7c-2.2-1.2-4.3-2.7-6.2-4.5
		l-6.6,1.4c-0.8-1-1.5-2-2.2-3.2c-0.7-1.1-1.2-2.3-1.8-3.4l4.3-5.2c-0.8-2.5-1.1-5-1.1-7.5l-5.6-3.8c0.3-2.5,0.9-5,1.8-7.4l6.7-0.7
		c1.2-2.2,2.7-4.3,4.5-6.1l-1.4-6.6c1-0.8,2-1.5,3.1-2.2c1.1-0.7,2.2-1.2,3.4-1.8l5.2,4.3c2.5-0.8,5-1.1,7.5-1.1l3.7-5.7
		c2.5,0.3,5,0.9,7.4,1.8l0.7,6.7c2.2,1.2,4.3,2.7,6.2,4.5l6.6-1.3c0.8,1,1.5,2,2.2,3.1c0.7,1.1,1.2,2.2,1.8,3.4l-4.3,5.2
		c0.8,2.5,1.2,5,1.1,7.6l5.6,3.7C279.6,198.7,279,201.2,278.1,203.5z"/>
</g>
</svg>
