<?xml version="1.0" encoding="utf-8"?>
<!-- Generator: Adobe Illustrator 21.1.0, SVG Export Plug-In . SVG Version: 6.00 Build 0)  -->
<svg version="1.1" id="Layer_1" xmlns="http://www.w3.org/2000/svg" xmlns:xlink="http://www.w3.org/1999/xlink" x="0px" y="0px"
	 viewBox="0 0 400 300" enable-background="new 0 0 400 300" xml:space="preserve">
<g>
	<rect fill="#036EAD" width="400" height="300"/>
</g>
<g>
	<g>
		<path id="XMLID_631_" fill="#FFFFFF" d="M317,32H83.4c-12.6,0-23,10.3-23,23v153.2c0,12.6,10.3,23,23,23H317c12.6,0,23-10.3,23-23
			V55C340,42.3,329.7,32,317,32z M220.3,208.2h-40.2v-9h40.2V208.2z M320.9,189H79.6V55h241.3V189z"/>
		<path id="XMLID_630_" fill="#FFFFFF" d="M232.9,252l-10.3-13.8h-44.7L167.5,252h-36.1v4.6c0,5,4.7,9.2,10.3,9.2h117
			c5.7,0,10.3-4.1,10.3-9.2V252H232.9z"/>
	</g>
	<g id="XMLID_636_">
		<path id="XMLID_638_" fill="#FFFFFF" d="M140.3,106.9v52c0,4.8,4.5,8.7,10,8.7h49.9h49.9c5.5,0,10-3.9,10-8.7v-52
			c-10.4,7-49.7,33-59.9,34.5C190,139.9,150.7,113.9,140.3,106.9z"/>
		<path id="XMLID_637_" fill="#FFFFFF" d="M250.1,77.6h-49.9h-49.9c-5.5,0-10,3.9-10,8.7v6.2c10.6,7,51.5,34,59.9,35.9
			c8.4-1.9,49.3-28.9,59.9-35.9v-6.2C260.1,81.5,255.6,77.6,250.1,77.6z"/>
	</g>
</g>
</svg>
