<?xml version="1.0" encoding="utf-8"?>
<!-- Generator: Adobe Illustrator 21.1.0, SVG Export Plug-In . SVG Version: 6.00 Build 0)  -->
<svg version="1.1" id="Layer_1" xmlns="http://www.w3.org/2000/svg" xmlns:xlink="http://www.w3.org/1999/xlink" x="0px" y="0px"
	 viewBox="0 0 400 300" enable-background="new 0 0 400 300" xml:space="preserve">
<g>
	<rect fill="#036EAD" width="400" height="300"/>
</g>
<g>
	<rect x="195.2" y="206.5" fill="#FFFFFF" width="55.7" height="11"/>
	<polygon fill="#FFFFFF" points="188.9,202 180.7,193.6 166.7,207.1 157.5,197.6 148.9,206 163.9,221.5 164,221.4 166.3,223.8 	"/>
	<path fill="#FFFFFF" d="M267,68.7H132.7c-12.1,0-22,9.2-22,20.6V251c0,11.3,9.9,20.6,22,20.6H267c12.1,0,22-9.2,22-20.6V89.2
		C289,77.9,279.1,68.7,267,68.7z M267.1,243.5c0,2-1.8,3.6-3.9,3.6H136.6c-2.1,0-3.9-1.6-3.9-3.6V96.7c0-2,1.8-3.6,3.9-3.6h126.6
		c2.1,0,3.9,1.6,3.9,3.6V243.5z"/>
	<rect x="194.7" y="124.9" fill="#FFFFFF" width="55.7" height="11"/>
	<polygon fill="#FFFFFF" points="188.4,120.4 180.2,112 166.3,125.5 157.1,116 148.4,124.4 163.4,139.9 163.5,139.8 165.8,142.2 	
		"/>
	<rect x="195.2" y="164.8" fill="#FFFFFF" width="55.7" height="11"/>
	<polygon fill="#FFFFFF" points="188.9,160.3 180.7,151.9 166.7,165.4 157.5,155.9 148.9,164.3 163.9,179.8 164,179.7 166.3,182.1 	
		"/>
	<rect x="143" y="52" fill="#FFFFFF" width="118.2" height="9.1"/>
	<path fill="#FFFFFF" d="M203.6,38.8c9.8,0,17.8,8,17.8,17.8h10.8c0-15.7-12.8-28.6-28.6-28.6S175,40.8,175,56.6h10.8
		C185.8,46.8,193.8,38.8,203.6,38.8z"/>
</g>
</svg>
