<?xml version="1.0" encoding="utf-8"?>
<!-- Generator: Adobe Illustrator 21.1.0, SVG Export Plug-In . SVG Version: 6.00 Build 0)  -->
<svg version="1.1" id="Layer_1" xmlns="http://www.w3.org/2000/svg" xmlns:xlink="http://www.w3.org/1999/xlink" x="0px" y="0px"
	 viewBox="0 0 400 300" enable-background="new 0 0 400 300" xml:space="preserve">
<g>
	<rect fill="#036EAD" width="400" height="300"/>
</g>
<g id="XMLID_202_">
	<rect id="XMLID_207_" x="138.6" y="36.3" fill="#FFFFFF" width="120.2" height="92.6"/>
	<path id="XMLID_206_" fill="#FFFFFF" d="M128.6,203.1V247h-59v-43.9H128.6 M131.4,189.2H66.8c-6.1,0-11.1,5-11.1,11.1v49.4
		c0,6.1,5,11.1,11.1,11.1h64.5c6.1,0,11.1-5,11.1-11.1v-49.4C142.5,194.2,137.5,189.2,131.4,189.2L131.4,189.2z"/>
	<path id="XMLID_205_" fill="#FFFFFF" d="M230.3,203.1V247h-59v-43.9H230.3 M233.1,189.2h-64.5c-6.1,0-11.1,5-11.1,11.1v49.4
		c0,6.1,5,11.1,11.1,11.1h64.5c6.1,0,11.1-5,11.1-11.1v-49.4C244.2,194.2,239.2,189.2,233.1,189.2L233.1,189.2z"/>
	<path id="XMLID_204_" fill="#FFFFFF" d="M330.1,203.1V247h-59v-43.9H330.1 M332.9,189.2h-64.5c-6.1,0-11.1,5-11.1,11.1v49.4
		c0,6.1,5,11.1,11.1,11.1h64.5c6.1,0,11.1-5,11.1-11.1v-49.4C344,194.2,339,189.2,332.9,189.2L332.9,189.2z"/>
	<path id="XMLID_203_" fill="#FFFFFF" d="M307.2,156c0-3.4-2.8-6.1-6.1-6.1h-93.9V143c0-3.5-2.8-6.3-6.3-6.3c-3.5,0-6.3,2.8-6.3,6.3
		v6.9H97.8c-3.4,0-6.1,2.8-6.1,6.1v1.2l0,18.5c0,3.5,2.8,6.3,6.3,6.3c3.5,0,6.3-2.8,6.3-6.3v-9.3h90.2v6.5c0,3.5,2.8,6.3,6.3,6.3
		c3.5,0,6.3-2.8,6.3-6.3v-6.5h87.1v9.3c0,3.5,2.8,6.3,6.3,6.3c3.5,0,6.3-2.8,6.3-6.3V162c0.2-0.5,0.3-1.1,0.3-1.7V156z"/>
</g>
</svg>
