<?xml version="1.0" encoding="utf-8"?>
<!-- Generator: Adobe Illustrator 21.1.0, SVG Export Plug-In . SVG Version: 6.00 Build 0)  -->
<svg version="1.1" id="Layer_1" xmlns="http://www.w3.org/2000/svg" xmlns:xlink="http://www.w3.org/1999/xlink" x="0px" y="0px"
	 viewBox="0 0 400 300" enable-background="new 0 0 400 300" xml:space="preserve">
<g>
	<rect fill="#036EAD" width="400" height="300"/>
</g>
<g>
	<g>
		<polygon id="XMLID_472_" fill="#FFFFFF" points="226,219.5 226,227.8 200.1,227.8 174.1,227.8 174.1,219.5 42.1,219.5 59.6,249.3 
			200.1,249.3 340.5,249.3 358,219.5 		"/>
		<path fill="#FFFFFF" d="M101.4,204.4V73.6h199.4v130.8h25.9V62.5c0-7.7-6.2-14-13.9-14H89.4c-7.6,0-13.9,6.3-13.9,14v141.9H101.4z
			"/>
	</g>
	<path fill="#FFFFFF" d="M249.7,177.7l-22.4-21.6c2.9-6.6,4.3-13.8,3.8-21.1c-1.4-24.1-20.9-42.9-43.7-41.9
		c-10.6,0.5-20.4,5.1-27.6,13.2c-7.8,8.6-11.8,20.5-11.1,32.5c1.4,24.1,21,42.9,43.8,41.9c6.8-0.3,13.4-2.4,19.2-6.1l22.1,21.3
		c1.1,1.1,2.6,1.7,4.2,1.7c0.1,0,0.2,0,0.2,0c1.6-0.1,3.2-0.8,4.2-2.1l7.8-9.3C252.2,183.8,252,180,249.7,177.7z M168.4,137.7
		c-0.4-6.4,1.8-12.7,5.9-17.3c3.7-4.1,8.8-6.5,14.1-6.8c11.9-0.5,22.1,9.5,22.9,22.3c0.4,6.4-1.8,12.7-5.9,17.3
		c-3.7,4.1-8.8,6.5-14.1,6.8C179.5,160.6,169.1,150.5,168.4,137.7z"/>
</g>
</svg>
