<?xml version="1.0" encoding="utf-8"?>
<!-- Generator: Adobe Illustrator 21.1.0, SVG Export Plug-In . SVG Version: 6.00 Build 0)  -->
<svg version="1.1" id="Layer_1" xmlns="http://www.w3.org/2000/svg" xmlns:xlink="http://www.w3.org/1999/xlink" x="0px" y="0px"
	 viewBox="0 0 400 300" enable-background="new 0 0 400 300" xml:space="preserve">
<g>
	<rect fill="#036EAD" width="400" height="300"/>
</g>
<g>
	<path id="XMLID_157_" fill="#FFFFFF" d="M325.9,120.1l-34.1-25.2V47h-42v16.8l-47.9-35.4l-0.3-0.5l-0.1,0.1l-0.1-0.1l-0.3,0.5
		l-124,91.7h-1.1v29.5h18.6v105.8l1.9,18.5h215.1l-1.9-18.5h-1V149.6H327v-29.5H325.9z M221.7,255.4v-34.9h-42.4v34.9H111V149.6
		v-7.7L201.4,75l90.4,66.9v7.7v105.8H221.7z"/>
	<g>
		<rect x="131.8" y="140.6" fill="#FFFFFF" width="34" height="27.7"/>
		<rect x="184.1" y="140.6" fill="#FFFFFF" width="34" height="27.7"/>
		<rect x="236.2" y="140" fill="#FFFFFF" width="34" height="27.7"/>
	</g>
	<g>
		<rect x="132" y="178.8" fill="#FFFFFF" width="34" height="27.7"/>
		<rect x="184.3" y="178.8" fill="#FFFFFF" width="34" height="27.7"/>
		<rect x="236.3" y="178.3" fill="#FFFFFF" width="34" height="27.7"/>
	</g>
</g>
</svg>
