<?xml version="1.0" encoding="utf-8"?>
<!-- Generator: Adobe Illustrator 21.1.0, SVG Export Plug-In . SVG Version: 6.00 Build 0)  -->
<svg version="1.1" id="Layer_1" xmlns="http://www.w3.org/2000/svg" xmlns:xlink="http://www.w3.org/1999/xlink" x="0px" y="0px"
	 viewBox="0 0 400 300" enable-background="new 0 0 400 300" xml:space="preserve">
<g>
	<rect fill="#036EAD" width="400" height="300"/>
</g>
<g>
	<path fill="#FFFFFF" d="M286.3,104.1c-5.3,5.4-14.1,5.5-19.5,0.1l-22.4-22.1c-5.4-5.3-5.5-14.1-0.1-19.5l33.3-33.8
		c-4.8-1.2-9.9-1.8-15-1.8c-34,0-61.6,26.4-61.6,59c0,6.6,1.2,13,3.2,18.9L98.2,221.3c-5.6,4.9-9.1,12-9.1,19.9
		c0,14.9,12.5,27.1,27.9,27.1c7.8,0,14.8-3.1,19.8-8l107.3-117.9c5.8,1.7,11.9,2.6,18.2,2.6c34,0,61.6-26.4,61.6-59
		c0-6.1-1-11.9-2.7-17.5L286.3,104.1z M117.7,250.4c-6,0-10.9-4.9-10.9-10.9c0-6,4.9-10.9,10.9-10.9c6,0,10.9,4.9,10.9,10.9
		C128.7,245.5,123.8,250.4,117.7,250.4z"/>
	<path fill="#FFFFFF" d="M302.7,220.2l-62.9-49.5l-28,28l48.4,64c9.8,9.8,25.9,9.8,35.8,0l6.7-6.7
		C312.5,246.2,312.5,230.1,302.7,220.2z"/>
	<polygon fill="#FFFFFF" points="171.8,120.8 123,72 124.4,70.5 119.4,53.7 102.4,36.7 75.9,63.2 92.9,80.2 109.7,85.2 111.2,83.8 
		160,132.6 	"/>
</g>
</svg>
