<?xml version="1.0" encoding="utf-8"?>
<!-- Generator: Adobe Illustrator 21.1.0, SVG Export Plug-In . SVG Version: 6.00 Build 0)  -->
<svg version="1.1" id="Layer_1" xmlns="http://www.w3.org/2000/svg" xmlns:xlink="http://www.w3.org/1999/xlink" x="0px" y="0px"
	 viewBox="0 0 400 300" enable-background="new 0 0 400 300" xml:space="preserve">
<g>
	<rect fill="#036EAD" width="400" height="300"/>
</g>
<g>
	<g>
		<polygon id="XMLID_473_" fill="#FFFFFF" points="229.1,226.8 229.1,236.1 200.1,236.1 171.2,236.1 171.2,226.8 24.3,226.8 
			43.7,260.1 200.1,260.1 356.6,260.1 376,226.8 		"/>
		<path fill="#FFFFFF" d="M90.3,210.1V64.4h222v145.6h28.8V52c0-8.6-7-15.6-15.4-15.6H76.9c-8.5,0-15.4,7-15.4,15.6v158H90.3z"/>
	</g>
	<g>
		<path fill="#FFFFFF" d="M224.1,110c0,14.9-12.1,30.2-23.2,30.2c-11.1,0-22.4-14.5-22.4-29.4s11.3-22.3,22.4-22.3
			C211.9,88.5,224.1,95.1,224.1,110z"/>
		<path fill="#FFFFFF" d="M201.3,165.3L181,141c0,0-1.5,0.6-2.2,0.9c-16.5,7-27.8,21.3-27.8,37.9c0,2.8,0.3,5.5,0.9,8.1
			c12.7,5.9,29.9,9.5,48.8,9.5c19.5,0,37.2-3.8,50-10c0.5-2.5,0.8-5,0.8-7.6c0-16.5-11.2-30.9-27.6-37.8c-0.5-0.2-1.6-0.7-1.6-0.7
			L201.3,165.3z"/>
	</g>
</g>
</svg>
