<?xml version="1.0" encoding="utf-8"?>
<!-- Generator: Adobe Illustrator 21.1.0, SVG Export Plug-In . SVG Version: 6.00 Build 0)  -->
<!DOCTYPE svg PUBLIC "-//W3C//DTD SVG 1.1//EN" "http://www.w3.org/Graphics/SVG/1.1/DTD/svg11.dtd">
<svg version="1.1" id="Layer_1" xmlns="http://www.w3.org/2000/svg" xmlns:xlink="http://www.w3.org/1999/xlink" x="0px" y="0px"
	 viewBox="0 0 150 28" enable-background="new 0 0 150 28" xml:space="preserve">
<g>
	<g>
		<path fill="#D02228" d="M33.5,24.7V2.4h4.8v18.1h7.1v4.2H33.5z"/>
		<path fill="#D02228" d="M47.7,24.7V2.4h12.4v4.1h-7.6V11h7v4.2h-7v5.3h7.8v4.2H47.7z"/>
		<path fill="#D02228" d="M74.7,8.6c-0.1-0.2-0.2-0.5-0.4-0.8C74.2,7.5,74,7.3,73.7,7c-0.3-0.2-0.6-0.4-0.9-0.6
			c-0.4-0.2-0.8-0.2-1.4-0.2s-1.1,0.1-1.6,0.4c-0.5,0.3-0.9,0.7-1.3,1.3c-0.4,0.6-0.7,1.3-0.9,2.3c-0.2,0.9-0.3,2.1-0.3,3.4
			s0.1,2.5,0.3,3.4c0.2,0.9,0.5,1.7,0.8,2.2c0.3,0.6,0.7,1,1.2,1.2c0.4,0.3,0.9,0.4,1.4,0.4c0.4,0,0.7,0,0.9-0.1
			c0.3-0.1,0.5-0.1,0.7-0.2c0.2-0.1,0.4-0.2,0.5-0.3c0.1-0.1,0.3-0.3,0.4-0.4v-3.8h-2.7v-3.7h7.6v12.5h-3.3L74.8,23
			c-0.2,0.2-0.4,0.5-0.7,0.7c-0.3,0.2-0.6,0.5-1,0.7c-0.4,0.2-0.8,0.4-1.3,0.5C71.3,25,70.7,25,70.1,25c-1.1,0-2.1-0.2-3-0.6
			c-0.9-0.4-1.8-1.1-2.5-2c-0.7-0.9-1.2-2.1-1.6-3.5c-0.4-1.4-0.6-3.2-0.6-5.2c0-2,0.2-3.7,0.7-5.2C63.5,7,64.2,5.8,65,4.8
			c0.8-1,1.8-1.7,2.9-2.1C68.9,2.2,70.1,2,71.4,2c0.8,0,1.6,0.1,2.2,0.2c0.7,0.2,1.2,0.4,1.7,0.6c0.5,0.3,0.9,0.5,1.3,0.9
			c0.4,0.3,0.7,0.6,0.9,1c0.2,0.3,0.4,0.6,0.6,0.9c0.1,0.3,0.3,0.5,0.4,0.7L74.7,8.6z"/>
		<path fill="#D02228" d="M93,24.7L91.9,20h-5.9l-1.2,4.7h-4.9l6-22.3h6.5l5.9,22.3H93z M88.9,6.8l-2.2,9.6H91L88.9,6.8z"/>
		<path fill="#D02228" d="M100.2,24.7V2.4h4.8v18.1h7.1v4.2H100.2z"/>
	</g>
	<rect x="118.2" y="2" fill="#413D3E" width="29.8" height="22.6"/>
	<g>
		<path fill="#FFFFFF" d="M127.6,6.5V22h-2.3V6.5h-4v-2h10.5v2H127.6z"/>
		<path fill="#FFFFFF" d="M139.9,22H137l-4.8-17.4h2.5l3.8,14.9l3.8-14.9h2.4L139.9,22z"/>
	</g>
	<path fill="#453E40" d="M15.8,22h-1.3c0.1-0.1,0.1-0.3,0.1-0.5c0-0.5-0.4-1-1-1H4.4c-0.5,0-1,0.4-1,1c0,0.2,0.1,0.3,0.1,0.5H2.3
		c-0.7,0-1.3,0.6-1.3,1.3c0,0.7,0.6,1.3,1.3,1.3h13.5c0.7,0,1.3-0.6,1.3-1.3C17.1,22.6,16.5,22,15.8,22z"/>
	<g>
		<path fill="#453E40" d="M19.2,7.3l-0.1,0.1c-0.2,0.3-0.6,0.3-0.9,0.1L13.6,4c-0.3-0.2-0.3-0.6-0.1-0.9L13.6,3
			c0.2-0.3,0.6-0.3,0.9-0.1l4.5,3.5C19.4,6.6,19.4,7,19.2,7.3z"/>
		<path fill="#453E40" d="M12.1,16.5L12,16.6c-0.2,0.3-0.6,0.3-0.9,0.1l-4.5-3.5c-0.3-0.2-0.3-0.6-0.1-0.9l0.1-0.1
			c0.2-0.3,0.6-0.3,0.9-0.1l4.5,3.5C12.3,15.8,12.3,16.2,12.1,16.5z"/>
		<g>
			
				<rect x="8.4" y="7.2" transform="matrix(0.6119 -0.7909 0.7909 0.6119 -2.8053 14.1041)" fill="#453E40" width="9.2" height="5.5"/>
			<path fill="#453E40" d="M15.9,11.5l9.8,7c0.5,0.3,0.5,1,0.2,1.5v0c-0.3,0.5-1,0.5-1.5,0.2l-9.2-7.7"/>
		</g>
	</g>
</g>
</svg>
