<?xml version="1.0" encoding="utf-8"?>
<!-- Generator: Adobe Illustrator 21.1.0, SVG Export Plug-In . SVG Version: 6.00 Build 0)  -->
<svg version="1.1" id="Layer_1" xmlns="http://www.w3.org/2000/svg" xmlns:xlink="http://www.w3.org/1999/xlink" x="0px" y="0px"
	 viewBox="0 0 400 300" enable-background="new 0 0 400 300" xml:space="preserve">
<g>
	<rect fill="#036EAD" width="400" height="300"/>
</g>
<g>
	<path fill="#FFFFFF" d="M211.9,203.4c0.3-2.3,0.8-4.5,1.5-6.6l-5.2-4.7c0.9-2,1.9-3.9,3.1-5.7l6.8,1.7c1.4-1.8,2.9-3.4,4.6-4.9
		l-2.2-6.7c1.7-1.3,3.6-2.4,5.5-3.4l5.1,4.9c2-0.9,4.2-1.5,6.4-2l1.5-6.9c1.1-0.1,2.1-0.2,3.2-0.3c1.1,0,2.2,0,3.3,0l1.9,6.8
		c2.3,0.3,4.5,0.8,6.6,1.5l4.7-5.2c2,0.9,3.9,1.9,5.7,3l-1.7,6.8c1.8,1.3,3.5,2.9,4.9,4.6l6.7-2.2c1.3,1.7,2.4,3.6,3.5,5.5l-4.9,5.1
		c0.9,2,1.5,4.2,2,6.4l6.9,1.5c0.1,1.1,0.2,2.1,0.3,3.2c0,1.1,0,2.2,0,3.3l-6.8,1.9c-0.3,2.3-0.8,4.5-1.5,6.6l5.2,4.7
		c-0.8,2-1.9,3.9-3,5.7l-6.8-1.7c-1.3,1.8-2.9,3.4-4.6,4.9l2.2,6.7c-1.7,1.3-3.6,2.4-5.5,3.4l-5.1-4.9c-2.1,0.9-4.2,1.5-6.4,2
		l-1.5,6.9c-1.1,0.1-2.1,0.2-3.2,0.3c-1.1,0-2.2,0-3.2,0l-1.9-6.8c-2.3-0.3-4.5-0.8-6.6-1.5l-4.7,5.2c-2-0.9-3.9-1.9-5.7-3.1
		l1.7-6.8c-1.8-1.4-3.4-2.9-4.9-4.6l-6.7,2.2c-1.3-1.7-2.5-3.5-3.4-5.5l4.9-5.1c-0.9-2-1.5-4.2-2-6.4l-6.9-1.5
		c-0.1-1.1-0.2-2.2-0.3-3.2c0-1.1,0-2.2,0-3.2L211.9,203.4z M228,207.7c0.3,8.6,7.5,15.3,16.1,15c8.6-0.3,15.3-7.5,15-16.1
		c-0.3-8.6-7.5-15.3-16.1-15C234.5,192,227.8,199.2,228,207.7 M172.8,164.2c0-1,0-2,0.1-3l4.9-1.8c0.4-2,1.2-3.8,2.2-5.5l-2.3-4.7
		c1.2-1.6,2.6-3,4.1-4.3l4.8,2.2c1.7-1,3.5-1.9,5.4-2.4l1.7-5c1-0.1,2-0.2,3-0.2c1,0,2,0,3,0.1l1.8,4.9c2,0.5,3.8,1.2,5.5,2.2
		l4.7-2.3c1.6,1.2,3,2.6,4.3,4.1l-2.2,4.8c1.1,1.7,1.9,3.5,2.4,5.5l5,1.6c0.1,1,0.2,2,0.2,3c0,1,0,2-0.1,3l-4.9,1.9
		c-0.4,2-1.2,3.8-2.2,5.5l2.3,4.7c-1.2,1.6-2.6,3-4.1,4.3l-4.8-2.2c-1.7,1-3.5,1.8-5.4,2.4l-1.7,5c-1,0.1-2,0.2-3,0.2
		c-1,0-2,0-3-0.1l-1.9-4.9c-2-0.5-3.8-1.2-5.5-2.2l-4.7,2.4c-1.6-1.2-3-2.6-4.3-4.1l2.2-4.8c-1-1.7-1.8-3.5-2.4-5.4l-5-1.7
		C172.9,166.2,172.9,165.2,172.8,164.2 M188.2,163.9c0.1,4.9,4.2,8.9,9.1,8.8c4.9-0.1,8.9-4.2,8.8-9.1c-0.1-4.9-4.2-8.9-9.1-8.8
		C192.1,154.9,188.1,158.9,188.2,163.9"/>
	<g>
		<path fill="#FFFFFF" d="M269.9,27H149.3c-13.3,0-44.2,22.8-44.2,52.3v32.2v6.7v128.6c0,13.3,10.9,24.1,24.1,24.1h48.2h92.4
			c13.3,0,24.1-10.9,24.1-24.1V138.2v-14.7V51.1C294,37.9,283.2,27,269.9,27z M274.9,123.5v14.7v101.5c0,11.4-4,11.3-13.8,11.3
			h-83.7H138c-9.8,0-13.8,0-13.8-11.3V111.4h-0.4V89.3c0-0.8,0.1-1.7,0.4-2.6h33.1V46.8h103.8c9.8,0,13.8,0,13.8,11.3V123.5z"/>
	</g>
</g>
</svg>
