<?xml version="1.0" encoding="utf-8"?>
<!-- Generator: Adobe Illustrator 21.1.0, SVG Export Plug-In . SVG Version: 6.00 Build 0)  -->
<svg version="1.1" id="Layer_1" xmlns="http://www.w3.org/2000/svg" xmlns:xlink="http://www.w3.org/1999/xlink" x="0px" y="0px"
	 viewBox="0 0 400 300" enable-background="new 0 0 400 300" xml:space="preserve">
<g>
	<rect fill="#036EAD" width="400" height="300"/>
</g>
<g>
	<path fill="#FFFFFF" d="M319.8,195.8h-6.9V170c0-18.5-15.9-33.6-35.4-33.6s-35.4,15.1-35.4,33.6v25.8h-6.9
		c-8.3,0-15.2,6.5-15.2,14.4v44.4c0,7.9,6.8,14.4,15.2,14.4h84.7c8.3,0,15.2-6.5,15.2-14.4v-44.4C335,202.3,328.2,195.8,319.8,195.8
		z M268.7,167.6c0-4.6,4-8.4,8.8-8.4s8.8,3.8,8.8,8.4v28.2h-17.7V167.6z M286.4,230.9v14.1c0,4.6-4,8.4-8.8,8.4s-8.8-3.8-8.8-8.4
		v-14.1c-2.7-2.3-4.4-5.6-4.4-9.3c0-7,5.9-12.6,13.3-12.6s13.3,5.6,13.3,12.6C290.8,225.3,289.1,228.6,286.4,230.9z"/>
	<path fill="#FFFFFF" d="M255.4,27.4H77.2c-6.9,0-12.6,5.4-12.6,12v49.1c0,6.6,5.7,12,12.6,12h178.2c6.9,0,12.6-5.4,12.6-12V39.3
		C268,32.8,262.3,27.4,255.4,27.4z M89.6,74.1c-5.9,0-10.7-4.6-10.7-10.2s4.8-10.2,10.7-10.2c5.9,0,10.7,4.6,10.7,10.2
		S95.5,74.1,89.6,74.1z M121.8,74.1c-5.9,0-10.7-4.6-10.7-10.2s4.8-10.2,10.7-10.2c5.9,0,10.7,4.6,10.7,10.2S127.7,74.1,121.8,74.1z
		 M245.3,77.1c0,2.6-2.3,4.8-5.1,4.8h-74.5c-2.8,0-5.1-2.2-5.1-4.8V50.7c0-2.6,2.3-4.8,5.1-4.8h74.5c2.8,0,5.1,2.2,5.1,4.8V77.1z"/>
	<g>
		<path fill="#FFFFFF" d="M206.1,252.4h-40.4c-2.8,0-5.1-2.2-5.1-4.8v-26.4c0-2.6,2.3-4.8,5.1-4.8h40.4v-18.6H77.2
			c-6.9,0-12.6,5.4-12.6,12V259c0,6.6,5.7,12,12.6,12h128.9V252.4z M89.6,244.6c-5.9,0-10.7-4.6-10.7-10.2c0-5.6,4.8-10.2,10.7-10.2
			c5.9,0,10.7,4.6,10.7,10.2C100.3,240.1,95.5,244.6,89.6,244.6z M121.8,244.6c-5.9,0-10.7-4.6-10.7-10.2c0-5.6,4.8-10.2,10.7-10.2
			c5.9,0,10.7,4.6,10.7,10.2C132.5,240.1,127.7,244.6,121.8,244.6z"/>
		<path fill="#FFFFFF" d="M77.2,186.5H227V170c0-0.7,0.1-1.4,0.1-2.1h-17.2h-44.2c-2.8,0-5.1-2.2-5.1-4.8v-26.4
			c0-2.6,2.3-4.8,5.1-4.8h74.5c1.7,0,3.2,0.8,4.1,2c6.6-5.4,14.6-9.3,23.4-11c-1.2-5.5-6.3-9.6-12.4-9.6H77.2
			c-6.9,0-12.6,5.4-12.6,12v49.1C64.6,181.1,70.3,186.5,77.2,186.5z M121.8,139.8c5.9,0,10.7,4.6,10.7,10.2
			c0,5.6-4.8,10.2-10.7,10.2c-5.9,0-10.7-4.6-10.7-10.2C111,144.3,115.9,139.8,121.8,139.8z M89.6,139.8c5.9,0,10.7,4.6,10.7,10.2
			c0,5.6-4.8,10.2-10.7,10.2c-5.9,0-10.7-4.6-10.7-10.2C78.8,144.3,83.6,139.8,89.6,139.8z"/>
	</g>
</g>
</svg>
