<?xml version="1.0" encoding="utf-8"?>
<!-- Generator: Adobe Illustrator 21.1.0, SVG Export Plug-In . SVG Version: 6.00 Build 0)  -->
<svg version="1.1" id="Layer_1" xmlns="http://www.w3.org/2000/svg" xmlns:xlink="http://www.w3.org/1999/xlink" x="0px" y="0px"
	 viewBox="0 0 400 300" enable-background="new 0 0 400 300" xml:space="preserve">
<g>
	<rect fill="#036EAD" width="400" height="300"/>
</g>
<g>
	<path fill="#FFFFFF" d="M285.5,146.9l14.6-0.7l-1.1-22.3l-14.6,0.7c-1.5-5.4-3.9-10.5-7.2-15.2l9.8-10.8l-16.5-15l-9.8,10.8
		c-5-2.8-10.4-4.7-15.9-5.6l-0.7-14.6l-2.4,0.1V58.8c0-16.4-13.4-29.8-29.8-29.8h-82c-16.4,0-29.8,13.4-29.8,29.8v178.9
		c0,16.4,13.4,29.8,29.8,29.8h82c16.4,0,29.8-13.4,29.8-29.8v-36.2l8.6-0.4l-0.7-14.6c5.3-1.5,10.5-3.9,15.2-7.2l10.9,9.8l14.9-16.5
		l-10.8-9.8C282.6,157.8,284.5,152.4,285.5,146.9z M188.9,248.2h-36v-8.7h36V248.2z M113.7,232.7V63.8H228V75l-6.2,0.3l0.7,14.6
		c-5.3,1.5-10.5,3.9-15.2,7.2l-10.8-9.8l-15,16.5l10.9,9.8c-2.8,5-4.7,10.4-5.7,15.8l-14.6,0.7l1.1,22.3l14.6-0.7
		c1.5,5.3,3.9,10.5,7.2,15.2l-9.8,10.9l16.5,14.9l9.8-10.8c5,2.8,10.4,4.7,15.9,5.6l0.7,13.9v31.2H113.7z M263.4,162.9
		c-13.7,15.1-36.9,16.2-52,2.6c-15.1-13.6-16.2-36.9-2.6-51.9c13.6-15.1,36.9-16.2,51.9-2.6C275.9,124.6,277,147.8,263.4,162.9z"/>
	<path fill="#FFFFFF" d="M225,128.2c-5.5,6.1-5,15.6,1.1,21.1c6.1,5.6,15.6,5.1,21.1-1c5.6-6.1,5.1-15.6-1-21.1
		C240,121.6,230.6,122,225,128.2z"/>
</g>
</svg>
