<?xml version="1.0" encoding="utf-8"?>
<!-- Generator: Adobe Illustrator 21.1.0, SVG Export Plug-In . SVG Version: 6.00 Build 0)  -->
<svg version="1.1" id="Layer_1" xmlns="http://www.w3.org/2000/svg" xmlns:xlink="http://www.w3.org/1999/xlink" x="0px" y="0px"
	 viewBox="0 0 400 300" enable-background="new 0 0 400 300" xml:space="preserve">
<g>
	<rect fill="#036EAD" width="400" height="300"/>
</g>
<g id="XMLID_270_">
	<path id="XMLID_273_" fill="#FFFFFF" d="M134.8,221.2v48.6h129.5v-48.6v-32.4H134.8V221.2z M151,205h97.1v16.2H151V205z M151,237.4
		h97.1v16.2H151V237.4z"/>
	<polygon id="XMLID_272_" fill="#FFFFFF" points="264.3,75.5 264.3,27 134.8,27 134.8,75.5 134.8,107.9 264.3,107.9 	"/>
	<path id="XMLID_271_" fill="#FFFFFF" d="M296.6,75.5h-16.2v32.4v16.2H118.6v-16.2V75.5h-16.2C86.2,75.5,70,91.7,70,107.9v80.9
		c0,16.2,16.2,32.4,32.4,32.4h16.2v-32.4v-16.2h161.8v16.2v32.4h16.2c16.2,0,32.4-16.2,32.4-32.4v-80.9
		C329,91.7,312.8,75.5,296.6,75.5z"/>
</g>
</svg>
