<?xml version="1.0" encoding="utf-8"?>
<!-- Generator: Adobe Illustrator 21.1.0, SVG Export Plug-In . SVG Version: 6.00 Build 0)  -->
<svg version="1.1" id="Layer_1" xmlns="http://www.w3.org/2000/svg" xmlns:xlink="http://www.w3.org/1999/xlink" x="0px" y="0px"
	 viewBox="0 0 400 300" enable-background="new 0 0 400 300" xml:space="preserve">
<g>
	<rect fill="#036EAD" width="400" height="300"/>
</g>
<g>
	<path id="XMLID_556_" fill="#FFFFFF" d="M281.9,58.7c-65.9,0-77.1-28-77.2-28.3c-0.5-1.4-1.7-2.3-3-2.3c0,0,0,0-0.1,0
		c-1.3,0-2.5,0.9-3,2.3c-0.1,0.3-11.5,28.4-77.2,28.4c-1.8,0-3.3,1.7-3.3,3.7l0,113c0,51.5,78.8,90.8,82.2,92.5
		c0.4,0.2,0.9,0.3,1.3,0.3c0.4,0,0.9-0.1,1.3-0.3c3.4-1.7,82.2-41,82.2-92.5l0-113C285.1,60.3,283.7,58.7,281.9,58.7z M267,168
		c0,40.3-61.7,71.1-64.3,72.4c-0.3,0.2-0.7,0.2-1,0.2c-0.4,0-0.7-0.1-1-0.2c-2.6-1.3-64.3-32.1-64.3-72.4l0-85.7
		c0-1.6,1.1-2.9,2.6-2.9c51.4,0,60.3-22,60.4-22.2c0.4-1.1,1.4-1.8,2.4-1.8c0,0,0,0,0,0c1.1,0,2,0.7,2.4,1.8
		c0.1,0.2,8.8,22.2,60.4,22.2c1.4,0,2.6,1.3,2.6,2.9L267,168z"/>
</g>
<path fill="#FFFFFF" d="M239.5,141l10.2-6.5l-2.6-8.8l-12.1,0.2c-2.2-4.1-5.2-7.7-8.8-10.7l2.6-11.9l-8.1-4.4l-8.5,8.7
	c-4.6-1.3-9.3-1.8-13.8-1.4L192,95.9l-8.8,2.6l0.2,12.2c-4,2.2-7.7,5.2-10.7,8.7l-11.9-2.7l-4.4,8.1l8.7,8.5
	c-1.4,4.6-1.8,9.3-1.4,13.8l-10.2,6.5l2.6,8.8l12.2-0.2c2.2,4.1,5.2,7.7,8.8,10.8l-2.6,11.8l8.1,4.4l8.4-8.7
	c4.6,1.3,9.2,1.8,13.7,1.4l6.5,10.2l8.8-2.6l-0.2-12.1c4.1-2.2,7.7-5.2,10.8-8.8l11.8,2.6l4.4-8.1l-8.7-8.4
	C239.5,150.2,239.9,145.5,239.5,141z M201.2,155.2c-6.1-0.3-10.9-5.4-10.6-11.6c0.3-6.1,5.4-10.9,11.6-10.6
	c6.1,0.3,10.9,5.4,10.6,11.6C212.5,150.7,207.3,155.4,201.2,155.2z"/>
</svg>
