<?xml version="1.0" encoding="utf-8"?>
<!-- Generator: Adobe Illustrator 23.0.6, SVG Export Plug-In . SVG Version: 6.00 Build 0)  -->
<svg version="1.1" id="Layer_1" xmlns="http://www.w3.org/2000/svg" xmlns:xlink="http://www.w3.org/1999/xlink" x="0px" y="0px"
	 viewBox="0 0 1366 768" style="enable-background:new 0 0 1366 768;" xml:space="preserve">
<style type="text/css">
	.st0{fill:#FBB03B;}
	.st1{fill:none;}
	.st2{fill:#FFFFFF;}
	.st3{font-family:'Slate-BoldCondensed';}
	.st4{font-size:100px;}
	.st5{letter-spacing:2;}
	.st6{font-family:'Slate-Condensed';}
	.st7{font-size:42px;}
	.st8{clip-path:url(#SVGID_2_);}
	.st9{fill:url(#SVGID_3_);}
	.st10{clip-path:url(#SVGID_6_);}
	.st11{filter:url(#Adobe_OpacityMaskFilter);}
	.st12{clip-path:url(#SVGID_7_);}
	.st13{clip-path:url(#SVGID_11_);}
	.st14{clip-path:url(#SVGID_12_);fill:url(#SVGID_13_);}
	.st15{clip-path:url(#SVGID_7_);mask:url(#SVGID_8_);fill:url(#SVGID_14_);}
	.st16{opacity:0.41;fill:url(#SVGID_15_);enable-background:new    ;}
	.st17{opacity:0.5;}
	.st18{fill:url(#SVGID_16_);}
	.st19{fill:#250000;}
</style>
<g>
	<rect x="0.5" y="0.5" class="st0" width="1365.6" height="766"/>
	<path d="M1365.6,1v765H1V1H1365.6 M1366.5,0H0v767h1366.5V0L1366.5,0z"/>
</g>
<rect x="1" y="302" class="st1" width="1361" height="285"/>
<text transform="matrix(1 0 0 1 537.7012 367.3994)" class="st2 st3 st4 st5">SORRY! </text>
<text transform="matrix(1 0 0 1 579.1012 467.3994)" class="st2 st3 st4 st5">PAGE </text>
<text transform="matrix(1 0 0 1 228.6012 567.3994)" class="st2 st3 st4 st5">UNDER CONSTRUCTION</text>
<rect x="2" y="612" class="st1" width="1363" height="130"/>
<text transform="matrix(1 0 0 1 545.1855 679.5098)" class="st2 st6 st7">Please check back.</text>
<g>
	<g>
		<defs>
			<rect id="SVGID_1_" x="194.8" y="66" width="380.4" height="521.4"/>
		</defs>
		<clipPath id="SVGID_2_">
			<use xlink:href="#SVGID_1_"  style="overflow:visible;"/>
		</clipPath>
		<g class="st8">
			
				<linearGradient id="SVGID_3_" gradientUnits="userSpaceOnUse" x1="385.8" y1="671.1174" x2="385.8" y2="288.6185" gradientTransform="matrix(1 0 0 -1 0 768)">
				<stop  offset="0" style="stop-color:#000000"/>
				<stop  offset="2.400297e-02" style="stop-color:#030303"/>
				<stop  offset="0.2212" style="stop-color:#191919"/>
				<stop  offset="0.3485" style="stop-color:#212121"/>
				<stop  offset="0.4796" style="stop-color:#171717"/>
				<stop  offset="0.7782" style="stop-color:#060606"/>
				<stop  offset="1" style="stop-color:#000000"/>
			</linearGradient>
			<path class="st9" d="M389.2,495.8c-48.6-121.5-106.5-183.4-106.5-183.4c-18.7-23.5-28.6-51.9-28.6-82
				c0-72.6,59.1-131.7,131.7-131.7s131.7,59.1,131.7,131.7c0,30.1-9.9,58.5-28.6,82C488.9,312.4,436.5,368.2,389.2,495.8z"/>
			<g>
				<g>
					<defs>
						<polygon id="SVGID_4_" points="1,1 2,1 1,2 						"/>
					</defs>
					<defs>
						<polygon id="SVGID_5_" points="-1,-1 -2,-1 -1,-2 						"/>
					</defs>
					<clipPath id="SVGID_6_">
						<use xlink:href="#SVGID_4_"  style="overflow:visible;"/>
					</clipPath>
					<clipPath id="SVGID_7_" class="st10">
						<use xlink:href="#SVGID_5_"  style="overflow:visible;"/>
					</clipPath>
					<defs>
						<filter id="Adobe_OpacityMaskFilter" filterUnits="userSpaceOnUse" x="279.6" y="490.5" width="222.8" height="93.4">
							<feColorMatrix  type="matrix" values="1 0 0 0 0  0 1 0 0 0  0 0 1 0 0  0 0 0 1 0"/>
						</filter>
					</defs>
					<mask maskUnits="userSpaceOnUse" x="279.6" y="490.5" width="222.8" height="93.4" id="SVGID_8_">
						<g class="st11">
							<g>
								<defs>
									<polygon id="SVGID_9_" points="1,1 2,1 1,2 									"/>
								</defs>
								<defs>
									<polygon id="SVGID_10_" points="-1,-1 -2,-1 -1,-2 									"/>
								</defs>
								<clipPath id="SVGID_11_" class="st12">
									<use xlink:href="#SVGID_9_"  style="overflow:visible;"/>
								</clipPath>
								<clipPath id="SVGID_12_" class="st13">
									<use xlink:href="#SVGID_10_"  style="overflow:visible;"/>
								</clipPath>
								
									<radialGradient id="SVGID_13_" cx="-14536.1533" cy="-6537.6011" r="78.3905" fx="-14607.4863" fy="-6538.0283" gradientTransform="matrix(-4.900000e-03 0.5959 1.4207 1.150000e-02 9607.7422 9274.4766)" gradientUnits="userSpaceOnUse">
									<stop  offset="0" style="stop-color:#FFFFFF"/>
									<stop  offset="1" style="stop-color:#000000"/>
								</radialGradient>
								<path class="st14" d="M390.6,583.9c-61.5-0.5-111.2-21.8-111-47.6c0.2-25.8,50.3-46.3,111.8-45.8s111.2,21.8,111,47.6
									S452.1,584.4,390.6,583.9z"/>
							</g>
						</g>
					</mask>
					
						<radialGradient id="SVGID_14_" cx="-14536.1533" cy="-6537.6011" r="78.3905" fx="-14607.4863" fy="-6538.0283" gradientTransform="matrix(-4.900000e-03 0.5959 1.4207 1.150000e-02 9607.7422 9274.4766)" gradientUnits="userSpaceOnUse">
						<stop  offset="0" style="stop-color:#FFFFFF"/>
						<stop  offset="1" style="stop-color:#000000"/>
					</radialGradient>
					<path class="st15" d="M390.6,583.9c-61.5-0.5-111.2-21.8-111-47.6c0.2-25.8,50.3-46.3,111.8-45.8s111.2,21.8,111,47.6
						S452.1,584.4,390.6,583.9z"/>
				</g>
			</g>
			
				<radialGradient id="SVGID_15_" cx="-14536.1533" cy="-6537.6011" r="78.3905" fx="-14607.4863" fy="-6538.0283" gradientTransform="matrix(-4.900000e-03 0.5959 1.4207 1.150000e-02 9607.7422 9274.4766)" gradientUnits="userSpaceOnUse">
				<stop  offset="0" style="stop-color:#000000"/>
				<stop  offset="1" style="stop-color:#FFFFFF"/>
			</radialGradient>
			<path class="st16" d="M390.6,583.9c-61.5-0.5-111.2-21.8-111-47.6c0.2-25.8,50.3-46.3,111.8-45.8s111.2,21.8,111,47.6
				S452.1,584.4,390.6,583.9z"/>
			<g class="st17">
				
					<linearGradient id="SVGID_16_" gradientUnits="userSpaceOnUse" x1="300.2" y1="645.4" x2="468.6" y2="645.4" gradientTransform="matrix(1 0 0 -1 0 768)">
					<stop  offset="0" style="stop-color:#000000"/>
					<stop  offset="7.254748e-03" style="stop-color:#050505"/>
					<stop  offset="7.971320e-02" style="stop-color:#363636"/>
					<stop  offset="0.1541" style="stop-color:#606060"/>
					<stop  offset="0.2291" style="stop-color:#828282"/>
					<stop  offset="0.3052" style="stop-color:#9D9D9D"/>
					<stop  offset="0.3826" style="stop-color:#B0B0B0"/>
					<stop  offset="0.4622" style="stop-color:#BBBBBB"/>
					<stop  offset="0.5475" style="stop-color:#BFBFBF"/>
					<stop  offset="0.6306" style="stop-color:#A1A1A1"/>
					<stop  offset="0.8121" style="stop-color:#555555"/>
					<stop  offset="1" style="stop-color:#000000"/>
				</linearGradient>
				<path class="st18" d="M468.6,134.3c-21.7-18.6-49.9-29.8-80.7-29.8c-34.2,0-65.2,13.8-87.7,36.2c24.2-18.6,54.7-33.1,89.1-32.2
					C421.5,109.4,445.9,119.6,468.6,134.3z"/>
			</g>
			<circle class="st19" cx="385.4" cy="228.6" r="100.7"/>
			
				<image style="overflow:visible;enable-background:new    ;" width="198" height="198" xlink:href="29FD65406E62B2C1.png"  transform="matrix(1 0 0 1 286 130)">
			</image>
			<path d="M401.8,267.1l13.7-12.5c0,0,13.4,12.5,7.3,18.9C422.7,273.5,415.2,282.3,401.8,267.1z"/>
			<g>
				<g>
					<path d="M411.2,188.7c0,7.2-5.9,13.1-13.1,13.1c-7.3,0-13.1-5.9-13.1-13.1c0-7.3,5.9-13.1,13.1-13.1
						C405.3,175.6,411.2,181.5,411.2,188.7z"/>
					<path d="M383.7,235.2c-0.3-1.7,0.2-3.8,0.3-5.6c0.1-2.5,1.1-6.3,2.3-8.5l3.4-6.1c1.2-2.2,1.2-5.8,0-7.9l-7.9-14.2
						c-1.2-2.2-4.3-3.8-6.8-3.5l-24.2,2.4c-2.5,0.3-4.7,2.5-4.9,5l-0.6,7.9c-0.2,2.5-1.8,3.7-3.6,2.7c-1.8-1-3.3-0.8-3.3,0.5
						s1.5,3,3.3,3.9s3.3,2.4,3.3,3.4s-1.4,3.1-3.1,4.7c-1.7,1.6-3,5-2.8,7.5l2.7,22.9c0.1,2.5,0.8,5.3,0.2,7.7l-11,23
						c-1.1,8.5,9,6.2,9,6.2c2.1-1.4,7.5-10.9,8.4-13.2l5.7-13.7c1-2.3,1.7-6.3,1.6-8.8l-0.4-11.1c-0.1-2.5,0.8-2.8,2.1-0.6l4.4,8
						c1.2,2.2,1.4,5.9,0.4,8.2c0,0-9.6,24.6-8.6,28.1c1.7,5.7,8.8,1.7,8.8,1.7c2.4-0.6,4.4-7.9,5.3-10.3l8-21
						c0.9-2.3,0.7-5.6-0.5-7.8l-2.2-5.5c-1.2-2.2-2.4-4.3-2.2-5.2c0.2-0.8,0.9-1.1,1.5-0.5s1.9,1.9,2.8,2.8c1,1,3.2,2.2,4.9,2.6
						l24.4,20.2l1.9-1.9C406.3,259.1,384,237,383.7,235.2z M359.2,204.3L359.2,204.3c-1.9,1.8-3.4,1.7-3.3-0.1s1.6-3.2,3.4-3.1
						C361.1,201.2,361,202.6,359.2,204.3z M373.3,223.9l-0.1,0.4c-0.7,2.4-2.5,3.8-4,3.1s-1.2-2.6,0.8-4.1l1-0.8
						C373,220.8,374,221.5,373.3,223.9z"/>
				</g>
				<path d="M391.7,286.2c2.6-2.9,4.1-7.6,8.7-6.7c1.6-4.4,4.7-0.3,7.3-1.1c4.1-1.2,2.4-3.3,3.8-6.5c1.5-3.5,7.3-9.4,12.1-8.9
					c0.3-3.8-0.2-12.3,5.1-8.3c3.1,2.3,2.1,8.9,6,10.7c1.7,0.8,4.6-0.8,6.8,0.5c0.6,0.4,3.5,3.3,4.3,3.9c5,4,3.9,4.6,3.4,10.4
					c3.2,0.5,6.7,2.8,7.6,6.1"/>
				<g>
					<g>
						<path d="M411.3,177.3c-4.8-5.5-13.3-6-19.2-1.4l18.2,20.6C415.6,191.2,416.1,182.8,411.3,177.3z"/>
					</g>
					<path d="M414.5,200.7c-0.6,0.5-1.4,0.5-1.9-0.1L391.8,177c-0.5-0.5-0.4-1.4,0.2-1.9l0,0c0.6-0.5,1.4-0.5,1.9,0.1l20.8,23.6
						C415.1,199.4,415,200.2,414.5,200.7L414.5,200.7z"/>
				</g>
			</g>
		</g>
	</g>
</g>
</svg>
