<?xml version="1.0" encoding="utf-8"?>
<!-- Generator: Adobe Illustrator 21.1.0, SVG Export Plug-In . SVG Version: 6.00 Build 0)  -->
<svg version="1.1" id="Layer_1" xmlns="http://www.w3.org/2000/svg" xmlns:xlink="http://www.w3.org/1999/xlink" x="0px" y="0px"
	 viewBox="0 0 400 300" enable-background="new 0 0 400 300" xml:space="preserve">
<g>
	<rect fill="#036EAD" width="400" height="300"/>
</g>
<g id="XMLID_4082_">
	<path id="XMLID_4088_" fill="#FFFFFF" d="M269.9,75.8c9.5,0,17.2,8.6,17.2,19.2c0,10.6-7.7,19.2-17.2,19.2
		c-9.4,0-17.2-8.6-17.2-19.2C252.7,84.4,260.4,75.8,269.9,75.8z"/>
	<path id="XMLID_4083_" fill="#FFFFFF" d="M102.2,33.7h79.9c12.7,0,23,11.7,23,26.1v16h15.3V55.1c0-14.4,10.3-26.1,23-26.1h52.8
		c12.7,0,23,11.7,23,26.1v187.5c0,14.4-10.3,26.1-23,26.1h-52.8c-12.7,0-23-11.7-23-26.1V103.8h-15.3v11.6c0,14.4-10.3,26.1-23,26.1
		h-79.9c-12.7,0-23-11.7-23-26.1V59.8C79.2,45.4,89.5,33.7,102.2,33.7z M246.6,242.4H297c4.8,0,8.7-4.4,8.7-9.9
		c0-5.5-3.9-9.9-8.7-9.9h-50.4c-4.8,0-8.7,4.4-8.7,9.9C237.9,238,241.8,242.4,246.6,242.4z M269.9,136c20.1,0,36.4-18.4,36.4-41
		c0-22.7-16.3-41-36.4-41c-20,0-36.3,18.4-36.3,41C233.5,117.6,249.8,136,269.9,136z M98.4,115.4c0,2.4,1.7,4.3,3.8,4.3h79.9
		c2.1,0,3.8-1.9,3.8-4.3V59.8c0-2.4-1.7-4.3-3.8-4.3h-79.9c-2.1,0-3.8,1.9-3.8,4.3V115.4z"/>
</g>
</svg>
