<?xml version="1.0" encoding="utf-8"?>
<!-- Generator: Adobe Illustrator 21.1.0, SVG Export Plug-In . SVG Version: 6.00 Build 0)  -->
<svg version="1.1" xmlns="http://www.w3.org/2000/svg" xmlns:xlink="http://www.w3.org/1999/xlink" x="0px" y="0px"
	 viewBox="0 0 500 334" style="enable-background:new 0 0 500 334;" xml:space="preserve">
<style type="text/css">
	.st0{opacity:0.25;fill:url(#SVGID_1_);}
	.st1{opacity:0.15;}
	.st2{fill:url(#SVGID_2_);}
	.st3{fill:#59595C;}
	.st4{fill:#F0F0F0;}
</style>
<g id="Layer_12">
	
		<radialGradient id="SVGID_1_" cx="300.6085" cy="299.9732" r="300.4743" gradientTransform="matrix(-0.832 0 0 -0.5558 500.1063 333.7251)" gradientUnits="userSpaceOnUse">
		<stop  offset="0" style="stop-color:#FFFFFF"/>
		<stop  offset="0.3789" style="stop-color:#FCFCFC"/>
		<stop  offset="0.6208" style="stop-color:#F4F4F4"/>
		<stop  offset="0.8236" style="stop-color:#E5E5E5"/>
		<stop  offset="1" style="stop-color:#D1D1D1"/>
	</radialGradient>
	<polygon class="st0" points="0,0 500,0 500,334 0,334 	"/>
</g>
<g id="Layer_2" class="st1">
	
		<linearGradient id="SVGID_2_" gradientUnits="userSpaceOnUse" x1="0" y1="167" x2="500" y2="167" gradientTransform="matrix(-1 0 0 -1 500 334)">
		<stop  offset="0" style="stop-color:#FFFFFF"/>
		<stop  offset="0.6667" style="stop-color:#E5E5E5"/>
		<stop  offset="1" style="stop-color:#FFFFFF"/>
	</linearGradient>
	<path class="st2" d="M24.4,290.8L0,296.3v2.1l24-5.4l-3.7,20.5L0,312.6v2l19.9,0.8l-1.3,7.4L0,325.2v2.1l18.2-2.2l-1.6,9h2.1
		l1.7-9.3l20-2.5l0.8,11.7h2l-0.8-12l23.6-2.9c0,0.2,0.1,0.3,0.1,0.5c0.5,1.7,1.3,3.3,2.4,4.5l3.7,9.9h2.2l-2.8-7.5
		c2.4,1.2,5.2,1.6,7.9,0.9c4.4-1.2,7.4-4.8,8.1-9l2.9,0.2l10.3,15.4h2.4L93,318.7l18.6,1l23.7,1.3l6.8,13h2.3l-6.7-12.9l35.2,1.9
		l9.1,11h2.7l-9-10.8l93.1,5c0,0.4,0.1,0.9,0.1,1.3l-9.5,4.5h8.8l1.9-0.8c0.2,0.3,0.3,0.6,0.5,0.8h18.2c1.7-2.5,2.4-5.8,1.5-9
		c-0.1-0.4-0.2-0.8-0.4-1.1l68.8-34l30.1,26.3l-36.5,8.6l-38.9,9.2h8.9l68.5-16.2l18.5,16.2h3.1l-19.2-16.8l39-9.2
		c0.8,1.8,2.5,3,4.5,3.2l2,22.7h2l-2.1-22.9c0.5-0.1,0.9-0.3,1.3-0.6l20.7,23.5h2.7l-21.8-24.8c1-1.3,1.5-3.1,1-4.8
		c-0.4-1.4-1.2-2.5-2.3-3.2l10.9-26.8l48.9,25.6v-2.3l-48.1-25.2l25-61.6L500,217v-2.1l-22.3-6l18.3-45.1l4,0.4v-2l-3.2-0.3l3.2-7.9
		v-5.4l-5.3,13.1l-17.6-1.8L500,131v-3.3l-10.5,13.2l-14.8,18.7l-28.2-2.9l3.7-7.2l49.8-30.6v-2.4L452,146l18.3-35.1l29.7-2v-2
		l-28.6,2l16.2-31.1c2.1,0.9,4.6,1.1,7,0.5c1.8-0.5,3.4-1.4,4.7-2.6l0.7,1.2V60.1c-2.3-2.5-5.6-3.9-9.1-3.6L458.9,0h-2.3l32.2,56.8
		c-5.8,1.6-9.2,7.6-7.6,13.4c0.2,0.7,0.5,1.4,0.8,2.1l-60.2,37.1L410.6,0h-2l11.3,110.6l-2.9,1.8l-237.5,16.2
		c0.1-0.8,0.1-1.6-0.1-2.4c-0.8-2.9-3.8-4.7-6.7-3.9c-2.9,0.8-4.7,3.8-3.9,6.7c0.8,2.9,3.8,4.7,6.7,3.9c0.9-0.2,1.7-0.7,2.4-1.3
		l65.9,57.5l20.3,17.7L197,248.2c-2.6-3.5-7.2-5.2-11.6-4c-5.4,1.4-8.8,6.7-8.1,12.1l-11,2.5l-79.8-47.8c1.1-2.3,1.4-4.9,0.7-7.6
		c-1.6-5.9-7.6-9.4-13.5-7.8c-3,0.8-5.4,2.8-6.8,5.4L0,172v2.2l66.2,28.6c-0.6,2-0.7,4.1-0.2,6.2c0.2,0.9,0.6,1.7,1,2.5l-27.5,18.9
		c0-0.3-0.1-0.6-0.2-1c-0.8-2.9-3.8-4.7-6.7-3.9c-1.1,0.3-2.1,0.9-2.8,1.8L8.7,206.7L0,198.2v2.8l7.8,7.6l21.1,20.5
		c-0.3,1-0.4,2.1-0.1,3.1c0.7,2.5,3,4.1,5.5,4.1L30.9,255L0,214.5v3.4l30.4,39.9L24.4,290.8z M87.7,316.4c0-0.8-0.1-1.6-0.4-2.4
		c0-0.1-0.1-0.2-0.1-0.3l1.9,2.8L87.7,316.4z M113.7,317.8l-22.1-1.2l-3.4-5.1l6.9-3.8l25.8-14.3l13.3,25.5L113.7,317.8z M112.6,273
		l15.6-3.5l10,12l-16.4,9.1L112.6,273z M136.6,319l-13.9-26.6l16.8-9.3l16.6,19.8l15,18L136.6,319z M268.8,326.2l-95-5.2l-32.5-39
		l31.2-17.3l97.3,58.3C269.3,324,269,325.1,268.8,326.2z M287.9,320.5c-0.2-0.2-0.3-0.4-0.5-0.5l44-54l25.3,22.1L287.9,320.5z
		 M460.3,111.5L430.5,155l-4.1-0.4l-0.5-4.6l31.1-38.2L460.3,111.5z M458.7,109.6l18.2-22.3l-15.2,22.1L458.7,109.6z M396.5,243.5
		l18.8-49.1l8.1,2.2l-25,47.9L396.5,243.5z M397.4,246.3l-7.5,14.5l5.9-15.4L397.4,246.3z M394.7,242.5l-31-16.2l30.6-37.5l19.1,5.1
		L394.7,242.5z M394,244.4l-8.4,21.9c-1.6-0.5-3.4-0.5-5.1-0.2l-31.7-21.5l13.7-16.8L394,244.4z M399.2,247.2l4,2.1l-14.6,18.4
		c0,0,0,0-0.1,0L399.2,247.2z M400.2,245.4l25.2-48.3l16,4.3l-36.9,46.3L400.2,245.4z M424.3,194.7l-8.3-2.2l0.2-0.4l9.1-23.7
		c0.8,0.1,1.6,0.1,2.4-0.1c2.9-0.8,4.7-3.8,3.9-6.7c0-0.2-0.1-0.4-0.2-0.5l5.5-3.4l6.4,0.7L424.3,194.7z M426.6,156.6l2.6,0.3
		l-0.7,1.1c-0.5-0.2-1.1-0.4-1.7-0.4L426.6,156.6z M430.3,159.3c-0.1-0.1-0.1-0.1-0.2-0.2l1.4-2l2,0.2L430.3,159.3z M425.6,147.1
		l-3.4-32.9l32-2.2L425.6,147.1z M424.3,154.3l-1.8-0.2l1.6-2L424.3,154.3z M424.5,156.4l0.1,1.3c-2.8,0.8-4.5,3.8-3.8,6.7
		c0.4,1.4,1.3,2.5,2.4,3.3l-9.3,24.3l-18.4-4.9l2-2.5l23.3-28.5L424.5,156.4z M393.8,186.1l-0.3,0.4l-64.7-17.2l31.5-19.4l58.2,6
		L393.8,186.1z M326.1,168.5l-122-32.5l-14.1-3.8l103.6,10.7l63.4,6.5L326.1,168.5z M326.4,170.7l65.7,17.5l-30.3,37.1l-67.1-35.1
		L326.4,170.7z M360.5,227L347,243.5l-39-26.4l-27.1-18.4l11.8-7.3L360.5,227z M279.1,197.5l-86.3-58.4l97.9,51.2L279.1,197.5z
		 M345.7,245.1L331.2,263l-63.9-55.8L279,200L345.7,245.1z M358.7,287.1l-26-22.7l14.7-18.1l30.6,20.7c-4.8,2.2-7.4,7.6-6,12.8
		c0.1,0.3,0.2,0.6,0.3,0.9L358.7,287.1z M431.7,306l-40.4,9.5L379,304.8l-18.2-15.9l12.5-6.2c2.5,4,7.4,6.1,12.2,4.9
		c2.7-0.7,4.9-2.4,6.4-4.6l18.3,9.7l21.9,11.6C431.8,304.8,431.7,305.4,431.7,306z M392.8,281.1c0.5-1.1,0.8-2.4,0.8-3.6l27.5,18.6
		L392.8,281.1z M438.3,300.4c-0.8-0.2-1.7-0.2-2.5,0.1c-1,0.3-1.8,0.8-2.5,1.5l-39.9-27c-0.1-0.3-0.1-0.6-0.2-0.8
		c-0.5-2-1.6-3.8-3-5.1l14.9-18.7l44.2,23.1L438.3,300.4z M450,271.5l-43.6-22.8l37.2-46.7l31.3,8.4L450,271.5z M475.6,161.7
		l18.3,1.9l-18.2,44.8l-30.7-8.2L475.6,161.7z M473.2,161.4l-30.4,38.2l-16.5-4.4l19.1-36.7L473.2,161.4z M444.3,156.4l-4.6-0.5
		l7.1-4.4L444.3,156.4z M448.6,148l-12.3,7.6l-3.6-0.4l30.1-43.9l5-0.3L448.6,148z M469,108.9l-4.7,0.3l18.8-27.4L469,108.9z
		 M483,74c0.3,0.4,0.7,0.8,1.1,1.2L456,109.8l-33.9,2.3l0-0.4L483,74z M417.5,114.5l2.7-0.2l3.6,35l-3.8,4.6l-56.9-5.9L417.5,114.5z
		 M413.2,114.8l-53.3,32.9l-170.7-17.6L413.2,114.8z M323.7,170l-31,19.2l-106.9-55.9L323.7,170z M190.3,140l86.8,58.7l-11.5,7.1
		L190.3,140z M198.9,252c-0.2-0.7-0.5-1.4-0.8-2.1l67.4-41.6l64.4,56.3l-44.1,54.1c-2.5-1.7-5.8-2.4-9-1.5c-2,0.5-3.7,1.6-5.1,3
		l-21.4-17.1l-53-42.3C199.1,258.3,199.7,255.1,198.9,252z M191.1,265.5c2-0.5,3.7-1.6,5.1-3l53.1,42.4l17.9,14.3l-92.7-55.5
		l4.6-2.6C181.7,264.8,186.4,266.7,191.1,265.5z M177.8,258.2c0.1,0.4,0.2,0.7,0.4,1l-5.7,3.2l-3.6-2.2L177.8,258.2z M170.4,263.5
		L140,280.5l-9.6-11.5l35.6-8.1L170.4,263.5z M85.6,212.7l77.9,46.7l-34.6,7.8l-44.4-53.2C84.9,213.5,85.2,213.1,85.6,212.7z
		 M82.9,215.2l43.8,52.4l-15.1,3.4l-29-55.7C82.7,215.4,82.8,215.3,82.9,215.2z M77.7,217.1c0.6-0.1,1.2-0.2,1.8-0.3
		c0.5-0.1,0.9-0.3,1.3-0.5l28.7,55.2l-31.9,7.2V217.1z M77.7,280.8l32.8-7.4l9.5,18.2L88.6,309l-1.5,0.8l-9.4-14.2V280.8z
		 M77.7,299.4l6,8.9c-1.7-1.4-3.8-2.2-6-2.4V299.4z M26.1,292.5l12.1-2.7l1.6,24.5l-17.5-0.7L26.1,292.5z M38.9,268.9L51,284.8
		l-10.9,2.5L38.9,268.9z M20.7,322.7l1.3-7.1l18,0.7l0.3,3.9L20.7,322.7z M42.2,320l-0.2-3.6l22.2,0.9L42.2,320z M41.8,314.4
		l-1.6-25.1l12.1-2.7l3.8,5l9,23.7L41.8,314.4z M66.4,312.9l-5.9-15.6l8.7,11.5C68,309.9,67,311.3,66.4,312.9z M75.7,305.9
		c-0.6,0.1-1.2,0.2-1.8,0.3c-1.1,0.3-2.1,0.7-3,1.3L58,290.6l-1.8-4.9l10.8-2.4l8.7,13V305.9z M55.4,283.8l-15.6-41.4l26,39.1
		L55.4,283.8z M75.7,292.6l-6.6-9.8l6.6-1.5V292.6z M39,233.3l29.2-20.1c1.9,2.2,4.5,3.6,7.4,3.9v62.1l-7.8,1.8l-30.4-45.7
		C38.1,234.7,38.7,234,39,233.3z M41,251.3l12.4,32.9l-0.2,0.1l-14.5-19.1l-1.6-24.1L41,251.3z M35.2,242.7l1.3,19.6l-3.9-5.1
		L35.2,242.7z M32,259.9l4.6,6.1l1.4,21.7l-11.5,2.6L32,259.9z"/>
	<path class="st3" d="M36,334h1.3l-2.1-2.7l-15.4-19.9L32,299.7l37.9-13.8l-24.6,45.7l-1.3,2.4h1.1l11.2-20.8c0,0.5,0.1,0.9,0.2,1.4
		c0.6,2.1,2.2,3.5,4.2,3.9L59.3,334h1l1.5-15.4c0.1,0,0.1,0,0.2,0l0.1,0.6l2,14.8h1l-1.3-9.8L66,334h1l-1.5-6.8l-2-8.9
		c0.4-0.1,0.7-0.3,1-0.4l10.8,15.4l-0.2,0.7H77l-0.7-0.9l3.6-16.7l1.4,0.2L78.1,334h1l3.2-17.3l11.6,1.7L87.6,334h1.1l6.2-15.4
		l4.5,0.7l26.7,3.9c0,0.6,0,1.1,0.2,1.7c0.2,0.7,0.5,1.3,0.9,1.8l-8.3,7.3h1.5l7.4-6.6c1.3,1.2,3.2,1.8,5.1,1.3
		c2.5-0.7,4.1-2.9,4-5.4l55.6-6.8l0,17.5h1l0-17.6l32.7-4l-3.9,21.7h1l3.9-21.8l9.8-1.2l1.5,23h1l-1.5-23.1l11.6-1.4
		c0,0.1,0,0.2,0.1,0.2c0.2,0.9,0.6,1.6,1.2,2.2l8.3,22.1h1.1l-7.9-20.9c1.2,0.6,2.5,0.8,3.9,0.4c2.2-0.6,3.6-2.4,4-4.4l1.4,0.1
		l16.5,24.8h1.2l-16.5-24.8l9.1,0.5l11.6,0.6L296,334h1.1l-12.3-23.6l17.3,0.9l13.6,16.3c-1,0.9-1.6,2.2-1.7,3.6l-0.4,0.2l0.3-0.1
		c0,0.6,0,1.1,0.2,1.7c0.1,0.4,0.2,0.7,0.4,1h9.7c0.6-1.1,0.7-2.5,0.4-3.8c-0.1-0.5-0.3-0.9-0.5-1.3l85.1-20.1l24.8,21.6l0.3,3.6h1
		l-0.2-2.6l3,2.6h1.5l-4.6-4.1l-2.2-24.4c0.2-0.1,0.4-0.2,0.6-0.3l25.3,28.8h1.3l-25.9-29.4c0.5-0.6,0.7-1.5,0.5-2.4
		c-0.2-0.7-0.6-1.2-1.2-1.6l5.3-13.2l38.3,20.1c-0.1,0.5-0.2,1,0,1.5c0.4,1.4,1.8,2.3,3.3,1.9L491,334h1.1l-3.5-7.6l-5.7-12.3
		l13.2,19.9h1.2l-15.6-23.6l18.3,13.5v-1.2l-17.9-13.2l17.9,4.9v-1l-17.6-4.8c0-0.3,0-0.6-0.1-0.9c-0.1-0.2-0.1-0.4-0.2-0.6
		l17.9-14.3v-1.3l-0.5,0.4l-18,14.4c-0.7-0.6-1.6-0.8-2.5-0.6c-0.4,0.1-0.8,0.3-1.1,0.6l-0.1-0.1l0.1,0.2c-0.1,0.1-0.2,0.2-0.2,0.3
		l-38.4-20.1l12.3-30.3l48.6,12.9v-1l-48.2-12.8l9-22.2l39.2,4v-1l-38.8-4l8.9-22c0.9,0.3,1.9,0.3,2.9,0.1c1.6-0.4,2.8-1.5,3.4-2.8
		l23.5,9.1v-1.1l-23.1-9c0.3-0.9,0.3-1.9,0-2.9c-0.8-2.9-3.7-4.6-6.6-3.8c-0.3,0.1-0.6,0.2-0.8,0.3l-6.3-11.2
		c0.9-1.3,1.3-2.9,0.8-4.5c-0.7-2.6-3.1-4.2-5.7-4l-42.1-74.3c0.2-0.1,0.4-0.3,0.6-0.5L500,180v-1.3l-82.5-73.8
		c0.2-0.3,0.5-0.7,0.6-1.1l81.9,26.5v-1.1l-81.6-26.4c0.2-0.8,0.2-1.7,0-2.6c-0.8-2.9-3.7-4.6-6.6-3.8c-2.9,0.8-4.6,3.7-3.8,6.6
		c0.6,2.4,2.9,4,5.3,4l10.2,100L422,208l-116.6,8c0.1-0.4,0.1-0.8,0-1.2c-0.4-1.4-1.9-2.3-3.3-1.9c-1.4,0.4-2.3,1.9-1.9,3.3
		c0.4,1.4,1.9,2.3,3.3,1.9c0.5-0.1,0.8-0.4,1.2-0.7l32.3,28.3l10,8.7L314,274.6c-1.3-1.7-3.5-2.6-5.7-2c-2.7,0.7-4.3,3.3-4,5.9
		l-5.4,1.2l-39.2-23.5c0.5-1.1,0.7-2.4,0.4-3.7c-0.8-2.9-3.7-4.6-6.6-3.8c-1.5,0.4-2.7,1.4-3.3,2.6L198.3,229c0.3-1,0.4-2,0.1-3.1
		c-0.8-2.9-3.7-4.6-6.6-3.8c-2.9,0.8-4.6,3.7-3.8,6.6c0.1,0.4,0.3,0.8,0.4,1.1l-50.4,32.9l-15.3,10l-5.8-2.9c0.1-0.5,0.2-0.9,0-1.4
		c-0.4-1.4-1.9-2.3-3.3-1.9c-1.4,0.4-2.2,1.7-2,3l-22.1,8.1l6.5-35c0.6,0.1,1.3,0,1.9-0.2c2.9-0.8,4.6-3.7,3.8-6.6
		c-0.8-2.9-3.7-4.6-6.6-3.8c-2.9,0.8-4.6,3.7-3.8,6.6c0.1,0.3,0.2,0.6,0.3,0.9L0,294v1.2l91.5-54.2l-75.1,62.5
		c-0.6-0.5-1.5-0.8-2.4-0.5c-1.4,0.4-2.2,1.7-2,3.1l-12,4.5v1.1l12.4-4.6c0.6,1,1.8,1.5,3,1.2c0.2,0,0.4-0.1,0.5-0.2l2.6,3.3
		L0,328.9v1.4l19.1-18.2L36,334z M260.3,308.1c0-0.4-0.1-0.8-0.2-1.2c0-0.1,0-0.1-0.1-0.2l0.9,1.4L260.3,308.1z M273.1,308.8
		l-10.8-0.6l-1.7-2.5l3.4-1.9l12.7-7l6.5,12.5L273.1,308.8z M272.5,286.8l7.6-1.7l4.9,5.9l-8.1,4.5L272.5,286.8z M284.3,309.4
		l-6.8-13.1l8.3-4.6l8.1,9.7l7.4,8.8L284.3,309.4z M286.7,291.3l15.3-8.5l47.8,28.6c-0.2,0.5-0.4,1-0.5,1.5l-46.6-2.5L286.7,291.3z
		 M318,326.4c-0.5,0.1-1,0.4-1.5,0.7l-13-15.6l45.7,2.5c0,0.2,0,0.4,0.1,0.6l-14.1,6.7l-12.6,6C321.3,326.3,319.6,325.9,318,326.4z
		 M390.3,312.2L323.5,328c0,0,0,0,0,0l10-4.4l16.4-7.2c1.2,2.1,3.7,3.2,6.1,2.6c2.9-0.8,4.6-3.7,3.8-6.6c0-0.2-0.1-0.4-0.2-0.5
		l33.8-16.7l14.8,12.9L390.3,312.2z M399.9,290.1c0,0.2,0.1,0.3,0.1,0.5l-6.7,3.1l-12.8-11.2l7.2-8.9l15,10.2
		C400.5,284.9,399.2,287.5,399.9,290.1z M388.5,272.9l6.7-8.2l15.5,8.1l-4.1,10.7c-0.8-0.2-1.7-0.3-2.5-0.1L388.5,272.9z
		 M431.5,229.2l-1.7-0.2l14.8-21.5l2.5-0.2l-9.5,18.2L431.5,229.2z M436.7,227.2l-1.2,2.4l-2.3-0.2L436.7,227.2z M430.1,230l-1.6,1
		c0,0-0.1-0.1-0.1-0.1l0.7-1L430.1,230z M444,206.5l-1.5,0.1l8.9-11L444,206.5z M443.3,207.5l-14.6,21.3l-2-0.2l-0.2-2.3l15.3-18.7
		L443.3,207.5z M428,229.8l-0.4,0.5c-0.3-0.1-0.6-0.2-0.9-0.2l0-0.4L428,229.8z M427.2,235.4c1.4-0.4,2.3-1.9,1.9-3.3
		c0-0.1-0.1-0.2-0.1-0.3l2.7-1.7l3.2,0.3l-9.3,17.8l-4.1-1.1l0.1-0.2l4.4-11.6C426.4,235.5,426.8,235.5,427.2,235.4z M425.1,249.3
		l-12.3,23.5l-0.9-0.5l9.2-24.1L425.1,249.3z M412.4,273.7l-3.7,7.1l2.9-7.5L412.4,273.7z M411.1,271.8l-15.2-8l15-18.4l9.4,2.5
		L411.1,271.8z M413.3,274.1l2,1l-7.2,9c0,0,0,0,0,0L413.3,274.1z M413.8,273.3l12.4-23.7l7.9,2.1l-18.1,22.8L413.8,273.3z
		 M426.6,248.6l9.4-18l13.6,1.4l-14.9,18.7L426.6,248.6z M436.5,229.7l1.8-3.5l29-17.8c0.2,0.2,0.4,0.5,0.6,0.7l-10.3,13l-7.3,9.2
		L436.5,229.7z M439.2,224.4l9-17.2l18.1-1.2c0,0.2,0.1,0.3,0.1,0.5c0.1,0.4,0.2,0.7,0.4,1L439.2,224.4z M447.6,206.2l-2.3,0.2
		l9.2-13.4L447.6,206.2z M441.2,206.7l-16.7,1.1l0-0.2l30-18.5c0.2,0.2,0.3,0.4,0.5,0.6L441.2,206.7z M440.3,207.7l-14,17.2
		l-1.7-16.2L440.3,207.7z M425.6,228.5l-0.9-0.1l0.8-1L425.6,228.5z M425.7,229.6l0.1,0.6c-1.4,0.4-2.2,1.9-1.8,3.3
		c0.2,0.7,0.6,1.3,1.2,1.6l-4.6,11.9l-9-2.4l1-1.2l11.4-14L425.7,229.6z M410.6,244.1l-0.2,0.2l-31.8-8.5l15.5-9.5l28.6,2.9
		L410.6,244.1z M377.4,235.5l-59.9-16l-6.9-1.8l50.9,5.3l31.1,3.2L377.4,235.5z M377.6,236.6l32.2,8.6l-14.9,18.2L362,246.2
		L377.6,236.6z M394.3,264.2l-6.6,8.1l-19.1-13l-13.3-9l5.8-3.6L394.3,264.2z M354.3,249.8l-42.4-28.7l48.1,25.2L354.3,249.8z
		 M387,273.1l-7.2,8.8l-31.4-27.4l5.8-3.6L387,273.1z M380,283.3l12.4,10.9l-33.8,16c-0.1-0.1-0.2-0.2-0.3-0.3L380,283.3z
		 M403.4,302.4l-8.9-7.8l6.1-3c1.2,2,3.6,3,6,2.4c1.3-0.4,2.4-1.2,3.1-2.3l9,4.7l10.8,5.7c-0.1,0.3-0.1,0.6-0.1,0.9l-19.8,4.7
		L403.4,302.4z M410.1,290.8c0.2-0.6,0.4-1.2,0.4-1.8l13.5,9.1L410.1,290.8z M433.8,329l-23.4-20.5l19.1-4.5
		c0.4,0.9,1.2,1.5,2.2,1.6L433.8,329z M432.5,300.3c-0.4-0.1-0.8-0.1-1.2,0c-0.5,0.1-0.9,0.4-1.2,0.7l-19.6-13.3
		c0-0.1-0.1-0.3-0.1-0.4c-0.3-1-0.8-1.8-1.5-2.5l7.3-9.2l21.7,11.4L432.5,300.3z M438.3,286.1l-21.4-11.2l18.3-22.9l15.4,4.1
		L438.3,286.1z M450.8,255.1l-15.1-4l15-18.9l9,0.9L450.8,255.1z M469.2,209.9l-9,22.2l-8.6-0.9l17.2-21.6
		C468.9,209.7,469,209.8,469.2,209.9z M460.1,191.1c0.9-0.2,1.7-0.7,2.3-1.3l6.1,10.8c-1.4,1-2.3,2.6-2.3,4.3l-17.5,1.2l8-15.3
		C457.8,191.3,459,191.4,460.1,191.1z M414.2,107c0.1,0,0.2,0,0.3-0.1c0.3-0.1,0.6-0.2,0.8-0.3l41.9,74c-2.8,0.8-4.5,3.7-3.7,6.6
		c0.1,0.4,0.2,0.7,0.4,1l-29.5,18.2L414.2,107z M422.3,209l1.3-0.1l1.8,17.2l-1.8,2.3l-27.9-2.9L422.3,209z M420.1,209.1l-26.2,16.2
		l-83.8-8.6L420.1,209.1z M376.2,236.2l-15.2,9.4l-52.5-27.5L376.2,236.2z M310.7,221.5l42.6,28.8l-5.6,3.5L310.7,221.5z
		 M314.9,276.5c-0.1-0.4-0.2-0.7-0.4-1l33.1-20.4l31.6,27.6l-21.6,26.6c-1.2-0.8-2.8-1.2-4.4-0.7c-1,0.3-1.8,0.8-2.5,1.5l-10.5-8.4
		l-26-20.8C315,279.6,315.3,278,314.9,276.5z M311.1,283.1c1-0.3,1.8-0.8,2.5-1.5l26.1,20.8l8.8,7L303,282.2l2.3-1.3
		C306.5,282.8,308.8,283.7,311.1,283.1z M304.6,279.5c0.1,0.2,0.1,0.3,0.2,0.5l-2.8,1.5l-1.8-1.1L304.6,279.5z M301,282.2l-15,8.3
		l-4.7-5.7l17.5-4L301,282.2z M259.3,257.2l38.3,22.9l-17,3.8l-21.8-26.1C258.9,257.6,259.1,257.4,259.3,257.2z M258,258.4
		l21.5,25.8l-7.4,1.7l-14.2-27.3C257.9,258.5,257.9,258.5,258,258.4z M255.4,259.4c0.3,0,0.6-0.1,0.9-0.2c0.2-0.1,0.4-0.1,0.6-0.2
		l14.1,27.1l-15.6,3.5V259.4z M255.4,290.7l16.1-3.6l4.6,8.9l-15.4,8.5l-0.7,0.4l-4.6-7V290.7z M255.4,299.7l2.9,4.4
		c-0.8-0.7-1.8-1.1-2.9-1.2V299.7z M227.4,311.2l0.6-3.5l8.8,0.4l0.1,1.9L227.4,311.2z M231.4,266.8c0.3,1.2,1.5,2,2.7,2l-1.7,9.1
		l-34.7-45.5l23.4,22.8l10.3,10.1C231.3,265.8,231.2,266.3,231.4,266.8z M234.5,271.9l0.6,9.6l-1.9-2.5L234.5,271.9z M233,280.4
		l2.3,3L236,294l-5.7,1.3L233,280.4z M237.4,276.2l6.1,16.2l-0.1,0l-7.1-9.4l-0.8-11.9L237.4,276.2z M236.8,271.8l12.8,19.2
		l-5.1,1.1L236.8,271.8z M242.3,292.6l-5.4,1.2l-0.6-9L242.3,292.6z M236,295l0.8,12l-8.6-0.4l1.9-10.4L236,295z M238,309.9
		l-0.1-1.8l10.9,0.4L238,309.9z M237.8,307.1l-0.8-12.3l6-1.3l1.9,2.5l4.4,11.6L237.8,307.1z M249.9,306.4l-2.9-7.7l4.3,5.6
		C250.6,304.9,250.2,305.6,249.9,306.4z M254.4,302.9c-0.3,0-0.6,0.1-0.9,0.2c-0.5,0.1-1,0.4-1.5,0.6l-6.3-8.3l-0.9-2.4l5.3-1.2
		l4.3,6.4V302.9z M254.4,296.4l-3.2-4.8l3.2-0.7V296.4z M254.4,259.4v30.5l-3.8,0.9l-14.9-22.5c0.3-0.3,0.6-0.6,0.8-1l14.3-9.8
		C251.7,258.5,253,259.2,254.4,259.4z M197.9,229.9l51.8,22.4c-0.3,1-0.4,2-0.1,3.1c0.1,0.4,0.3,0.9,0.5,1.2l-13.5,9.3
		c0-0.2,0-0.3-0.1-0.5c-0.4-1.4-1.9-2.3-3.3-1.9c-0.6,0.1-1,0.5-1.4,0.9l-10.4-10.1l-24.1-23.5C197.6,230.5,197.8,230.2,197.9,229.9
		z M193.7,232.7c0.3,0,0.6-0.1,0.9-0.2c0.5-0.1,1-0.4,1.5-0.6l36.1,47.4l-2.9,16.2l-35.7,8.1L193.7,232.7z M193.5,304.6l35.5-8
		l-1.8,10.1l-31.9-1.3l-1.8-0.1L193.5,304.6z M193.5,306.3l33.5,1.4l-0.7,3.6l-32.9,4L193.5,306.3z M60.4,307.9
		c-0.6,0.2-1.1,0.4-1.6,0.7l12.5-23.3l15.5-5.7l-4.2,19.2L66,309.8C64.7,308.2,62.5,307.4,60.4,307.9z M88,279.3l0.3-0.1l-3.4,18.3
		l-1,0.6L88,279.3z M75.5,331.9l-7.3-10.5l-2.9-4.2c0.9-0.7,1.5-1.7,1.8-2.8l11.9,1.8L75.5,331.9z M79.2,315.2l-12-1.8
		c0-0.6,0-1.1-0.2-1.7c-0.1-0.4-0.3-0.8-0.4-1.1l15.8-10.3L79.2,315.2z M81.5,315.6l-1.4-0.2l3.5-15.8l1-0.7L81.5,315.6z
		 M94.3,317.5l-11.8-1.7l3.3-17.6l22.2-14.5L94.3,317.5z M126.3,322.2l-26-3.8l-5-0.7l14.1-34.9l7.2-4.7l12.8,40.5
		C127.8,319.2,126.7,320.6,126.3,322.2z M134.8,319.2l19.1-29.7l28.3,14.1c-0.4,1-0.5,2-0.2,3.1l-45.5,14.6
		C136.1,320.5,135.5,319.8,134.8,319.2z M192.5,315.5l-50.1,6.2l-5.7,0.7c0,0,0,0,0,0l8.6-2.8l36.9-11.9c1,2.4,3.7,3.8,6.4,3.1
		c2.1-0.6,3.6-2.3,3.9-4.3L192.5,315.5z M192.7,232.7l-0.2,71.1l-0.2,0c-0.9-2.7-3.7-4.3-6.5-3.6c-1.4,0.4-2.5,1.2-3.2,2.4
		l-28.2-14.1l2.8-4.3l33.5-52.2C191.3,232.5,192,232.7,192.7,232.7z M137,264.7l52-34c0.3,0.3,0.6,0.6,0.9,0.9l-34.3,53.5l-2,3.1
		l-29.8-14.9L137,264.7z M122.8,273.9L153,289l-19,29.7c-1.1-0.6-2.4-0.8-3.6-0.5l-12.9-40.8L122.8,273.9z M116.5,270.8l5.3,2.6
		l-4.6,3l-1.5-4.9C116,271.3,116.3,271.1,116.5,270.8z M113.8,271.8c0.3,0.1,0.6,0.1,0.8,0l1.6,5.2l-6.2,4.1L113.8,271.8z
		 M112,270.5c0.2,0.4,0.5,0.7,0.9,0.9l-4.3,10.6L86,296.7l1.9-10.1l1.5-7.8L112,270.5z M88.5,278l-0.3,0.1l1.7-7.8L88.5,278z
		 M95,242.4l-7.9,36.1l-15.1,5.5l22.5-41.8C94.7,242.3,94.9,242.4,95,242.4z M93.1,241.4c0.2,0.2,0.4,0.3,0.6,0.4l-23,42.8L33.8,298
		L93.1,241.4z M85.7,247l-54.3,51.8l-14.3,5.2L85.7,247z M16.7,307.3c0.5-0.6,0.8-1.4,0.6-2.2l12.4-4.5l-10.5,10L16.7,307.3z"/>
	<path class="st4" d="M464,0h-1.3l2.1,2.7l15.4,19.9L468,34.3l-37.9,13.8l24.6-45.7l1.3-2.4h-1.1l-11.2,20.8c0-0.5-0.1-0.9-0.2-1.4
		c-0.6-2.1-2.2-3.5-4.2-3.9L440.7,0h-1l-1.5,15.4c-0.1,0-0.1,0-0.2,0l-0.1-0.6l-2-14.8h-1l1.3,9.8L434,0h-1l1.5,6.8l2,8.9
		c-0.4,0.1-0.7,0.3-1,0.4L424.8,0.7l0.2-0.7H423l0.7,0.9l-3.6,16.7l-1.4-0.2L421.9,0h-1l-3.2,17.3l-11.6-1.7L412.4,0h-1.1l-6.2,15.4
		l-4.5-0.7l-26.7-3.9c0-0.6,0-1.1-0.2-1.7c-0.2-0.7-0.5-1.3-0.9-1.8l8.3-7.3h-1.5l-7.4,6.6c-1.3-1.2-3.2-1.8-5.1-1.3
		c-2.5,0.7-4.1,2.9-4,5.4l-55.6,6.8l0-17.5h-1l0,17.6l-32.7,4L277.7,0h-1l-3.9,21.8l-9.8,1.2l-1.5-23h-1l1.5,23.1l-11.6,1.4
		c0-0.1,0-0.2-0.1-0.2c-0.2-0.9-0.6-1.6-1.2-2.2L240.8,0h-1.1l7.9,20.9c-1.2-0.6-2.5-0.8-3.9-0.4c-2.2,0.6-3.6,2.4-4,4.4l-1.4-0.1
		L221.8,0h-1.2l16.5,24.8l-9.1-0.5l-11.6-0.6L204,0h-1.1l12.3,23.6l-17.3-0.9L184.3,6.4c1-0.9,1.6-2.2,1.7-3.6l0.4-0.2L186,2.7
		c0-0.6,0-1.1-0.2-1.7c-0.1-0.4-0.2-0.7-0.4-1h-9.7c-0.6,1.1-0.7,2.5-0.4,3.8c0.1,0.5,0.3,0.9,0.5,1.3L90.8,25.2L66.1,3.6L65.8,0h-1
		L65,2.6L62,0h-1.5l4.6,4.1l2.2,24.4c-0.2,0.1-0.4,0.2-0.6,0.3L41.4,0H40l25.9,29.4c-0.5,0.6-0.7,1.5-0.5,2.4
		c0.2,0.7,0.6,1.2,1.2,1.6l-5.3,13.2L22.9,26.5c0.1-0.5,0.2-1,0-1.5c-0.4-1.4-1.8-2.3-3.3-1.9L9,0H7.9l3.5,7.6l5.7,12.3L3.9,0H2.7
		l15.6,23.6L0,10.1v1.2l17.9,13.2L0,19.6v1l17.6,4.8c0,0.3,0,0.6,0.1,0.9c0.1,0.2,0.1,0.4,0.2,0.6L0,41.3v1.3l0.5-0.4l18-14.4
		c0.7,0.6,1.6,0.8,2.5,0.6c0.4-0.1,0.8-0.3,1.1-0.6l0.1,0.1l-0.1-0.2c0.1-0.1,0.2-0.2,0.2-0.3l38.4,20.1L48.6,77.7L0,64.8v1
		l48.2,12.8l-9,22.2L0,96.8v1l38.8,4l-8.9,22c-0.9-0.3-1.9-0.3-2.9-0.1c-1.6,0.4-2.8,1.5-3.4,2.8L0,117.4v1.1l23.1,9
		c-0.3,0.9-0.3,1.9,0,2.9c0.8,2.9,3.7,4.6,6.6,3.8c0.3-0.1,0.6-0.2,0.8-0.3l6.3,11.2c-0.9,1.3-1.3,2.9-0.8,4.5
		c0.7,2.6,3.1,4.2,5.7,4l42.1,74.3c-0.2,0.1-0.4,0.3-0.6,0.5L0,154v1.3l82.5,73.8c-0.2,0.3-0.5,0.7-0.6,1.1L0,203.7v1.1l81.6,26.4
		c-0.2,0.8-0.2,1.7,0,2.6c0.8,2.9,3.7,4.6,6.6,3.8c2.9-0.8,4.6-3.7,3.8-6.6c-0.6-2.4-2.9-4-5.3-4l-10.2-100L78,126l116.6-8
		c-0.1,0.4-0.1,0.8,0,1.2c0.4,1.4,1.9,2.3,3.3,1.9c1.4-0.4,2.3-1.9,1.9-3.3c-0.4-1.4-1.9-2.3-3.3-1.9c-0.5,0.1-0.8,0.4-1.2,0.7
		l-32.3-28.3l-10-8.7L186,59.4c1.3,1.7,3.5,2.6,5.7,2c2.7-0.7,4.3-3.3,4-5.9l5.4-1.2l39.2,23.5c-0.5,1.1-0.7,2.4-0.4,3.7
		c0.8,2.9,3.7,4.6,6.6,3.8c1.5-0.4,2.7-1.4,3.3-2.6l51.8,22.4c-0.3,1-0.4,2-0.1,3.1c0.8,2.9,3.7,4.6,6.6,3.8
		c2.9-0.8,4.6-3.7,3.8-6.6c-0.1-0.4-0.3-0.8-0.4-1.1l50.4-32.9l15.3-10l5.8,2.9c-0.1,0.5-0.2,0.9,0,1.4c0.4,1.4,1.9,2.3,3.3,1.9
		c1.4-0.4,2.2-1.7,2-3l22.1-8.1l-6.5,35c-0.6-0.1-1.3,0-1.9,0.2c-2.9,0.8-4.6,3.7-3.8,6.6c0.8,2.9,3.7,4.6,6.6,3.8
		c2.9-0.8,4.6-3.7,3.8-6.6c-0.1-0.3-0.2-0.6-0.3-0.9L500,40v-1.2l-91.5,54.2l75.1-62.5c0.6,0.5,1.5,0.8,2.4,0.5
		c1.4-0.4,2.2-1.7,2-3.1l12-4.5v-1.1l-12.4,4.6c-0.6-1-1.8-1.5-3-1.2c-0.2,0-0.4,0.1-0.5,0.2l-2.6-3.3L500,5.1V3.7l-19.1,18.2L464,0
		z M239.7,25.9c0,0.4,0.1,0.8,0.2,1.2c0,0.1,0,0.1,0.1,0.2l-0.9-1.4L239.7,25.9z M226.9,25.2l10.8,0.6l1.7,2.5l-3.4,1.9l-12.7,7
		l-6.5-12.5L226.9,25.2z M227.5,47.2l-7.6,1.7l-4.9-5.9l8.1-4.5L227.5,47.2z M215.7,24.6l6.8,13.1l-8.3,4.6l-8.1-9.7l-7.4-8.8
		L215.7,24.6z M213.3,42.7l-15.3,8.5l-47.8-28.6c0.2-0.5,0.4-1,0.5-1.5l46.6,2.5L213.3,42.7z M182,7.6c0.5-0.1,1-0.4,1.5-0.7
		l13,15.6l-45.7-2.5c0-0.2,0-0.4-0.1-0.6l14.1-6.7l12.6-6C178.7,7.7,180.4,8.1,182,7.6z M109.7,21.8L176.5,6c0,0,0,0,0,0l-10,4.4
		l-16.4,7.2c-1.2-2.1-3.7-3.2-6.1-2.6c-2.9,0.8-4.6,3.7-3.8,6.6c0,0.2,0.1,0.4,0.2,0.5l-33.8,16.7L91.8,26L109.7,21.8z M100.1,43.9
		c0-0.2-0.1-0.3-0.1-0.5l6.7-3.1l12.8,11.2l-7.2,8.9l-15-10.2C99.5,49.1,100.8,46.5,100.1,43.9z M111.5,61.1l-6.7,8.2l-15.5-8.1
		l4.1-10.7c0.8,0.2,1.7,0.3,2.5,0.1L111.5,61.1z M68.5,104.8l1.7,0.2l-14.8,21.5l-2.5,0.2l9.5-18.2L68.5,104.8z M63.3,106.8l1.2-2.4
		l2.3,0.2L63.3,106.8z M69.9,104l1.6-1c0,0,0.1,0.1,0.1,0.1l-0.7,1L69.9,104z M56,127.5l1.5-0.1l-8.9,11L56,127.5z M56.7,126.5
		l14.6-21.3l2,0.2l0.2,2.3l-15.3,18.7L56.7,126.5z M72,104.2l0.4-0.5c0.3,0.1,0.6,0.2,0.9,0.2l0,0.4L72,104.2z M72.8,98.6
		c-1.4,0.4-2.3,1.9-1.9,3.3c0,0.1,0.1,0.2,0.1,0.3l-2.7,1.7l-3.2-0.3l9.3-17.8l4.1,1.1l-0.1,0.2l-4.4,11.6
		C73.6,98.5,73.2,98.5,72.8,98.6z M74.9,84.7l12.3-23.5l0.9,0.5l-9.2,24.1L74.9,84.7z M87.6,60.3l3.7-7.1l-2.9,7.5L87.6,60.3z
		 M88.9,62.2l15.2,8l-15,18.4l-9.4-2.5L88.9,62.2z M86.7,59.9l-2-1l7.2-9c0,0,0,0,0,0L86.7,59.9z M86.2,60.7L73.9,84.5L66,82.4
		l18.1-22.8L86.2,60.7z M73.4,85.4l-9.4,18L50.4,102l14.9-18.7L73.4,85.4z M63.5,104.3l-1.8,3.5l-29,17.8c-0.2-0.2-0.4-0.5-0.6-0.7
		l10.3-13l7.3-9.2L63.5,104.3z M60.8,109.6l-9,17.2l-18.1,1.2c0-0.2-0.1-0.3-0.1-0.5c-0.1-0.4-0.2-0.7-0.4-1L60.8,109.6z
		 M52.4,127.8l2.3-0.2l-9.2,13.4L52.4,127.8z M58.8,127.3l16.7-1.1l0,0.2l-30,18.5c-0.2-0.2-0.3-0.4-0.5-0.6L58.8,127.3z
		 M59.7,126.3l14-17.2l1.7,16.2L59.7,126.3z M74.4,105.5l0.9,0.1l-0.8,1L74.4,105.5z M74.3,104.4l-0.1-0.6c1.4-0.4,2.2-1.9,1.8-3.3
		c-0.2-0.7-0.6-1.3-1.2-1.6L79.4,87l9,2.4l-1,1.2l-11.4,14L74.3,104.4z M89.4,89.9l0.2-0.2l31.8,8.5l-15.5,9.5l-28.6-2.9L89.4,89.9z
		 M122.6,98.5l59.9,16l6.9,1.8l-50.9-5.3l-31.1-3.2L122.6,98.5z M122.4,97.4l-32.2-8.6l14.9-18.2L138,87.8L122.4,97.4z M105.7,69.8
		l6.6-8.1l19.1,13l13.3,9l-5.8,3.6L105.7,69.8z M145.7,84.2l42.4,28.7L140,87.8L145.7,84.2z M113,60.9l7.2-8.8l31.4,27.4l-5.8,3.6
		L113,60.9z M120,50.7l-12.4-10.9l33.8-16c0.1,0.1,0.2,0.2,0.3,0.3L120,50.7z M96.6,31.6l8.9,7.8l-6.1,3c-1.2-2-3.6-3-6-2.4
		c-1.3,0.4-2.4,1.2-3.1,2.3l-9-4.7l-10.8-5.7c0.1-0.3,0.1-0.6,0.1-0.9l19.8-4.7L96.6,31.6z M89.9,43.2c-0.2,0.6-0.4,1.2-0.4,1.8
		L76,35.8L89.9,43.2z M66.2,5l23.4,20.5L70.5,30c-0.4-0.9-1.2-1.5-2.2-1.6L66.2,5z M67.5,33.7c0.4,0.1,0.8,0.1,1.2,0
		c0.5-0.1,0.9-0.4,1.2-0.7l19.6,13.3c0,0.1,0.1,0.3,0.1,0.4c0.3,1,0.8,1.8,1.5,2.5l-7.3,9.2L62.1,47L67.5,33.7z M61.7,47.9
		l21.4,11.2L64.9,82.1L49.5,78L61.7,47.9z M49.2,78.9l15.1,4l-15,18.9l-9-0.9L49.2,78.9z M30.8,124.1l9-22.2l8.6,0.9l-17.2,21.6
		C31.1,124.3,31,124.2,30.8,124.1z M39.9,142.9c-0.9,0.2-1.7,0.7-2.3,1.3l-6.1-10.8c1.4-1,2.3-2.6,2.3-4.3l17.5-1.2l-8,15.3
		C42.2,142.7,41,142.6,39.9,142.9z M85.8,227c-0.1,0-0.2,0-0.3,0.1c-0.3,0.1-0.6,0.2-0.8,0.3l-41.9-74c2.8-0.8,4.5-3.7,3.7-6.6
		c-0.1-0.4-0.2-0.7-0.4-1l29.5-18.2L85.8,227z M77.7,125l-1.3,0.1l-1.8-17.2l1.8-2.3l27.9,2.9L77.7,125z M79.9,124.9l26.2-16.2
		l83.8,8.6L79.9,124.9z M123.8,97.8l15.2-9.4l52.5,27.5L123.8,97.8z M189.3,112.5l-42.6-28.8l5.6-3.5L189.3,112.5z M185.1,57.5
		c0.1,0.4,0.2,0.7,0.4,1L152.4,79l-31.6-27.6l21.6-26.6c1.2,0.8,2.8,1.2,4.4,0.7c1-0.3,1.8-0.8,2.5-1.5l10.5,8.4l26,20.8
		C185,54.4,184.7,56,185.1,57.5z M188.9,50.9c-1,0.3-1.8,0.8-2.5,1.5l-26.1-20.8l-8.8-7L197,51.8l-2.3,1.3
		C193.5,51.2,191.2,50.3,188.9,50.9z M195.4,54.5c-0.1-0.2-0.1-0.3-0.2-0.5l2.8-1.5l1.8,1.1L195.4,54.5z M199,51.8l15-8.3l4.7,5.7
		l-17.5,4L199,51.8z M240.7,76.8l-38.3-22.9l17-3.8l21.8,26.1C241.1,76.4,240.9,76.6,240.7,76.8z M242,75.6l-21.5-25.8l7.4-1.7
		l14.2,27.3C242.1,75.5,242.1,75.5,242,75.6z M244.6,74.6c-0.3,0-0.6,0.1-0.9,0.2c-0.2,0.1-0.4,0.1-0.6,0.2l-14.1-27.1l15.6-3.5
		V74.6z M244.6,43.3L228.5,47l-4.6-8.9l15.4-8.5l0.7-0.4l4.6,7V43.3z M244.6,34.3l-2.9-4.4c0.8,0.7,1.8,1.1,2.9,1.2V34.3z
		 M272.6,22.8l-0.6,3.5l-8.8-0.4L263,24L272.6,22.8z M268.6,67.2c-0.3-1.2-1.5-2-2.7-2l1.7-9.1l34.7,45.5l-23.4-22.8l-10.3-10.1
		C268.7,68.2,268.8,67.7,268.6,67.2z M265.5,62.1l-0.6-9.6l1.9,2.5L265.5,62.1z M267,53.6l-2.3-3L264,40l5.7-1.3L267,53.6z
		 M262.6,57.8l-6.1-16.2l0.1,0l7.1,9.4l0.8,11.9L262.6,57.8z M263.2,62.2L250.4,43l5.1-1.1L263.2,62.2z M257.7,41.4l5.4-1.2l0.6,9
		L257.7,41.4z M264,39l-0.8-12l8.6,0.4l-1.9,10.4L264,39z M262,24.1l0.1,1.8l-10.9-0.4L262,24.1z M262.2,26.9l0.8,12.3l-6,1.3
		l-1.9-2.5l-4.4-11.6L262.2,26.9z M250.1,27.6l2.9,7.7l-4.3-5.6C249.4,29.1,249.8,28.4,250.1,27.6z M245.6,31.1
		c0.3,0,0.6-0.1,0.9-0.2c0.5-0.1,1-0.4,1.5-0.6l6.3,8.3l0.9,2.4l-5.3,1.2l-4.3-6.4V31.1z M245.6,37.6l3.2,4.8l-3.2,0.7V37.6z
		 M245.6,74.6V44.1l3.8-0.9l14.9,22.5c-0.3,0.3-0.6,0.6-0.8,1l-14.3,9.8C248.3,75.5,247,74.8,245.6,74.6z M302.1,104.1l-51.8-22.4
		c0.3-1,0.4-2,0.1-3.1c-0.1-0.4-0.3-0.9-0.5-1.2l13.5-9.3c0,0.2,0,0.3,0.1,0.5c0.4,1.4,1.9,2.3,3.3,1.9c0.6-0.1,1-0.5,1.4-0.9
		l10.4,10.1l24.1,23.5C302.4,103.5,302.2,103.8,302.1,104.1z M306.3,101.3c-0.3,0-0.6,0.1-0.9,0.2c-0.5,0.1-1,0.4-1.5,0.6
		l-36.1-47.4l2.9-16.2l35.7-8.1L306.3,101.3z M306.5,29.4l-35.5,8l1.8-10.1l31.9,1.3l1.8,0.1L306.5,29.4z M306.5,27.7L273,26.3
		l0.7-3.6l32.9-4L306.5,27.7z M439.6,26.1c0.6-0.2,1.1-0.4,1.6-0.7l-12.5,23.3l-15.5,5.7l4.2-19.2L434,24.2
		C435.3,25.8,437.5,26.6,439.6,26.1z M412,54.7l-0.3,0.1l3.4-18.3l1-0.6L412,54.7z M424.5,2.1l7.3,10.5l2.9,4.2
		c-0.9,0.7-1.5,1.7-1.8,2.8l-11.9-1.8L424.5,2.1z M420.8,18.8l12,1.8c0,0.6,0,1.1,0.2,1.7c0.1,0.4,0.3,0.8,0.4,1.1l-15.8,10.3
		L420.8,18.8z M418.5,18.4l1.4,0.2l-3.5,15.8l-1,0.7L418.5,18.4z M405.7,16.5l11.8,1.7l-3.3,17.6l-22.2,14.5L405.7,16.5z
		 M373.7,11.8l26,3.8l5,0.7l-14.1,34.9l-7.2,4.7l-12.8-40.5C372.2,14.8,373.3,13.4,373.7,11.8z M365.2,14.8l-19.1,29.7l-28.3-14.1
		c0.4-1,0.5-2,0.2-3.1l45.5-14.6C363.9,13.5,364.5,14.2,365.2,14.8z M307.5,18.5l50.1-6.2l5.7-0.7c0,0,0,0,0,0l-8.6,2.8l-36.9,11.9
		c-1-2.4-3.7-3.8-6.4-3.1c-2.1,0.6-3.6,2.3-3.9,4.3L307.5,18.5z M307.3,101.3l0.2-71.1l0.2,0c0.9,2.7,3.7,4.3,6.5,3.6
		c1.4-0.4,2.5-1.2,3.2-2.4l28.2,14.1l-2.8,4.3l-33.5,52.2C308.7,101.5,308,101.3,307.3,101.3z M363,69.3l-52,34
		c-0.3-0.3-0.6-0.6-0.9-0.9l34.3-53.5l2-3.1l29.8,14.9L363,69.3z M377.2,60.1L347,45l19-29.7c1.1,0.6,2.4,0.8,3.6,0.5l12.9,40.8
		L377.2,60.1z M383.5,63.2l-5.3-2.6l4.6-3l1.5,4.9C384,62.7,383.7,62.9,383.5,63.2z M386.2,62.2c-0.3-0.1-0.6-0.1-0.8,0l-1.6-5.2
		l6.2-4.1L386.2,62.2z M388,63.5c-0.2-0.4-0.5-0.7-0.9-0.9l4.3-10.6L414,37.3l-1.9,10.1l-1.5,7.8L388,63.5z M411.5,56l0.3-0.1
		l-1.7,7.8L411.5,56z M405,91.6l7.9-36.1l15.1-5.5l-22.5,41.8C405.3,91.7,405.1,91.6,405,91.6z M406.9,92.6
		c-0.2-0.2-0.4-0.3-0.6-0.4l23-42.8L466.2,36L406.9,92.6z M414.3,87l54.3-51.8l14.3-5.2L414.3,87z M483.3,26.7
		c-0.5,0.6-0.8,1.4-0.6,2.2l-12.4,4.5l10.5-10L483.3,26.7z"/>
</g>
</svg>
